<svg width="30" height="33" viewBox="0 0 30 33" fill="none" xmlns="http://www.w3.org/2000/svg">
<path d="M17.6468 5.21053H19.4114V3.47368C19.4114 3.01305 19.2255 2.57127 18.8946 2.24555C18.5637 1.91983 18.1148 1.73684 17.6468 1.73684H12.3532C11.8852 1.73684 11.4363 1.91983 11.1054 2.24555C10.7745 2.57127 10.5886 3.01305 10.5886 3.47368V5.21053H12.3532V8.80926L2.26868 26.0005C1.94692 26.5277 1.7731 27.1295 1.76499 27.7444C1.75688 28.3593 1.91477 28.9653 2.22253 29.5005C2.53029 30.0357 2.97688 30.4809 3.51668 30.7906C4.05647 31.1003 4.67012 31.2633 5.29491 31.2632H24.7051C25.3299 31.2633 25.9435 31.1003 26.4833 30.7906C27.0231 30.4809 27.4697 30.0357 27.7775 29.5005C28.0852 28.9653 28.2431 28.3593 28.235 27.7444C28.2269 27.1295 28.0531 26.5277 27.7313 26.0005L17.6468 8.80926V5.21053ZM5.29491 33C4.34187 33.0002 3.40644 32.7472 2.58736 32.2676C1.76828 31.788 1.09592 31.0997 0.641253 30.2753C0.186584 29.4508 -0.0335314 28.5209 0.00413737 27.5835C0.0418062 26.6462 0.335862 25.7362 0.85527 24.9497L10.5886 8.35595V6.94737C10.1206 6.94737 9.67178 6.76438 9.34086 6.43866C9.00994 6.11294 8.82403 5.67117 8.82403 5.21053V3.47368C8.82403 2.55241 9.19585 1.66886 9.85769 1.01742C10.5195 0.365976 11.4172 0 12.3532 0H17.6468C18.5828 0 19.4805 0.365976 20.1423 1.01742C20.8041 1.66886 21.176 2.55241 21.176 3.47368V5.21053C21.176 5.67117 20.9901 6.11294 20.6591 6.43866C20.3282 6.76438 19.8794 6.94737 19.4114 6.94737V8.35595L29.1447 24.9497C29.6641 25.7362 29.9582 26.6462 29.9959 27.5835C30.0335 28.5209 29.8134 29.4508 29.3587 30.2753C28.9041 31.0997 28.2317 31.788 27.4126 32.2676C26.5936 32.7472 25.6581 33.0002 24.7051 33H5.29491ZM16.4011 21.3493L19.2702 18.5252L24.7051 27.7895H5.29491L11.7532 16.7779L16.4011 21.3493ZM16.4011 23.8052L12.1326 19.6055L8.35113 26.0526H21.6489L18.8926 21.3527L16.4011 23.8052ZM15.8823 12.1579C16.3503 12.1579 16.7991 12.3409 17.13 12.6666C17.4609 12.9923 17.6468 13.4341 17.6468 13.8947C17.6468 14.3554 17.4609 14.7971 17.13 15.1229C16.7991 15.4486 16.3503 15.6316 15.8823 15.6316C15.4143 15.6316 14.9655 15.4486 14.6345 15.1229C14.3036 14.7971 14.1177 14.3554 14.1177 13.8947C14.1177 13.4341 14.3036 12.9923 14.6345 12.6666C14.9655 12.3409 15.4143 12.1579 15.8823 12.1579Z" fill="#C1773A"/>
</svg>
