<svg width="112" height="73" viewBox="0 0 112 73" fill="none" xmlns="http://www.w3.org/2000/svg">
<rect width="112" height="73" fill="white"/>
<path d="M28.3299 59.8912C28.4195 59.8912 28.4997 59.811 28.4997 59.7213C28.4997 59.6316 28.4195 59.5562 28.3299 59.5562C28.2403 59.5562 28.1648 59.6316 28.1648 59.7213C28.1648 59.8157 28.2403 59.8912 28.3299 59.8912Z" fill="#454545"/>
<path d="M27.891 59.8912C27.9853 59.8912 28.0608 59.811 28.0608 59.7213C28.0608 59.6316 27.9806 59.5562 27.891 59.5562C27.8014 59.5562 27.7212 59.6316 27.7212 59.7213C27.7259 59.8157 27.8014 59.8912 27.891 59.8912Z" fill="#454545"/>
<path d="M30.5279 61.9346C30.4383 61.9346 30.3628 62.0101 30.3628 62.0998C30.3628 62.1895 30.4383 62.2696 30.5279 62.2696C30.6175 62.2696 30.6977 62.1895 30.6977 62.0998C30.693 62.0101 30.6175 61.9346 30.5279 61.9346Z" fill="#454545"/>
<path d="M30.0892 61.9346C29.9948 61.9346 29.9241 62.0101 29.9241 62.0998C29.9241 62.1895 29.9948 62.2696 30.0892 62.2696C30.1788 62.2696 30.259 62.1895 30.259 62.0998C30.259 62.0101 30.1788 61.9346 30.0892 61.9346Z" fill="#454545"/>
<path d="M31.3391 59.8912C31.4288 59.8912 31.5089 59.811 31.5089 59.7213C31.5089 59.6316 31.4288 59.5562 31.3391 59.5562C31.2448 59.5562 31.174 59.6316 31.174 59.7213C31.1693 59.8157 31.2448 59.8912 31.3391 59.8912Z" fill="#454545"/>
<path d="M31.7732 59.8912C31.8629 59.8912 31.9431 59.811 31.9431 59.7213C31.9431 59.6316 31.8629 59.5562 31.7732 59.5562C31.6883 59.5562 31.6082 59.6316 31.6082 59.7213C31.6082 59.8157 31.6836 59.8912 31.7732 59.8912Z" fill="#454545"/>
<path d="M32.7638 61.9346C32.6695 61.9346 32.594 62.0101 32.594 62.0998C32.594 62.1895 32.6695 62.2696 32.7638 62.2696C32.8534 62.2696 32.9289 62.1895 32.9289 62.0998C32.9336 62.0101 32.8581 61.9346 32.7638 61.9346Z" fill="#454545"/>
<path d="M32.3251 61.9346C32.2355 61.9346 32.1553 62.0101 32.1553 62.0998C32.1553 62.1895 32.2355 62.2696 32.3251 62.2696C32.4147 62.2696 32.4902 62.1895 32.4902 62.0998C32.4949 62.0101 32.4147 61.9346 32.3251 61.9346Z" fill="#454545"/>
<path d="M32.6929 61.0472C32.6929 61.269 32.5845 61.3776 32.3722 61.3776H32.042C31.8297 61.3776 31.7212 61.269 31.7212 61.0566V60.1788L31.4146 60.2685V61.0425C31.4146 61.2643 31.3061 61.3729 31.0892 61.3729H30.7778C30.5656 61.3729 30.4571 61.2643 30.4571 61.0519V60.1741L30.1505 60.2638V61.0377C30.1505 61.2596 30.042 61.3681 29.825 61.3681H28.9759C28.7637 61.3681 28.6599 61.2596 28.6599 61.0377V60.1694H27.9995C27.5891 60.1694 27.3816 60.4101 27.3816 60.8915C27.3816 61.387 27.5891 61.6371 27.9995 61.6371C28.2448 61.6371 28.4005 61.5616 28.4759 61.4106C28.542 61.5616 28.7071 61.6371 28.9571 61.6371H29.8486C30.0467 61.6371 30.1977 61.5805 30.3109 61.4672C30.4193 61.5805 30.5703 61.6371 30.7637 61.6371H31.1128C31.3109 61.6371 31.4618 61.5805 31.575 61.4672C31.6835 61.5805 31.8345 61.6371 32.0278 61.6371H32.3958C32.5797 61.6371 32.7307 61.5805 32.8392 61.4767C32.9477 61.3681 33.0043 61.2313 33.0043 61.066V60.1741L32.6977 60.2638L32.6929 61.0472ZM28.3486 60.9009C28.3486 61.0613 28.325 61.1746 28.2825 61.2501C28.2354 61.3398 28.141 61.3823 28.0184 61.3823C27.891 61.3823 27.8014 61.3398 27.7542 61.2501C27.7118 61.1793 27.6882 61.0613 27.6882 60.9009C27.6882 60.7405 27.7118 60.6225 27.7542 60.5563C27.8014 60.4715 27.8957 60.4289 28.0184 60.4289H28.3486V60.9009Z" fill="#454545"/>
<path d="M38.5611 61.0427C38.5611 61.2644 38.4526 61.373 38.2451 61.373H37.2168C37.2215 61.255 37.2168 61.1654 37.212 61.0993C37.1931 60.8586 37.1083 60.6651 36.962 60.514C36.811 60.363 36.6129 60.2876 36.3676 60.2876C36.3205 60.2876 36.2733 60.2923 36.2261 60.297L36.929 59.5608H36.5281L35.5186 60.6132L35.7309 60.8114C35.8771 60.6415 36.0658 60.5566 36.2969 60.5566C36.4761 60.5566 36.6224 60.6085 36.7308 60.7123C36.811 60.7878 36.863 60.8963 36.8866 61.0284C36.896 61.0946 36.9054 61.2173 36.9007 61.3824H34.5752C34.5799 61.222 34.5799 61.0851 34.5799 60.986C34.5799 60.481 34.3724 60.2262 33.9573 60.2262C33.7356 60.2262 33.5657 60.3064 33.4525 60.4669C33.3582 60.599 33.311 60.7736 33.311 60.986C33.311 61.1795 33.3676 61.3353 33.4761 61.4532C33.5941 61.5807 33.7639 61.6467 33.9809 61.6467H34.2356C34.212 61.8355 34.061 61.9959 33.8535 62.0007C33.6931 62.0054 33.528 61.9677 33.3441 61.8874L33.4808 62.1847C33.5657 62.2414 33.6931 62.2697 33.8582 62.2697C34.0516 62.2697 34.2073 62.2083 34.3299 62.0809C34.4431 61.9677 34.5139 61.8261 34.5422 61.6467H38.2592C38.4431 61.6467 38.5941 61.5901 38.7026 61.4863C38.8111 61.3777 38.8677 61.2408 38.8677 61.0757V59.5608L38.5611 59.6505V61.0427ZM34.2639 61.3777H33.9809C33.7403 61.3777 33.6176 61.2456 33.6176 60.9813C33.6176 60.6557 33.7309 60.4905 33.9573 60.4905C34.0893 60.4905 34.1837 60.5471 34.2261 60.6509C34.2544 60.717 34.2686 60.8256 34.2686 60.9766L34.2639 61.3777Z" fill="#454545"/>
<path d="M39.179 59.6456V61.6466H39.4903V59.5513L39.179 59.6456Z" fill="#454545"/>
<path d="M42.061 59.6505V61.5618C42.061 61.7223 42.0092 61.8308 41.9101 61.9016C41.8252 61.9535 41.6931 61.9819 41.5091 61.9819C41.278 61.9819 41.113 61.9205 41.0186 61.7978C40.9242 61.6798 40.8818 61.4627 40.8818 61.1607L40.5752 61.2598C40.6035 61.5996 40.6837 61.845 40.8016 62.0008C40.9478 62.1801 41.1789 62.2698 41.5091 62.2698C42.0893 62.2698 42.3818 62.0338 42.3818 61.5571L42.3771 59.5562L42.061 59.6505Z" fill="#454545"/>
<path d="M43.3159 60.2356C43.0942 60.2356 42.9244 60.3158 42.8159 60.4668C42.731 60.5943 42.6838 60.7594 42.6838 60.9624C42.6838 61.1653 42.731 61.3305 42.8159 61.4579C42.9244 61.6136 43.0942 61.6938 43.3159 61.6938C43.4292 61.6938 43.5282 61.6702 43.6226 61.6136C43.5989 61.859 43.4669 61.9865 43.231 62.0006C43.0707 62.01 42.9008 61.977 42.7169 61.8873L42.8537 62.1846C42.9433 62.2413 43.0707 62.2696 43.231 62.2696C43.4621 62.2696 43.6367 62.1941 43.7594 62.0478C43.8726 61.9156 43.9291 61.7411 43.9291 61.5192C43.9291 61.4862 43.9338 61.4201 43.9385 61.3163C43.9433 61.2219 43.9433 61.1417 43.9433 61.0804C43.9433 60.8302 43.9056 60.6367 43.8348 60.5046C43.7358 60.3253 43.5612 60.2356 43.3159 60.2356ZM43.3159 61.4201C43.099 61.4201 42.9905 61.2691 42.9905 60.9624C42.9905 60.6556 43.099 60.4999 43.3159 60.4999C43.5329 60.4999 43.6414 60.6509 43.6414 60.9624C43.6414 61.2691 43.5329 61.4201 43.3159 61.4201Z" fill="#454545"/>
<path d="M47.0374 59.8912C47.127 59.8912 47.2072 59.811 47.2072 59.7213C47.2072 59.6316 47.127 59.5562 47.0374 59.5562C46.9478 59.5562 46.8723 59.6316 46.8723 59.7213C46.8723 59.8157 46.9525 59.8912 47.0374 59.8912Z" fill="#454545"/>
<path d="M46.6035 59.8912C46.6932 59.8912 46.7734 59.811 46.7734 59.7213C46.7734 59.6316 46.6932 59.5562 46.6035 59.5562C46.5092 59.5562 46.4385 59.6316 46.4385 59.7213C46.4385 59.8157 46.5092 59.8912 46.6035 59.8912Z" fill="#454545"/>
<path d="M48.1176 61.9392C48.028 61.9392 47.9478 62.0195 47.9478 62.1044C47.9478 62.194 48.0232 62.2743 48.1176 62.2743C48.2072 62.2743 48.2827 62.194 48.2827 62.1044C48.2827 62.0148 48.2072 61.9392 48.1176 61.9392Z" fill="#454545"/>
<path d="M49.6979 61.0427C49.6979 61.2645 49.5894 61.3825 49.3818 61.3825H48.5705C48.3582 61.3825 48.2497 61.274 48.2497 61.0616V60.1838L47.9432 60.2735V61.0474C47.9432 61.2693 47.8347 61.3778 47.6177 61.3778H47.3064C47.0941 61.3778 46.9856 61.2693 46.9856 61.0569V60.179L46.679 60.2687V61.0427C46.679 61.2645 46.5706 61.3731 46.3536 61.3731H45.2356V60.1743L44.929 60.264V61.5477C44.929 61.8214 44.7686 61.9913 44.5092 61.9913C44.3252 61.9913 44.1601 61.9488 44.0139 61.8686L44.1601 62.1754C44.2544 62.232 44.3677 62.2651 44.5092 62.2651C44.929 62.2651 45.1932 62.0196 45.2356 61.6421H46.3771C46.5753 61.6421 46.7262 61.5854 46.8394 61.4675C46.9479 61.5807 47.0988 61.6421 47.2922 61.6421H47.6413C47.8394 61.6421 47.9903 61.5854 48.1035 61.4675C48.212 61.5807 48.363 61.6421 48.5564 61.6421H49.4054C49.5894 61.6421 49.7403 61.5854 49.8488 61.4817C49.9573 61.3731 50.014 61.2362 50.014 61.071V59.5562L49.7073 59.6458L49.6979 61.0427Z" fill="#454545"/>
<path d="M50.3206 59.6456V61.6466H50.6271V59.5513L50.3206 59.6456Z" fill="#454545"/>
<path d="M52.226 59.8912C52.3203 59.8912 52.3958 59.811 52.3958 59.7213C52.3958 59.6316 52.3203 59.5562 52.226 59.5562C52.1363 59.5562 52.0562 59.6316 52.0562 59.7213C52.0562 59.8157 52.1363 59.8912 52.226 59.8912Z" fill="#454545"/>
<path d="M52.6649 59.8912C52.7545 59.8912 52.8347 59.811 52.8347 59.7213C52.8347 59.6316 52.7545 59.5562 52.6649 59.5562C52.5752 59.5562 52.4998 59.6316 52.4998 59.7213C52.4998 59.8157 52.5705 59.8912 52.6649 59.8912Z" fill="#454545"/>
<path d="M60.1696 61.052C60.1696 61.2644 60.0611 61.3682 59.8536 61.3682H59.5234V60.3158L59.2168 60.4054V61.3729H58.58V60.4573L58.2734 60.5423V61.3634H56.5564V60.1695L56.2498 60.2592V61.3587H55.5989V60.311L55.2922 60.4007V61.3587H54.6508V60.4479L54.3441 60.5329V61.3634H53.3158C53.1035 61.3634 52.9998 61.2549 52.9998 61.0331V60.1648H52.3394C51.9243 60.1648 51.7168 60.4054 51.7168 60.8868C51.7168 61.3824 51.9243 61.6325 52.3394 61.6325C52.5847 61.6325 52.7404 61.557 52.8159 61.406C52.8865 61.557 53.047 61.6325 53.3017 61.6325H59.8819C60.2546 61.6325 60.4904 61.4107 60.4904 61.0756V60.1648L60.1838 60.2592V61.052H60.1696ZM52.679 60.901C52.679 61.0614 52.6554 61.1747 52.613 61.2502C52.5658 61.3398 52.4715 61.3824 52.3489 61.3824C52.2215 61.3824 52.1319 61.3398 52.0847 61.2502C52.0422 61.1794 52.0187 61.0614 52.0187 60.901C52.0187 60.7405 52.0422 60.6226 52.0847 60.5564C52.1319 60.4715 52.2262 60.429 52.3489 60.429H52.679V60.901Z" fill="#454545"/>
<path d="M61.8207 59.8769H61.349V59.7967C61.349 59.6646 61.4056 59.5984 61.514 59.5984C61.5706 59.5984 61.6225 59.6267 61.665 59.6834L61.7923 59.556C61.7122 59.4757 61.6273 59.438 61.5376 59.438C61.3065 59.438 61.1744 59.6079 61.1744 59.825V59.8816H61.0282L60.8914 60.0515H61.8207V59.8769Z" fill="#454545"/>
<path d="M63.9337 60.2498C63.712 60.2498 63.5422 60.3206 63.4385 60.4668C63.3488 60.5896 63.3064 60.75 63.3064 60.9482V61.0521C63.3064 61.2692 63.1979 61.3777 62.9903 61.3777H62.0658C62.0705 61.2172 62.0705 61.0804 62.0705 60.9812C62.0705 60.4763 61.863 60.2214 61.4526 60.2214C61.2309 60.2214 61.0611 60.3017 60.9479 60.4621C60.8535 60.5943 60.8064 60.7689 60.8064 60.9812C60.8064 61.1748 60.863 61.3305 60.9714 61.4485C61.0894 61.5759 61.2592 61.6419 61.4762 61.6419H61.7309C61.7073 61.8355 61.5564 61.9912 61.3489 61.9959C61.1884 62.0006 61.0234 61.9629 60.8394 61.8826L60.9762 62.18C61.0611 62.2366 61.1884 62.2649 61.3536 62.2649C61.5469 62.2649 61.7026 62.2036 61.8253 62.0762C61.9385 61.9629 62.0092 61.8213 62.0375 61.6419H63.0092C63.2215 61.6419 63.3819 61.5853 63.4856 61.4721C63.5988 61.5853 63.7498 61.6419 63.9384 61.6419C64.1601 61.6419 64.3253 61.5665 64.4338 61.4202C64.5187 61.2975 64.5658 61.1417 64.5658 60.9435C64.5658 60.7453 64.5187 60.5848 64.4338 60.4621C64.3206 60.3253 64.1554 60.2498 63.9337 60.2498ZM61.7545 61.3777H61.4715C61.2309 61.3777 61.1083 61.2455 61.1083 60.9812C61.1083 60.651 61.2215 60.4904 61.4479 60.4904C61.58 60.4904 61.6743 60.5471 61.7168 60.651C61.745 60.7217 61.7592 60.8255 61.7592 60.9812L61.7545 61.3777ZM63.9337 61.3824C63.7215 61.3824 63.613 61.2408 63.613 60.953C63.613 60.6651 63.7215 60.5188 63.9337 60.5188C64.146 60.5188 64.2498 60.6651 64.2498 60.953C64.2498 61.2408 64.146 61.3824 63.9337 61.3824Z" fill="#454545"/>
<path d="M67.6886 61.052C67.6886 61.2644 67.5801 61.3682 67.3631 61.3682H66.2687C66.0564 61.3682 65.9479 61.2597 65.9479 61.052V60.4433L65.6414 60.7547V61.0851C65.6414 61.4201 65.8772 61.6419 66.2263 61.6419H67.3772C67.7546 61.6419 67.9857 61.4248 67.9857 61.0851V60.179L67.6838 60.2592V61.052H67.6886Z" fill="#454545"/>
<path d="M67.033 60.3866C67.1226 60.3866 67.2028 60.3111 67.2028 60.2167C67.2028 60.1271 67.1273 60.0469 67.033 60.0469C66.9434 60.0469 66.8679 60.1271 66.8679 60.2167C66.8679 60.3159 66.9481 60.3866 67.033 60.3866Z" fill="#454545"/>
<path d="M66.5992 60.3866C66.6888 60.3866 66.769 60.3111 66.769 60.2167C66.769 60.1271 66.6888 60.0469 66.5992 60.0469C66.5095 60.0469 66.4341 60.1271 66.4341 60.2167C66.4341 60.3159 66.5095 60.3866 66.5992 60.3866Z" fill="#454545"/>
<path d="M71.0754 60.4906C70.9245 60.3537 70.7358 60.2876 70.5093 60.2876C70.4622 60.2876 70.415 60.2923 70.3679 60.297L71.0707 59.5609H70.6697L69.6603 60.6133L69.8725 60.8114C70.0188 60.6416 70.2074 60.5566 70.4386 60.5566C70.6178 60.5566 70.764 60.6086 70.8725 60.7124C70.9528 60.7879 71.0046 60.8964 71.0282 61.0286C71.0377 61.0994 71.0424 61.2174 71.0424 61.3825H69.5942V61.3778H69.0753H68.9952H68.7688C68.6603 61.3778 68.6084 61.3258 68.6084 61.2221V59.5562L68.3018 59.6552V61.2362C68.3018 61.4864 68.4527 61.6562 68.731 61.6562H68.9952H69.0753H69.5187H69.5942H71.3584C71.3584 61.2881 71.3537 61.0805 71.3489 61.0333C71.3207 60.802 71.2263 60.6227 71.0754 60.4906Z" fill="#454545"/>
<path d="M75.0279 59.5134C75.1176 59.5134 75.1978 59.4331 75.1978 59.3481C75.1978 59.2585 75.1176 59.1782 75.0279 59.1782C74.9383 59.1782 74.8582 59.2585 74.8582 59.3481C74.8582 59.4331 74.9336 59.5134 75.0279 59.5134Z" fill="#454545"/>
<path d="M75.0752 59.7211C75.0752 59.8108 75.1507 59.891 75.2402 59.891C75.3299 59.891 75.4101 59.8108 75.4101 59.7211C75.4101 59.6267 75.3299 59.5513 75.2402 59.5513C75.1507 59.5513 75.0752 59.6267 75.0752 59.7211Z" fill="#454545"/>
<path d="M74.8065 59.891C74.8961 59.891 74.9763 59.8108 74.9763 59.7211C74.9763 59.6267 74.8961 59.5513 74.8065 59.5513C74.7121 59.5513 74.6414 59.6314 74.6414 59.7211C74.6414 59.8155 74.7121 59.891 74.8065 59.891Z" fill="#454545"/>
<path d="M75.8443 61.0519C75.8443 61.2643 75.7358 61.3681 75.5282 61.3681H75.198V60.3157L74.8914 60.4053V61.3729H74.2547V60.4573L73.948 60.5422V61.3634H73.6367H73.5565H73.1037H73.0235H72.6414V60.1694L72.3348 60.2591V61.5474C72.3348 61.8211 72.1744 61.9911 71.915 61.9911C71.731 61.9911 71.5659 61.9486 71.4197 61.8684L71.5659 62.1751C71.6603 62.2318 71.7735 62.2601 71.915 62.2601C72.3348 62.2601 72.5989 62.0147 72.6414 61.6371H73.0235H73.1037H73.5565H73.6273H75.5377C75.9103 61.6371 76.1461 61.4153 76.1461 61.0803V60.1694L75.8395 60.2638V61.0519H75.8443Z" fill="#454545"/>
<path d="M78.5659 60.4479C78.7169 60.4479 78.849 60.5376 78.9622 60.7122L79.0613 60.4149C78.9198 60.2639 78.7499 60.1836 78.5471 60.1836C78.1697 60.1836 77.9339 60.4102 77.9339 60.7593V61.2124H78.7405V61.5947C78.7405 61.7363 78.6791 61.8401 78.5565 61.9061C78.4622 61.9628 78.3348 61.9911 78.1839 61.9911C77.9575 61.9911 77.7971 61.9298 77.698 61.8071C77.599 61.6844 77.5518 61.4767 77.5518 61.1794L77.2405 61.2738C77.2688 61.6088 77.3443 61.8495 77.4622 61.9958C77.6037 62.1799 77.8442 62.2742 78.1792 62.2742C78.4244 62.2742 78.6179 62.2271 78.7641 62.1327C78.9481 62.0147 79.0377 61.8354 79.0377 61.5994V60.9481H78.2358V60.7877C78.2405 60.5565 78.349 60.4479 78.5659 60.4479Z" fill="#454545"/>
<path d="M82.4623 60.179C82.1981 60.179 81.9623 60.2875 81.7453 60.4951L81.967 60.6981C82.118 60.5329 82.2831 60.448 82.4623 60.448C82.6746 60.448 82.8161 60.5376 82.8868 60.7217C82.934 60.8303 82.9529 61.0096 82.9529 61.255V61.373H81.6227V61.3682H81.1038H81.0236H80.6651V60.7358C80.6651 60.566 80.6085 60.4338 80.4859 60.3347C80.3632 60.2356 80.2123 60.1837 80.0236 60.1837C79.8774 60.1837 79.7312 60.2497 79.585 60.3772V60.7264C79.6934 60.5376 79.8397 60.4433 80.0236 60.4433C80.2453 60.4433 80.3632 60.5518 80.3632 60.7594V61.3777H79.566L79.3821 61.6419H81.0283H81.1085H81.552H81.6321H83.2831V61.2597C83.2831 60.9435 83.2407 60.7028 83.1557 60.5376C83.019 60.3017 82.7925 60.179 82.4623 60.179Z" fill="#454545"/>
<path d="M83.585 59.6456V61.6466H83.8915V59.5513L83.585 59.6456Z" fill="#454545"/>
<path d="M83.7404 59.3154V59.2494C83.7404 59.1738 83.764 59.1361 83.8206 59.1361C83.8583 59.1361 83.8867 59.1503 83.9102 59.1833L83.9809 59.0936C83.9338 59.0464 83.8867 59.0276 83.83 59.0276C83.6885 59.0276 83.6225 59.1031 83.6225 59.2541V59.3201H83.5328L83.4668 59.4287H83.9999V59.3201H83.7404V59.3154Z" fill="#454545"/>
<path d="M28.1081 63.1143H28.4619L29.1977 65.0209H28.8392L28.66 64.5159H27.9005L27.7213 65.0209H27.377L28.1081 63.1143ZM27.9902 64.2658H28.5704L28.2826 63.4446H28.2732L27.9902 64.2658Z" fill="#454545"/>
<path d="M30.3439 64.3886C30.3439 64.4641 30.358 64.5255 30.3816 64.5774C30.4052 64.6293 30.4429 64.6718 30.4854 64.7048C30.5278 64.7379 30.5797 64.7615 30.6363 64.7756C30.6929 64.7898 30.759 64.7992 30.825 64.7992C30.9005 64.7992 30.9618 64.7898 31.0137 64.7756C31.0656 64.7568 31.108 64.7379 31.141 64.7095C31.1741 64.6812 31.1977 64.6529 31.2118 64.6199C31.226 64.5868 31.2354 64.5491 31.2354 64.5161C31.2354 64.4405 31.2165 64.3886 31.1882 64.3556C31.1552 64.3178 31.1175 64.2942 31.0797 64.2801C31.0137 64.2565 30.9335 64.2329 30.8439 64.2093C30.7542 64.1857 30.6458 64.1574 30.5137 64.1244C30.4335 64.1008 30.3627 64.0771 30.3109 64.0394C30.2543 64.0064 30.2118 63.9639 30.1788 63.9214C30.1458 63.879 30.1222 63.8318 30.1127 63.7845C30.0986 63.7374 30.0939 63.6901 30.0939 63.6383C30.0939 63.5438 30.1127 63.459 30.1552 63.3881C30.1929 63.3174 30.2495 63.2607 30.3156 63.2136C30.3816 63.1663 30.4571 63.1333 30.542 63.1097C30.6269 63.0861 30.7118 63.0767 30.7967 63.0767C30.8958 63.0767 30.9901 63.0908 31.0797 63.1144C31.1694 63.1427 31.2448 63.1805 31.3109 63.2324C31.3769 63.2843 31.4288 63.3457 31.4712 63.4259C31.509 63.5014 31.5278 63.5911 31.5278 63.6901H31.1929C31.1835 63.5675 31.141 63.4825 31.0656 63.4306C30.9901 63.3787 30.8958 63.3551 30.7778 63.3551C30.7401 63.3551 30.6976 63.3598 30.6552 63.3693C30.6127 63.3787 30.575 63.3928 30.542 63.407C30.509 63.4259 30.4807 63.4495 30.4571 63.4825C30.4335 63.5155 30.4241 63.5533 30.4241 63.6005C30.4241 63.6665 30.4476 63.7232 30.4854 63.761C30.5278 63.7987 30.5797 63.8271 30.6505 63.8459C30.6599 63.8459 30.6835 63.8554 30.7354 63.8695C30.7826 63.8837 30.8392 63.8978 30.9005 63.912C30.9618 63.9261 31.0184 63.945 31.0797 63.9592C31.1363 63.9734 31.1788 63.9828 31.2024 63.9922C31.2637 64.0111 31.3203 64.0394 31.3675 64.0724C31.4146 64.1055 31.4524 64.1479 31.4854 64.1904C31.5184 64.2329 31.542 64.2801 31.5561 64.332C31.5703 64.3839 31.5797 64.4311 31.5797 64.4831C31.5797 64.5915 31.5561 64.6812 31.5137 64.7568C31.4712 64.8322 31.4146 64.8936 31.3439 64.9408C31.2731 64.988 31.1929 65.0257 31.0986 65.0446C31.009 65.0682 30.9146 65.0776 30.8203 65.0776C30.7118 65.0776 30.608 65.0635 30.5137 65.0399C30.4193 65.0116 30.3344 64.9738 30.2637 64.9172C30.1929 64.8606 30.1363 64.7898 30.0939 64.7048C30.0514 64.6199 30.0278 64.5161 30.0278 64.3981H30.3439V64.3886Z" fill="#454545"/>
<path d="M33.0233 65.0257H32.7261V64.8321H32.7214C32.6837 64.903 32.6271 64.9596 32.5563 64.9973C32.4809 65.0398 32.4054 65.0587 32.3299 65.0587C32.1459 65.0587 32.0186 65.0162 31.9337 64.9218C31.8535 64.8321 31.811 64.6953 31.811 64.516V63.6382H32.1176V64.4876C32.1176 64.6103 32.1412 64.6953 32.1884 64.7425C32.2356 64.7944 32.3016 64.818 32.3818 64.818C32.4478 64.818 32.4997 64.8086 32.5422 64.7897C32.5846 64.7708 32.6176 64.7425 32.6459 64.7094C32.6742 64.6764 32.6931 64.6387 32.7025 64.5914C32.712 64.5443 32.7214 64.4971 32.7214 64.4404V63.6382H33.028L33.0233 65.0257Z" fill="#454545"/>
<path d="M33.3533 63.1143H33.66V63.8174H33.6647C33.6883 63.7844 33.7118 63.7514 33.7449 63.7277C33.7732 63.6995 33.8062 63.6806 33.8439 63.6617C33.8817 63.6429 33.9194 63.6287 33.9571 63.6192C33.9949 63.6098 34.0373 63.605 34.0751 63.605C34.1835 63.605 34.2779 63.624 34.3581 63.6617C34.4383 63.6995 34.5043 63.7514 34.5609 63.8174C34.6128 63.8835 34.6552 63.9637 34.6788 64.0534C34.7071 64.1431 34.7166 64.2374 34.7166 64.3413C34.7166 64.4357 34.7024 64.5254 34.6788 64.6103C34.6552 64.6952 34.6175 64.7755 34.5703 64.8415C34.5232 64.9077 34.4571 64.9595 34.3864 65.002C34.3109 65.0398 34.2213 65.0634 34.1222 65.0634C34.0751 65.0634 34.0279 65.0587 33.9807 65.0539C33.9335 65.0492 33.8911 65.0351 33.8439 65.0161C33.8015 64.9972 33.7637 64.9737 33.726 64.9454C33.693 64.9171 33.66 64.8793 33.6411 64.8321H33.6364V65.0209H33.3486L33.3533 63.1143ZM34.4147 64.3318C34.4147 64.2705 34.4052 64.2091 34.3911 64.1478C34.3769 64.0911 34.3534 64.0346 34.3203 63.992C34.2873 63.9449 34.2496 63.9119 34.1977 63.8836C34.1505 63.8552 34.0939 63.841 34.0326 63.841C33.9052 63.841 33.8062 63.8835 33.7449 63.9732C33.6788 64.0629 33.6458 64.1808 33.6458 64.3271C33.6458 64.398 33.6552 64.4593 33.6694 64.5207C33.6883 64.582 33.7118 64.6291 33.7449 64.6717C33.7779 64.7141 33.8203 64.7471 33.8675 64.7755C33.9147 64.7991 33.9713 64.8132 34.0326 64.8132C34.1034 64.8132 34.16 64.7991 34.2071 64.7708C34.2543 64.7424 34.2968 64.7047 34.3251 64.6575C34.3534 64.6103 34.3769 64.5584 34.3911 64.5017C34.41 64.4546 34.4147 64.3932 34.4147 64.3318Z" fill="#454545"/>
<path d="M35.2072 64.582C35.2167 64.6717 35.2497 64.733 35.3063 64.7709C35.3676 64.8039 35.4337 64.8227 35.5186 64.8227C35.5469 64.8227 35.5799 64.8227 35.6177 64.818C35.6554 64.8133 35.6883 64.8039 35.7214 64.7944C35.7544 64.7803 35.778 64.7661 35.8016 64.7377C35.8205 64.7142 35.8299 64.6812 35.8299 64.6434C35.8299 64.6056 35.8157 64.5726 35.7874 64.549C35.7591 64.5254 35.7262 64.5019 35.6836 64.4876C35.6412 64.4735 35.594 64.4593 35.5421 64.4499C35.4903 64.4405 35.4337 64.4263 35.3818 64.4169C35.3252 64.4027 35.2686 64.3886 35.2167 64.3697C35.1648 64.3508 35.1176 64.3272 35.0752 64.2989C35.0327 64.2706 34.9997 64.2281 34.9761 64.1809C34.9525 64.1338 34.9384 64.0771 34.9384 64.0063C34.9384 63.9308 34.9572 63.8695 34.995 63.8175C35.0327 63.7656 35.0799 63.7279 35.1318 63.6948C35.1884 63.6618 35.2497 63.6429 35.3204 63.6288C35.3865 63.6146 35.4525 63.6099 35.5186 63.6099C35.5893 63.6099 35.6601 63.6193 35.7214 63.6335C35.7874 63.6476 35.8441 63.6712 35.8959 63.7089C35.9479 63.7421 35.9903 63.7892 36.028 63.8411C36.0611 63.8931 36.0846 63.9591 36.0941 64.0393H35.778C35.7639 63.9638 35.7309 63.9166 35.6789 63.8931C35.6271 63.8695 35.5657 63.8553 35.4997 63.8553C35.4761 63.8553 35.4525 63.8553 35.4242 63.86C35.396 63.8648 35.3676 63.8695 35.344 63.8789C35.3204 63.8883 35.2969 63.9025 35.278 63.9213C35.2592 63.9402 35.2497 63.9638 35.2497 63.9969C35.2497 64.0346 35.2639 64.0629 35.2875 64.0865C35.311 64.1101 35.3487 64.129 35.3912 64.1432C35.4337 64.1573 35.4808 64.1715 35.5327 64.1809C35.5846 64.1903 35.6412 64.2045 35.6978 64.2139C35.7544 64.2281 35.8063 64.2423 35.8629 64.2565C35.9148 64.2753 35.962 64.2989 36.0044 64.3272C36.0469 64.3555 36.0799 64.398 36.1035 64.4405C36.127 64.4876 36.1412 64.5443 36.1412 64.6103C36.1412 64.6906 36.1223 64.7614 36.0846 64.818C36.0469 64.8747 35.9997 64.9219 35.9384 64.9549C35.8771 64.9879 35.811 65.0163 35.7403 65.0304C35.6695 65.0446 35.594 65.054 35.5233 65.054C35.4384 65.054 35.3534 65.0446 35.2827 65.0257C35.2073 65.0068 35.1459 64.9784 35.0893 64.936C35.0374 64.8983 34.995 64.8463 34.962 64.785C34.9289 64.7236 34.9148 64.6529 34.9148 64.5726H35.2072V64.582Z" fill="#454545"/>
<path d="M36.3723 63.4022H36.6742V63.1143H36.3723V63.4022ZM36.3723 65.0256H36.6742V63.6429H36.3723V65.0256Z" fill="#454545"/>
<path d="M38.3061 65.021H38.0183V64.8322H38.0136C37.9712 64.9124 37.9145 64.9691 37.8344 65.0068C37.7542 65.0398 37.674 65.0587 37.5843 65.0587C37.4758 65.0587 37.3816 65.0398 37.3013 65.0021C37.2211 64.9644 37.1551 64.9124 37.0985 64.8464C37.0467 64.7803 37.0041 64.7048 36.9806 64.6104C36.9523 64.5207 36.9429 64.4263 36.9429 64.3225C36.9429 64.1998 36.9617 64.0913 36.9947 63.9969C37.0278 63.9072 37.0749 63.8317 37.1315 63.7703C37.1881 63.7137 37.2542 63.6665 37.3249 63.6429C37.3957 63.6146 37.4711 63.6005 37.5466 63.6005C37.589 63.6005 37.6315 63.6052 37.6787 63.6146C37.7212 63.624 37.7636 63.6335 37.806 63.6523C37.8485 63.6713 37.8862 63.6901 37.9192 63.7184C37.9523 63.7467 37.9853 63.7797 38.0042 63.8176H38.0089V63.1096H38.3155L38.3061 65.021ZM37.2447 64.3461C37.2447 64.4027 37.2542 64.4641 37.2684 64.5207C37.2825 64.5774 37.3061 64.6293 37.339 64.6717C37.3721 64.7142 37.4098 64.752 37.457 64.7803C37.5042 64.8086 37.5608 64.818 37.6268 64.818C37.6928 64.818 37.7542 64.8038 37.8013 64.7755C37.8485 64.7473 37.891 64.7095 37.9192 64.6623C37.9523 64.6151 37.9759 64.5632 37.99 64.5066C38.0042 64.45 38.0136 64.3886 38.0136 64.3273C38.0136 64.1762 37.9806 64.0535 37.9098 63.9686C37.8391 63.8836 37.7495 63.8411 37.6315 63.8411C37.5608 63.8411 37.4995 63.8553 37.4523 63.8836C37.4051 63.9119 37.3626 63.9497 37.3296 63.9969C37.3013 64.044 37.2778 64.096 37.2636 64.1573C37.2494 64.2234 37.2447 64.2847 37.2447 64.3461Z" fill="#454545"/>
<path d="M38.646 63.4022H38.9526V63.1143H38.646V63.4022ZM38.646 65.0256H38.9526V63.6429H38.646V65.0256Z" fill="#454545"/>
<path d="M40.4384 64.7142C40.4384 64.7519 40.4432 64.7802 40.4526 64.7944C40.462 64.8086 40.4809 64.818 40.5092 64.818H40.5422C40.5564 64.818 40.5705 64.818 40.5847 64.8133V65.0256C40.5752 65.0303 40.5611 65.035 40.5422 65.0398C40.5233 65.0445 40.5092 65.0492 40.4903 65.0539C40.4715 65.0587 40.4573 65.0587 40.4384 65.0634C40.4195 65.0634 40.4054 65.0681 40.3912 65.0681C40.33 65.0681 40.278 65.054 40.2356 65.0303C40.1931 65.0067 40.1695 64.9643 40.1554 64.8982C40.0941 64.9549 40.0186 64.9973 39.9337 65.0256C39.844 65.054 39.7592 65.0634 39.679 65.0634C39.6176 65.0634 39.5564 65.0539 39.4997 65.0398C39.4431 65.0209 39.3912 64.9973 39.3488 64.9643C39.3064 64.9312 39.2686 64.8888 39.245 64.8369C39.2214 64.7849 39.2073 64.7283 39.2073 64.6575C39.2073 64.5726 39.2214 64.5018 39.2544 64.4499C39.2827 64.3979 39.3252 64.3555 39.3771 64.3225C39.429 64.2942 39.4856 64.2705 39.5469 64.2564C39.6082 64.2422 39.6743 64.2328 39.7403 64.2234C39.7969 64.2139 39.8488 64.2045 39.896 64.1998C39.9431 64.1951 39.9903 64.1856 40.028 64.1762C40.0657 64.1667 40.0988 64.1478 40.1177 64.1242C40.1413 64.1006 40.1507 64.0676 40.1507 64.0251C40.1507 63.9874 40.1413 63.9544 40.1224 63.9308C40.1036 63.9071 40.0799 63.8882 40.0516 63.8741C40.0233 63.8599 39.9951 63.8505 39.962 63.8458C39.929 63.8411 39.896 63.8411 39.8677 63.8411C39.7828 63.8411 39.712 63.86 39.6554 63.893C39.5988 63.9308 39.5705 63.9827 39.5611 64.0582H39.2591C39.2639 63.9685 39.2874 63.893 39.3252 63.8364C39.3629 63.7797 39.4101 63.7325 39.4667 63.6948C39.5233 63.657 39.5893 63.6334 39.6649 63.6193C39.7355 63.6051 39.8111 63.5957 39.8866 63.5957C39.9525 63.5957 40.0233 63.6051 40.0894 63.6193C40.1554 63.6334 40.212 63.657 40.2686 63.6901C40.3205 63.7231 40.363 63.7655 40.3959 63.8128C40.429 63.8647 40.4432 63.9261 40.4432 63.9968V64.7142H40.4384ZM40.1365 64.3319C40.0894 64.3602 40.0328 64.3791 39.9667 64.3885C39.9007 64.3932 39.8299 64.4026 39.7639 64.4168C39.7308 64.4216 39.7026 64.431 39.6696 64.4405C39.6413 64.4499 39.6129 64.464 39.5893 64.4782C39.5658 64.4971 39.5469 64.5159 39.5328 64.5443C39.5186 64.5726 39.5139 64.6056 39.5139 64.6433C39.5139 64.6764 39.5233 64.7047 39.5422 64.7283C39.5611 64.7519 39.5846 64.7708 39.6129 64.7849C39.6413 64.7991 39.6696 64.8086 39.7026 64.8133C39.7355 64.818 39.7639 64.8227 39.7922 64.8227C39.8252 64.8227 39.8629 64.818 39.9007 64.8086C39.9384 64.7991 39.9761 64.7849 40.0092 64.7613C40.0422 64.7378 40.0752 64.7142 40.0941 64.6811C40.1177 64.6481 40.1271 64.6056 40.1271 64.5585V64.3319H40.1365Z" fill="#454545"/>
<path d="M40.7686 63.643H41.0563V63.912H41.061C41.0704 63.8742 41.0893 63.8365 41.1129 63.8034C41.1365 63.7657 41.1695 63.7373 41.2072 63.7043C41.245 63.676 41.2827 63.6524 41.3299 63.6336C41.3724 63.6146 41.4195 63.6052 41.4667 63.6052C41.5044 63.6052 41.528 63.6052 41.5421 63.6099C41.5563 63.6099 41.5705 63.6146 41.5846 63.6146V63.9073C41.561 63.9026 41.5421 63.9026 41.5186 63.8979C41.495 63.8931 41.4761 63.8931 41.4525 63.8931C41.4006 63.8931 41.3535 63.9026 41.3063 63.9214C41.2592 63.9403 41.2214 63.9733 41.1884 64.0111C41.1554 64.0489 41.1271 64.1007 41.1082 64.1574C41.0893 64.2187 41.0799 64.2848 41.0799 64.3603V65.0163H40.7733L40.7686 63.643Z" fill="#454545"/>
<path d="M41.5562 63.6428H41.891L42.2496 64.6764H42.2543L42.6034 63.6428H42.9194L42.3817 65.1012C42.3581 65.1625 42.3344 65.2239 42.3062 65.2805C42.2826 65.3371 42.2543 65.389 42.2165 65.4315C42.1835 65.4739 42.1364 65.5117 42.0845 65.5353C42.0326 65.5589 41.9665 65.573 41.8863 65.573C41.8156 65.573 41.7448 65.5683 41.6741 65.5589V65.304C41.6977 65.3088 41.7213 65.3135 41.7448 65.3182C41.7684 65.3229 41.7921 65.3229 41.8156 65.3229C41.8533 65.3229 41.8816 65.3182 41.9053 65.3088C41.9288 65.2993 41.9477 65.2852 41.9618 65.271C41.976 65.2522 41.9901 65.2333 41.9995 65.2096C42.009 65.1861 42.0185 65.1578 42.0279 65.1295L42.0609 65.0209L41.5562 63.6428Z" fill="#454545"/>
<path d="M44.4716 65.0587C44.3631 65.0587 44.264 65.0398 44.1743 65.002C44.0894 64.9643 44.014 64.917 43.9574 64.851C43.8961 64.7849 43.8536 64.7095 43.8206 64.6198C43.7876 64.5301 43.7734 64.431 43.7734 64.3272C43.7734 64.2234 43.7876 64.1242 43.8206 64.0346C43.8536 63.9449 43.8961 63.8694 43.9574 63.8034C44.0187 63.7372 44.0894 63.6901 44.1743 63.6523C44.2593 63.6145 44.3583 63.5957 44.4716 63.5957C44.58 63.5957 44.679 63.6145 44.7687 63.6523C44.8536 63.6901 44.9291 63.7372 44.9857 63.8034C45.047 63.8694 45.0894 63.9449 45.1224 64.0346C45.1555 64.1242 45.1697 64.2234 45.1697 64.3272C45.1697 64.4358 45.1555 64.5301 45.1224 64.6198C45.0894 64.7095 45.047 64.7849 44.9857 64.851C44.9244 64.917 44.8536 64.9643 44.7687 65.002C44.679 65.0445 44.58 65.0587 44.4716 65.0587ZM44.4716 64.8227C44.5375 64.8227 44.5989 64.8086 44.646 64.7802C44.698 64.7519 44.7357 64.7142 44.7687 64.6669C44.8017 64.6198 44.8253 64.5679 44.8395 64.5112C44.8536 64.4546 44.863 64.3932 44.863 64.3319C44.863 64.2705 44.8536 64.2139 44.8395 64.1573C44.8253 64.0959 44.8017 64.044 44.7687 64.0015C44.7357 63.9544 44.698 63.9213 44.646 63.8882C44.5942 63.8599 44.5375 63.8458 44.4716 63.8458C44.4055 63.8458 44.3441 63.8599 44.297 63.8882C44.2451 63.9166 44.2073 63.9544 44.1743 64.0015C44.1414 64.0488 44.1177 64.1006 44.1036 64.1573C44.0894 64.2139 44.08 64.2752 44.08 64.3319C44.08 64.3932 44.0894 64.4499 44.1036 64.5112C44.1177 64.5679 44.1414 64.6198 44.1743 64.6669C44.2073 64.7142 44.2451 64.7519 44.297 64.7802C44.3441 64.8038 44.4008 64.8227 44.4716 64.8227Z" fill="#454545"/>
<path d="M45.2874 63.643H45.5138V63.5298C45.5138 63.4448 45.5232 63.3693 45.5468 63.3174C45.5703 63.2654 45.5986 63.223 45.6317 63.19C45.6647 63.1617 45.7071 63.1428 45.7543 63.1333C45.8015 63.1238 45.8487 63.1191 45.8958 63.1191C45.9949 63.1191 46.0656 63.1239 46.1081 63.138V63.374C46.0893 63.3693 46.0656 63.3645 46.0467 63.3598C46.0232 63.3551 45.9996 63.3551 45.9666 63.3551C45.9241 63.3551 45.8911 63.3645 45.8628 63.3834C45.8345 63.4024 45.8203 63.4401 45.8203 63.4967V63.6383H46.0798V63.8648H45.8203V65.021H45.5138V63.8648H45.2874V63.643Z" fill="#454545"/>
<path d="M47.0469 63.1143H47.3818V63.9826L48.2309 63.1143H48.6413L47.8818 63.8788L48.6978 65.0256H48.278L47.6554 64.11L47.3818 64.3838V65.0256H47.0469V63.1143Z" fill="#454545"/>
<path d="M50.047 65.0256H49.7498V64.8321H49.7451C49.7074 64.9029 49.6507 64.9595 49.58 64.9973C49.5045 65.0398 49.429 65.0586 49.3536 65.0586C49.1696 65.0586 49.0423 65.0162 48.9573 64.9218C48.8772 64.8321 48.8347 64.6952 48.8347 64.5159V63.6428H49.1414V64.4924C49.1414 64.6151 49.1649 64.7 49.2121 64.7472C49.2593 64.7991 49.3253 64.8226 49.4055 64.8226C49.4716 64.8226 49.5234 64.8132 49.5659 64.7944C49.6083 64.7755 49.6413 64.7472 49.6696 64.7141C49.698 64.6811 49.7168 64.6434 49.7262 64.5962C49.7357 64.5489 49.7451 64.5018 49.7451 64.4451V63.6428H50.0517L50.047 65.0256Z" fill="#454545"/>
<path d="M50.2449 63.6428H50.5657L50.8345 64.6717H50.8393L51.0987 63.6428H51.4053L51.6553 64.6717H51.66L51.9431 63.6428H52.2496L51.8204 65.0209H51.5044L51.2496 63.9968H51.2449L50.9902 65.0209H50.6694L50.2449 63.6428Z" fill="#454545"/>
<path d="M53.6037 64.7142C53.6037 64.7519 53.6084 64.7802 53.6179 64.7944C53.6273 64.8086 53.6462 64.818 53.6745 64.818H53.7075C53.7216 64.818 53.7358 64.818 53.75 64.8133V65.0256C53.7405 65.0303 53.7263 65.035 53.7075 65.0398C53.6886 65.0445 53.6745 65.0492 53.6556 65.0539C53.6368 65.0587 53.6226 65.0587 53.6037 65.0634C53.5848 65.0634 53.5707 65.0681 53.5566 65.0681C53.4952 65.0681 53.4434 65.054 53.4009 65.0303C53.3584 65.0067 53.3349 64.9643 53.3207 64.8982C53.2593 64.9549 53.1839 64.9973 53.099 65.0256C53.0094 65.054 52.9244 65.0634 52.8443 65.0634C52.783 65.0634 52.7217 65.0539 52.665 65.0398C52.6085 65.0209 52.5565 64.9973 52.5141 64.9643C52.4716 64.9312 52.4339 64.8888 52.4103 64.8369C52.3821 64.7849 52.3726 64.7283 52.3726 64.6575C52.3726 64.5726 52.3868 64.5018 52.4198 64.4499C52.448 64.3979 52.4906 64.3555 52.5424 64.3225C52.5943 64.2942 52.6509 64.2705 52.7122 64.2564C52.7735 64.2422 52.8396 64.2328 52.9056 64.2234C52.9622 64.2139 53.0141 64.2045 53.0613 64.1998C53.1132 64.1951 53.1556 64.1856 53.1934 64.1762C53.2311 64.1667 53.2641 64.1478 53.283 64.1242C53.3066 64.1006 53.316 64.0676 53.316 64.0251C53.316 63.9874 53.3066 63.9544 53.2877 63.9308C53.2688 63.9071 53.2452 63.8882 53.2169 63.8741C53.1887 63.8599 53.1603 63.8505 53.1273 63.8458C53.0943 63.8411 53.0613 63.8411 53.0329 63.8411C52.9481 63.8411 52.8773 63.86 52.8207 63.893C52.7641 63.9308 52.7358 63.9827 52.7264 64.0582H52.4245C52.4292 63.9685 52.4527 63.893 52.4905 63.8364C52.5283 63.7797 52.5754 63.7325 52.632 63.6948C52.6886 63.657 52.7547 63.6334 52.8302 63.6193C52.9009 63.6051 52.9764 63.5957 53.0566 63.5957C53.1226 63.5957 53.1887 63.6051 53.2546 63.6193C53.3207 63.6334 53.3773 63.657 53.4339 63.6901C53.4858 63.7231 53.5283 63.7655 53.5613 63.8128C53.5943 63.8647 53.6084 63.9261 53.6084 63.9968V64.7142H53.6037ZM53.2972 64.3319C53.2499 64.3602 53.1934 64.3791 53.1273 64.3885C53.0613 64.3932 52.9905 64.4026 52.9244 64.4168C52.8914 64.4216 52.8632 64.431 52.8302 64.4405C52.8018 64.4499 52.7735 64.464 52.75 64.4782C52.7264 64.4971 52.7075 64.5159 52.6933 64.5443C52.6792 64.5726 52.6745 64.6056 52.6745 64.6433C52.6745 64.6764 52.6839 64.7047 52.7027 64.7283C52.7217 64.7519 52.7452 64.7708 52.7735 64.7849C52.8018 64.7991 52.8302 64.8086 52.8632 64.8133C52.8962 64.818 52.9244 64.8227 52.9528 64.8227C52.9858 64.8227 53.0235 64.818 53.0613 64.8086C53.099 64.7991 53.1367 64.7849 53.1698 64.7613C53.2028 64.7378 53.2358 64.7142 53.2546 64.6811C53.2782 64.6481 53.2877 64.6056 53.2877 64.5585V64.3319H53.2972Z" fill="#454545"/>
<path d="M53.9382 63.4022H54.2448V63.1143H53.9382V63.4022ZM53.9382 65.0256H54.2448V63.6429H53.9382V65.0256Z" fill="#454545"/>
<path d="M54.4382 63.6429H54.6693V63.2275H54.9759V63.6429H55.2495V63.8693H54.9759V64.6055C54.9759 64.6386 54.9759 64.6669 54.9807 64.6905C54.9854 64.7141 54.9901 64.733 54.9995 64.7471C55.0089 64.7613 55.0231 64.7755 55.042 64.7849C55.0609 64.7944 55.0892 64.7991 55.1221 64.7991C55.1458 64.7991 55.1647 64.7991 55.1882 64.7991C55.2118 64.7991 55.2306 64.7944 55.2543 64.7897V65.0256C55.2212 65.0303 55.1882 65.0351 55.1552 65.0351C55.1221 65.0398 55.0892 65.0398 55.0562 65.0398C54.9759 65.0398 54.9099 65.0303 54.8627 65.0161C54.8156 65.002 54.7778 64.9784 54.7495 64.9501C54.7213 64.9218 54.7024 64.884 54.693 64.8368C54.6835 64.7944 54.6788 64.7424 54.674 64.6858V63.8693H54.4429V63.6429H54.4382Z" fill="#454545"/>
<path d="M56.2498 63.1143H57.0941C57.2309 63.1143 57.3394 63.1332 57.4243 63.1709C57.5092 63.2086 57.5752 63.2606 57.6225 63.3172C57.6696 63.3738 57.7026 63.4399 57.7167 63.5107C57.7357 63.5815 57.7404 63.6429 57.7404 63.7042C57.7404 63.7609 57.7309 63.8269 57.7167 63.8977C57.6979 63.9684 57.6696 64.0298 57.6225 64.0864C57.5752 64.1478 57.5092 64.195 57.4243 64.2327C57.3394 64.2705 57.2309 64.2894 57.0941 64.2894H56.5847V65.0209H56.2498V63.1143ZM56.5847 64.0204H57.0753C57.113 64.0204 57.1507 64.0157 57.1885 64.0062C57.2262 63.9967 57.2639 63.9779 57.297 63.9543C57.33 63.9307 57.3582 63.8977 57.3771 63.8599C57.396 63.8222 57.4102 63.7703 57.4102 63.7089C57.4102 63.6476 57.4007 63.5956 57.3818 63.5532C57.3629 63.5107 57.3394 63.4776 57.3111 63.454C57.2828 63.4305 57.245 63.4163 57.2073 63.4069C57.1696 63.3975 57.1271 63.3927 57.08 63.3927H56.5847V64.0204Z" fill="#454545"/>
<path d="M58.2261 64.4121C58.2261 64.4641 58.2355 64.5159 58.2496 64.5679C58.2638 64.6198 58.2874 64.6622 58.3157 64.7C58.344 64.7378 58.3864 64.7661 58.4289 64.7896C58.476 64.8133 58.5327 64.8227 58.594 64.8227C58.6836 64.8227 58.7544 64.8038 58.811 64.7661C58.8629 64.7283 58.9053 64.6717 58.9336 64.5915H59.2214C59.2025 64.6669 59.1789 64.733 59.1364 64.7896C59.0987 64.8463 59.0515 64.8982 58.995 64.936C58.9383 64.9737 58.877 65.0067 58.811 65.0256C58.7402 65.0445 58.6695 65.0539 58.594 65.0539C58.4855 65.0539 58.3911 65.035 58.3063 65.002C58.2213 64.9643 58.1505 64.917 58.094 64.851C58.0373 64.7849 57.9949 64.7095 57.9619 64.6198C57.9336 64.5301 57.9194 64.431 57.9194 64.3272C57.9194 64.2281 57.9336 64.1384 57.9666 64.0488C57.9996 63.9591 58.0421 63.8835 58.0987 63.8175C58.1553 63.7514 58.2261 63.6995 58.3063 63.6571C58.3864 63.6193 58.4807 63.5957 58.5845 63.5957C58.693 63.5957 58.7921 63.6193 58.877 63.6665C58.9619 63.7137 59.0327 63.7703 59.094 63.8458C59.1506 63.9214 59.193 64.0062 59.2167 64.1054C59.2402 64.1998 59.2496 64.3036 59.2355 64.4074H58.2261V64.4121ZM58.9383 64.2092C58.9336 64.162 58.9242 64.1148 58.91 64.0723C58.8912 64.0298 58.8723 63.9874 58.8392 63.9544C58.8109 63.9213 58.7732 63.893 58.7307 63.8741C58.6883 63.8552 58.6412 63.8411 58.5892 63.8411C58.5374 63.8411 58.4855 63.8505 58.443 63.8694C58.4006 63.8882 58.3628 63.9119 58.3298 63.9496C58.3016 63.9827 58.2732 64.0204 58.2543 64.0676C58.2355 64.1101 58.2261 64.162 58.2261 64.2092H58.9383Z" fill="#454545"/>
<path d="M59.3347 63.6429H59.5658V63.2275H59.8725V63.6429H60.146V63.8693H59.8725V64.6055C59.8725 64.6386 59.8725 64.6669 59.8772 64.6905C59.8819 64.7141 59.8866 64.733 59.896 64.7471C59.9055 64.7613 59.9196 64.7755 59.9385 64.7849C59.9574 64.7944 59.9857 64.7991 60.0187 64.7991C60.0422 64.7991 60.0612 64.7991 60.0847 64.7991C60.1083 64.7991 60.1272 64.7944 60.1507 64.7897V65.0256C60.1177 65.0303 60.0847 65.0351 60.0517 65.0351C60.0187 65.0398 59.9857 65.0398 59.9527 65.0398C59.8725 65.0398 59.8064 65.0303 59.7593 65.0161C59.7121 65.002 59.6743 64.9784 59.646 64.9501C59.6178 64.9218 59.5988 64.884 59.5894 64.8368C59.58 64.7944 59.5753 64.7424 59.5705 64.6858V63.8693H59.3394V63.6429H59.3347Z" fill="#454545"/>
<path d="M60.363 63.643H60.6508V63.912H60.6555C60.665 63.8742 60.6838 63.8365 60.7074 63.8034C60.731 63.7657 60.764 63.7373 60.8017 63.7043C60.8395 63.676 60.8772 63.6524 60.9244 63.6336C60.9669 63.6146 61.014 63.6052 61.0612 63.6052C61.0989 63.6052 61.1225 63.6052 61.1366 63.6099C61.1508 63.6099 61.1649 63.6146 61.1791 63.6146V63.9073C61.1555 63.9026 61.1366 63.9026 61.1131 63.8979C61.0895 63.8931 61.0706 63.8931 61.047 63.8931C60.9952 63.8931 60.9479 63.9026 60.9008 63.9214C60.8537 63.9403 60.8159 63.9733 60.7829 64.0111C60.7499 64.0489 60.7215 64.1007 60.7027 64.1574C60.6838 64.2187 60.6744 64.2848 60.6744 64.3603V65.0163H60.3677V63.643H60.363Z" fill="#454545"/>
<path d="M61.8915 65.0587C61.783 65.0587 61.684 65.0398 61.5943 65.002C61.5094 64.9643 61.434 64.917 61.3773 64.851C61.3161 64.7849 61.2735 64.7095 61.2406 64.6198C61.2076 64.5301 61.1934 64.431 61.1934 64.3272C61.1934 64.2234 61.2076 64.1242 61.2406 64.0346C61.2735 63.9449 61.3161 63.8694 61.3773 63.8034C61.4387 63.7372 61.5094 63.6901 61.5943 63.6523C61.6793 63.6145 61.7783 63.5957 61.8915 63.5957C62 63.5957 62.099 63.6145 62.1886 63.6523C62.2736 63.6901 62.3491 63.7372 62.4056 63.8034C62.467 63.8694 62.5094 63.9449 62.5424 64.0346C62.5755 64.1242 62.5896 64.2234 62.5896 64.3272C62.5896 64.4358 62.5755 64.5301 62.5424 64.6198C62.5094 64.7095 62.467 64.7849 62.4056 64.851C62.3444 64.917 62.2736 64.9643 62.1886 65.002C62.099 65.0445 62 65.0587 61.8915 65.0587ZM61.8915 64.8227C61.9575 64.8227 62.0189 64.8086 62.066 64.7802C62.1132 64.7519 62.1557 64.7142 62.1886 64.6669C62.2217 64.6198 62.2453 64.5679 62.2594 64.5112C62.2736 64.4546 62.283 64.3932 62.283 64.3319C62.283 64.2705 62.2736 64.2139 62.2594 64.1573C62.2453 64.0959 62.2217 64.044 62.1886 64.0015C62.1557 63.9544 62.1132 63.9213 62.066 63.8882C62.0142 63.8599 61.9575 63.8458 61.8915 63.8458C61.8255 63.8458 61.7642 63.8599 61.717 63.8882C61.6651 63.9166 61.6273 63.9544 61.5943 64.0015C61.5613 64.0488 61.5378 64.1006 61.5235 64.1573C61.5094 64.2139 61.5 64.2752 61.5 64.3319C61.5 64.3932 61.5094 64.4499 61.5235 64.5112C61.5378 64.5679 61.5613 64.6198 61.5943 64.6669C61.6273 64.7142 61.6698 64.7519 61.717 64.7802C61.7642 64.8038 61.8207 64.8227 61.8915 64.8227Z" fill="#454545"/>
<path d="M63.1555 63.1143H62.8489V65.0209H63.1555V63.1143Z" fill="#454545"/>
<path d="M63.7214 64.4121C63.7214 64.4641 63.7308 64.5159 63.745 64.5679C63.7591 64.6198 63.7827 64.6622 63.811 64.7C63.8393 64.7378 63.8818 64.7661 63.9242 64.7896C63.9714 64.8133 64.0232 64.8227 64.0893 64.8227C64.179 64.8227 64.2497 64.8038 64.3063 64.7661C64.3582 64.7283 64.4007 64.6717 64.4289 64.5915H64.7166C64.6978 64.6669 64.6742 64.733 64.6318 64.7896C64.594 64.8463 64.5469 64.8982 64.4902 64.936C64.4337 64.9737 64.3723 65.0067 64.3063 65.0256C64.2355 65.0445 64.1648 65.0539 64.0893 65.0539C63.9808 65.0539 63.8865 65.035 63.8015 65.002C63.7167 64.9643 63.6459 64.917 63.5893 64.851C63.5327 64.7849 63.4903 64.7095 63.4572 64.6198C63.4289 64.5301 63.4148 64.431 63.4148 64.3272C63.4148 64.2281 63.4289 64.1384 63.4619 64.0488C63.495 63.9591 63.5374 63.8835 63.594 63.8175C63.6506 63.7514 63.7214 63.6995 63.8015 63.6571C63.8818 63.6193 63.9761 63.5957 64.0799 63.5957C64.1884 63.5957 64.2875 63.6193 64.3723 63.6665C64.4572 63.7137 64.528 63.7703 64.5893 63.8458C64.6459 63.9214 64.6884 64.0062 64.7119 64.1054C64.7356 64.1998 64.745 64.3036 64.7308 64.4074H63.7214V64.4121ZM64.4337 64.2092C64.4289 64.162 64.4195 64.1148 64.4054 64.0723C64.3865 64.0298 64.3676 63.9874 64.3346 63.9544C64.3063 63.9213 64.2685 63.893 64.2261 63.8741C64.1837 63.8552 64.1364 63.8411 64.0846 63.8411C64.0327 63.8411 63.9808 63.8505 63.9384 63.8694C63.8959 63.8882 63.8582 63.9119 63.8252 63.9496C63.7968 63.9827 63.7685 64.0204 63.7497 64.0676C63.7308 64.1101 63.7214 64.162 63.7214 64.2092H64.4337Z" fill="#454545"/>
<path d="M66.1837 65.0257H65.8865V64.8321H65.8818C65.8441 64.903 65.7875 64.9596 65.7167 64.9973C65.6412 65.0398 65.5658 65.0587 65.4903 65.0587C65.3063 65.0587 65.1789 65.0162 65.094 64.9218C65.0139 64.8321 64.9714 64.6953 64.9714 64.516V63.6382H65.278V64.4876C65.278 64.6103 65.3016 64.6953 65.3488 64.7425C65.3959 64.7944 65.462 64.818 65.5421 64.818C65.6082 64.818 65.6601 64.8086 65.7026 64.7897C65.745 64.7708 65.778 64.7425 65.8064 64.7094C65.8346 64.6764 65.8535 64.6387 65.8629 64.5914C65.877 64.5443 65.8818 64.4971 65.8818 64.4404V63.6382H66.1884V65.0257H66.1837Z" fill="#454545"/>
<path d="M66.5046 63.643H66.7924V63.8364H66.8018C66.8254 63.8034 66.8489 63.7704 66.8773 63.742C66.9056 63.7137 66.9339 63.6902 66.9669 63.6713C66.9999 63.6524 67.0376 63.6383 67.0801 63.624C67.1226 63.6146 67.1697 63.6052 67.2264 63.6052C67.3112 63.6052 67.3867 63.6241 67.4622 63.6619C67.5329 63.6996 67.5848 63.7562 67.6178 63.8364C67.6698 63.7657 67.731 63.709 67.7971 63.6666C67.8631 63.6241 67.948 63.6052 68.0518 63.6052C68.198 63.6052 68.3112 63.6383 68.3914 63.7137C68.4717 63.7846 68.5141 63.9073 68.5141 64.0724V65.0257H68.2074V64.2187C68.2074 64.1621 68.2074 64.1149 68.2027 64.0677C68.198 64.0205 68.1886 63.9827 68.1697 63.9497C68.1509 63.9167 68.1273 63.8931 68.0942 63.8742C68.0612 63.8553 68.0141 63.8459 67.9575 63.8459C67.8537 63.8459 67.7783 63.8789 67.731 63.9403C67.6839 64.0063 67.6603 64.096 67.6603 64.214V65.021H67.3537V64.1338C67.3537 64.0394 67.3349 63.9639 67.3018 63.9167C67.2688 63.8695 67.2028 63.8412 67.1132 63.8412C67.0754 63.8412 67.0376 63.8506 66.9999 63.8647C66.9621 63.8789 66.9292 63.9026 66.9056 63.9356C66.8773 63.9639 66.8537 64.0016 66.8395 64.0489C66.8207 64.0913 66.8112 64.1432 66.8112 64.1999V65.021H66.5093V63.643H66.5046Z" fill="#454545"/>
<path d="M70.9008 63.7231C70.8867 63.6665 70.8678 63.6193 70.8443 63.5721C70.8206 63.5249 70.7876 63.4872 70.7499 63.4541C70.7122 63.4211 70.665 63.3928 70.6131 63.3739C70.5612 63.355 70.4999 63.3456 70.4291 63.3456C70.3254 63.3456 70.2404 63.3645 70.165 63.407C70.0895 63.4494 70.0282 63.5013 69.9857 63.5721C69.9386 63.6429 69.9055 63.7184 69.882 63.8081C69.8584 63.8977 69.849 63.9827 69.849 64.0771C69.849 64.1668 69.8584 64.2564 69.882 64.3461C69.9055 64.4311 69.9386 64.5113 69.9857 64.5821C70.0329 64.6528 70.0942 64.7048 70.165 64.7472C70.2404 64.7897 70.3254 64.8086 70.4291 64.8086C70.5047 64.8086 70.5706 64.7944 70.6273 64.7708C70.6838 64.7472 70.7311 64.7095 70.7735 64.6622C70.8159 64.6151 70.849 64.5632 70.8678 64.5018C70.8914 64.4405 70.9055 64.3744 70.915 64.3084H71.2405C71.231 64.4216 71.2075 64.5254 71.165 64.6198C71.1225 64.7142 71.066 64.7944 70.9952 64.8652C70.9244 64.936 70.8396 64.9879 70.7452 65.0257C70.6509 65.0635 70.5424 65.0823 70.4291 65.0823C70.2877 65.0823 70.1603 65.0587 70.0471 65.0021C69.9339 64.9502 69.8395 64.8794 69.7593 64.785C69.6791 64.6954 69.6225 64.5868 69.5801 64.4688C69.5376 64.3461 69.5188 64.2187 69.5188 64.0818C69.5188 63.945 69.5376 63.8176 69.5801 63.6948C69.6225 63.5721 69.6839 63.4683 69.7593 63.3786C69.8395 63.289 69.9339 63.2135 70.0471 63.1616C70.1603 63.1096 70.2877 63.0813 70.4291 63.0813C70.5376 63.0813 70.6367 63.0955 70.7311 63.1238C70.8254 63.1521 70.9103 63.1946 70.9811 63.2512C71.0518 63.3079 71.1131 63.3739 71.1555 63.4541C71.198 63.5344 71.2263 63.624 71.2405 63.7279H70.9008V63.7231Z" fill="#454545"/>
<path d="M72.1317 65.0587C72.0232 65.0587 71.9242 65.0398 71.8345 65.002C71.7497 64.9643 71.6742 64.917 71.6176 64.851C71.5563 64.7849 71.5138 64.7095 71.4808 64.6198C71.4478 64.5301 71.4336 64.431 71.4336 64.3272C71.4336 64.2234 71.4478 64.1242 71.4808 64.0346C71.5138 63.9449 71.5563 63.8694 71.6176 63.8034C71.6789 63.7372 71.7497 63.6901 71.8345 63.6523C71.9195 63.6145 72.0185 63.5957 72.1317 63.5957C72.2402 63.5957 72.3393 63.6145 72.4289 63.6523C72.5138 63.6901 72.5893 63.7372 72.6459 63.8034C72.7072 63.8694 72.7496 63.9449 72.7827 64.0346C72.8157 64.1242 72.8298 64.2234 72.8298 64.3272C72.8298 64.4358 72.8157 64.5301 72.7827 64.6198C72.7496 64.7095 72.7072 64.7849 72.6459 64.851C72.5846 64.917 72.5138 64.9643 72.4289 65.002C72.3393 65.0445 72.2402 65.0587 72.1317 65.0587ZM72.1317 64.8227C72.1978 64.8227 72.2591 64.8086 72.3063 64.7802C72.3582 64.7519 72.3959 64.7142 72.4289 64.6669C72.4619 64.6198 72.4855 64.5679 72.4996 64.5112C72.5138 64.4546 72.5232 64.3932 72.5232 64.3319C72.5232 64.2705 72.5138 64.2139 72.4996 64.1573C72.4855 64.0959 72.4619 64.044 72.4289 64.0015C72.3959 63.9544 72.3582 63.9213 72.3063 63.8882C72.2544 63.8599 72.1978 63.8458 72.1317 63.8458C72.0657 63.8458 72.0044 63.8599 71.9572 63.8882C71.9053 63.9166 71.8676 63.9544 71.8345 64.0015C71.8015 64.0488 71.778 64.1006 71.7638 64.1573C71.7497 64.2139 71.7403 64.2752 71.7403 64.3319C71.7403 64.3932 71.7497 64.4499 71.7638 64.5112C71.778 64.5679 71.8015 64.6198 71.8345 64.6669C71.8676 64.7142 71.9053 64.7519 71.9572 64.7802C72.0044 64.8038 72.0657 64.8227 72.1317 64.8227Z" fill="#454545"/>
<path d="M73.085 63.643H73.3727V63.912H73.3774C73.3868 63.8742 73.4057 63.8365 73.4293 63.8034C73.4529 63.7657 73.4859 63.7373 73.5236 63.7043C73.5614 63.676 73.5991 63.6524 73.6463 63.6336C73.6887 63.6146 73.7358 63.6052 73.7831 63.6052C73.8208 63.6052 73.8443 63.6052 73.8585 63.6099C73.8727 63.6099 73.8869 63.6146 73.901 63.6146V63.9073C73.8774 63.9026 73.8585 63.9026 73.8349 63.8979C73.8114 63.8931 73.7925 63.8931 73.7689 63.8931C73.717 63.8931 73.6699 63.9026 73.6226 63.9214C73.5755 63.9403 73.5378 63.9733 73.5047 64.0111C73.4717 64.0489 73.4434 64.1007 73.4246 64.1574C73.4057 64.2187 73.3962 64.2848 73.3962 64.3603V65.0163H73.085V63.643Z" fill="#454545"/>
<path d="M74.033 63.643H74.3207V63.8317H74.3254C74.3679 63.7515 74.4292 63.6949 74.5047 63.6572C74.5801 63.6241 74.6651 63.6052 74.7547 63.6052C74.8632 63.6052 74.9576 63.6241 75.0377 63.6619C75.1179 63.6996 75.184 63.7515 75.2405 63.8176C75.2925 63.8836 75.3349 63.9639 75.3585 64.0536C75.3867 64.1432 75.3962 64.2376 75.3962 64.3414C75.3962 64.4358 75.382 64.5255 75.3585 64.6104C75.3349 64.6954 75.2972 64.7756 75.25 64.8417C75.2028 64.9078 75.1368 64.9644 75.0661 65.0021C74.9906 65.0399 74.9009 65.0635 74.8018 65.0635C74.7594 65.0635 74.7122 65.0588 74.6698 65.0494C74.6274 65.0399 74.5849 65.0304 74.5424 65.0115C74.5 64.9927 74.4622 64.9738 74.4292 64.9455C74.3962 64.9172 74.3632 64.8841 74.3443 64.8464H74.3396V65.5354H74.033V63.643ZM75.0943 64.332C75.0943 64.2707 75.0849 64.2093 75.0708 64.148C75.0566 64.0913 75.033 64.0394 75 63.9922C74.967 63.945 74.9292 63.912 74.8774 63.8837C74.8302 63.8553 74.7736 63.8412 74.7122 63.8412C74.5849 63.8412 74.4858 63.8836 74.4245 63.9733C74.3584 64.063 74.3254 64.181 74.3254 64.3273C74.3254 64.3981 74.3349 64.4641 74.349 64.5207C74.3679 64.5821 74.3915 64.634 74.4245 64.6765C74.4575 64.719 74.5 64.752 74.5472 64.7756C74.5943 64.7992 74.6509 64.8134 74.7122 64.8134C74.783 64.8134 74.8396 64.7992 74.8868 64.7708C74.9339 64.7426 74.9764 64.7048 75.0047 64.6624C75.033 64.6151 75.0566 64.5633 75.0708 64.5066C75.0896 64.4547 75.0943 64.3933 75.0943 64.332Z" fill="#454545"/>
<path d="M76.2877 65.0587C76.1793 65.0587 76.0802 65.0398 75.9906 65.002C75.9057 64.9643 75.8302 64.917 75.7736 64.851C75.7123 64.7849 75.6699 64.7095 75.6368 64.6198C75.6038 64.5301 75.5896 64.431 75.5896 64.3272C75.5896 64.2234 75.6038 64.1242 75.6368 64.0346C75.6699 63.9449 75.7123 63.8694 75.7736 63.8034C75.8349 63.7372 75.9057 63.6901 75.9906 63.6523C76.0755 63.6145 76.1745 63.5957 76.2877 63.5957C76.3962 63.5957 76.4953 63.6145 76.585 63.6523C76.6698 63.6901 76.7453 63.7372 76.8019 63.8034C76.8632 63.8694 76.9057 63.9449 76.9387 64.0346C76.9717 64.1242 76.9858 64.2234 76.9858 64.3272C76.9858 64.4358 76.9717 64.5301 76.9387 64.6198C76.9057 64.7095 76.8632 64.7849 76.8019 64.851C76.7406 64.917 76.6698 64.9643 76.585 65.002C76.4953 65.0445 76.401 65.0587 76.2877 65.0587ZM76.2877 64.8227C76.3538 64.8227 76.4151 64.8086 76.4623 64.7802C76.5095 64.7519 76.5519 64.7142 76.585 64.6669C76.6179 64.6198 76.6415 64.5679 76.6556 64.5112C76.6698 64.4546 76.6793 64.3932 76.6793 64.3319C76.6793 64.2705 76.6698 64.2139 76.6556 64.1573C76.6415 64.0959 76.6179 64.044 76.585 64.0015C76.5519 63.9544 76.5095 63.9213 76.4623 63.8882C76.4104 63.8599 76.3538 63.8458 76.2877 63.8458C76.2217 63.8458 76.1604 63.8599 76.1132 63.8882C76.0613 63.9166 76.0236 63.9544 75.9906 64.0015C75.9575 64.0488 75.934 64.1006 75.9198 64.1573C75.9057 64.2139 75.8963 64.2752 75.8963 64.3319C75.8963 64.3932 75.9057 64.4499 75.9198 64.5112C75.934 64.5679 75.9575 64.6198 75.9906 64.6669C76.0236 64.7142 76.0613 64.7519 76.1132 64.7802C76.1604 64.8038 76.2217 64.8227 76.2877 64.8227Z" fill="#454545"/>
<path d="M77.2405 63.643H77.5282V63.912H77.5329C77.5423 63.8742 77.5613 63.8365 77.5848 63.8034C77.6084 63.7657 77.6414 63.7373 77.6792 63.7043C77.7169 63.676 77.7546 63.6524 77.8018 63.6336C77.8442 63.6146 77.8914 63.6052 77.9386 63.6052C77.9763 63.6052 77.9999 63.6052 78.0141 63.6099C78.0282 63.6099 78.0424 63.6146 78.0565 63.6146V63.9073C78.033 63.9026 78.0141 63.9026 77.9904 63.8979C77.9669 63.8931 77.948 63.8931 77.9245 63.8931C77.8725 63.8931 77.8254 63.9026 77.7782 63.9214C77.731 63.9403 77.6933 63.9733 77.6603 64.0111C77.6273 64.0489 77.599 64.1007 77.5801 64.1574C77.5613 64.2187 77.5518 64.2848 77.5518 64.3603V65.0163H77.2452V63.643H77.2405Z" fill="#454545"/>
<path d="M79.3349 64.7142C79.3349 64.7519 79.3396 64.7802 79.3491 64.7944C79.3585 64.8086 79.3774 64.818 79.4056 64.818H79.4386C79.4528 64.818 79.467 64.818 79.4812 64.8133V65.0256C79.4717 65.0303 79.4575 65.035 79.4386 65.0398C79.4198 65.0445 79.4056 65.0492 79.3868 65.0539C79.3679 65.0587 79.3538 65.0587 79.3349 65.0634C79.316 65.0634 79.3019 65.0681 79.2877 65.0681C79.2264 65.0681 79.1745 65.054 79.1321 65.0303C79.0896 65.0067 79.066 64.9643 79.0519 64.8982C78.9905 64.9549 78.9151 64.9973 78.8302 65.0256C78.7405 65.054 78.6556 65.0634 78.5755 65.0634C78.5141 65.0634 78.4528 65.0539 78.3962 65.0398C78.3396 65.0209 78.2877 64.9973 78.2453 64.9643C78.2028 64.9312 78.1651 64.8888 78.1415 64.8369C78.1179 64.7849 78.1038 64.7283 78.1038 64.6575C78.1038 64.5726 78.1179 64.5018 78.1509 64.4499C78.1792 64.3979 78.2217 64.3555 78.2736 64.3225C78.3255 64.2942 78.3821 64.2705 78.4434 64.2564C78.5047 64.2422 78.5708 64.2328 78.6367 64.2234C78.6934 64.2139 78.7452 64.2045 78.7925 64.1998C78.8443 64.1951 78.8867 64.1856 78.9245 64.1762C78.9622 64.1667 78.9952 64.1478 79.0142 64.1242C79.0377 64.1006 79.0472 64.0676 79.0472 64.0251C79.0472 63.9874 79.0377 63.9544 79.0189 63.9308C79 63.9071 78.9764 63.8882 78.9481 63.8741C78.9198 63.8599 78.8915 63.8505 78.8585 63.8458C78.8255 63.8411 78.7925 63.8411 78.7641 63.8411C78.6793 63.8411 78.6085 63.86 78.5519 63.893C78.4953 63.9308 78.467 63.9827 78.4576 64.0582H78.1556C78.1603 63.9685 78.1839 63.893 78.2217 63.8364C78.2594 63.7797 78.3065 63.7325 78.3632 63.6948C78.4198 63.657 78.4858 63.6334 78.5613 63.6193C78.6367 63.6051 78.7075 63.5957 78.7878 63.5957C78.8537 63.5957 78.9245 63.6051 78.9858 63.6193C79.0519 63.6334 79.1132 63.657 79.1651 63.6901C79.2169 63.7231 79.2594 63.7655 79.2924 63.8128C79.3254 63.8647 79.3396 63.9261 79.3396 63.9968V64.7142H79.3349ZM79.033 64.3319C78.9858 64.3602 78.9292 64.3791 78.8632 64.3885C78.7972 64.3932 78.7264 64.4026 78.6604 64.4168C78.6273 64.4216 78.599 64.431 78.5661 64.4405C78.5377 64.4499 78.5094 64.464 78.4858 64.4782C78.4623 64.4971 78.4434 64.5159 78.4292 64.5443C78.415 64.5726 78.4103 64.6056 78.4103 64.6433C78.4103 64.6764 78.4198 64.7047 78.4387 64.7283C78.4576 64.7519 78.4811 64.7708 78.5094 64.7849C78.5377 64.7991 78.5661 64.8086 78.599 64.8133C78.632 64.818 78.6604 64.8227 78.6887 64.8227C78.7217 64.8227 78.7594 64.818 78.7972 64.8086C78.8349 64.7991 78.8726 64.7849 78.9104 64.7613C78.9434 64.7378 78.9764 64.7142 78.9952 64.6811C79.0189 64.6481 79.0283 64.6056 79.0283 64.5585V64.3319H79.033Z" fill="#454545"/>
<path d="M79.5234 63.6429H79.7546V63.2275H80.0612V63.6429H80.3348V63.8693H80.0612V64.6055C80.0612 64.6386 80.0612 64.6669 80.0659 64.6905C80.0706 64.7141 80.0754 64.733 80.0848 64.7471C80.0942 64.7613 80.1083 64.7755 80.1273 64.7849C80.1461 64.7944 80.1744 64.7991 80.2074 64.7991C80.231 64.7991 80.2499 64.7991 80.2735 64.7991C80.2971 64.7991 80.3159 64.7944 80.3395 64.7897V65.0256C80.3065 65.0303 80.2735 65.0351 80.2405 65.0351C80.2074 65.0398 80.1744 65.0398 80.1414 65.0398C80.0612 65.0398 79.9951 65.0303 79.948 65.0161C79.9009 65.002 79.8631 64.9784 79.8348 64.9501C79.8065 64.9218 79.7877 64.884 79.7782 64.8368C79.7687 64.7944 79.764 64.7424 79.7593 64.6858V63.8693H79.5282V63.6429H79.5234Z" fill="#454545"/>
<path d="M80.5613 63.4022H80.8679V63.1143H80.5613V63.4022ZM80.5613 65.0256H80.8679V63.6429H80.5613V65.0256Z" fill="#454545"/>
<path d="M81.8302 65.0587C81.7217 65.0587 81.6226 65.0398 81.533 65.002C81.4481 64.9643 81.3727 64.917 81.316 64.851C81.2547 64.7849 81.2123 64.7095 81.1792 64.6198C81.1462 64.5301 81.1321 64.431 81.1321 64.3272C81.1321 64.2234 81.1462 64.1242 81.1792 64.0346C81.2123 63.9449 81.2547 63.8694 81.316 63.8034C81.3774 63.7372 81.4481 63.6901 81.533 63.6523C81.6179 63.6145 81.717 63.5957 81.8302 63.5957C81.9387 63.5957 82.0378 63.6145 82.1274 63.6523C82.2123 63.6901 82.2878 63.7372 82.3443 63.8034C82.4057 63.8694 82.4481 63.9449 82.4812 64.0346C82.5142 64.1242 82.5283 64.2234 82.5283 64.3272C82.5283 64.4358 82.5142 64.5301 82.4812 64.6198C82.4481 64.7095 82.4057 64.7849 82.3443 64.851C82.2831 64.917 82.2123 64.9643 82.1274 65.002C82.0378 65.0445 81.9434 65.0587 81.8302 65.0587ZM81.8302 64.8227C81.8962 64.8227 81.9576 64.8086 82.0047 64.7802C82.0566 64.7519 82.0943 64.7142 82.1274 64.6669C82.1604 64.6198 82.184 64.5679 82.1981 64.5112C82.2123 64.4546 82.2217 64.3932 82.2217 64.3319C82.2217 64.2705 82.2123 64.2139 82.1981 64.1573C82.184 64.0959 82.1604 64.044 82.1274 64.0015C82.0943 63.9544 82.0566 63.9213 82.0047 63.8882C81.9529 63.8599 81.8962 63.8458 81.8302 63.8458C81.7641 63.8458 81.7029 63.8599 81.6556 63.8882C81.6038 63.9166 81.5661 63.9544 81.533 64.0015C81.5 64.0488 81.4764 64.1006 81.4623 64.1573C81.4482 64.2139 81.4387 64.2752 81.4387 64.3319C81.4387 64.3932 81.4482 64.4499 81.4623 64.5112C81.4764 64.5679 81.5 64.6198 81.533 64.6669C81.5661 64.7142 81.6038 64.7519 81.6556 64.7802C81.7029 64.8038 81.7641 64.8227 81.8302 64.8227Z" fill="#454545"/>
<path d="M82.783 63.643H83.0706V63.8459L83.0754 63.8506C83.1226 63.7751 83.1839 63.7137 83.2594 63.6713C83.3348 63.6288 83.415 63.6052 83.5094 63.6052C83.6603 63.6052 83.7782 63.643 83.8678 63.7232C83.9528 63.8034 83.9999 63.9214 83.9999 64.0771V65.0257H83.6934V64.1574C83.6886 64.0489 83.665 63.9686 83.6226 63.9214C83.5801 63.8742 83.5141 63.8459 83.4244 63.8459C83.3726 63.8459 83.3254 63.8553 83.2876 63.8742C83.2452 63.8931 83.2121 63.9167 83.1839 63.9497C83.1556 63.9827 83.132 64.0205 83.1179 64.0677C83.1037 64.1102 83.0942 64.1574 83.0942 64.2093V65.0257H82.7877V63.643H82.783Z" fill="#454545"/>
<path d="M60.7687 15.0904C53.1885 12.5609 44.5846 18.2948 41.5469 27.8987C38.5091 37.5072 42.1883 47.347 49.7686 49.8765C57.3488 52.4061 65.9527 46.6721 68.9904 37.0683C72.0282 27.4597 68.349 17.62 60.7687 15.0904ZM50.0657 48.9374C43.7497 46.8279 40.9572 37.7526 43.8299 28.6679C46.7026 19.5833 54.1507 13.9248 60.4668 16.0343C66.7829 18.1438 69.5753 27.219 66.7027 36.3038C63.83 45.3885 56.3819 51.0422 50.0657 48.9374ZM65.5376 34.3925L66.3442 34.3075C65.2546 36.9692 62.1036 40.5276 56.4337 39.4657C55.1743 40.7069 54.9856 41.0703 53.5941 42.2077C52.7451 42.9014 51.3771 44.1567 51.0186 45.1997C51.7639 45.6292 51.3158 46.1672 51.3441 46.1955C51.0658 45.917 50.7592 45.8935 50.5328 46.1105C49.9762 46.6438 50.7969 47.616 50.7969 47.616C49.7922 47.3753 49.5893 46.7901 49.5846 46.7287C49.278 47.111 49.3299 47.6821 49.3299 47.6821C48.7356 47.2101 48.8394 46.573 48.8441 46.573C48.4998 46.691 48.3677 46.9223 48.3677 46.9223C48.2403 45.7282 48.9007 45.9736 50.0847 44.7231C51.2969 43.4394 51.311 41.7074 51.4242 40.7541C51.4856 40.2066 51.6224 39.4468 51.8912 38.7106C50.4054 38.4322 49.3252 37.5733 48.8157 37.4883C47.4337 37.2665 46.6506 38.6823 46.3347 39.6545C45.6648 39.3383 45.6365 38.4983 45.6601 38.3473C45.4243 38.1396 45.0186 37.4081 45.4855 36.3463C46.0045 35.157 48.8252 33.6232 49.2261 33.2787C50.547 32.1461 50.5799 30.0696 50.5564 28.7104C50.528 27.0822 49.9573 25.1662 49.9573 25.1662C51.5941 23.2077 52.6036 19.1207 52.778 17.7427C54.0658 18.4459 53.7781 19.9608 53.7781 19.9608L54.2875 19.3379C54.6696 20.2204 54.3535 21.6928 54.3535 21.6928C54.3535 21.6928 54.6365 21.3058 54.7687 21.1689C55.1083 22.0845 54.797 23.5144 54.797 23.5144C54.797 23.5144 54.9337 23.3775 55.0234 23.3587C55.1319 23.9486 54.9007 25.0766 54.6885 25.7514C54.6885 25.7514 54.8347 25.6475 54.9384 25.6806C54.8629 26.7519 54.2073 28.8897 54.2121 28.885C56.179 27.6013 57.4856 24.529 57.731 24.0194C61.363 22.9292 63.5847 18.6535 63.5847 18.6535C63.665 19.2765 63.6177 20.3525 63.6177 20.3525C63.6177 20.3525 63.9668 19.8381 64.1272 19.7296C64.4102 20.7536 64.014 22.0043 64.014 22.0043L64.4763 21.6503C64.5611 22.2307 64.3253 23.0755 64.3253 23.0755C64.3253 23.0755 64.6036 22.9387 64.7875 22.9245C64.7027 23.3492 64.5754 23.7551 64.4196 24.1421C63.5612 26.2516 61.1979 28.5688 58.2734 29.9091C59.5375 29.6779 60.679 29.0596 60.679 29.0596C60.5234 29.6732 60.0093 30.0932 60.0093 30.0932L60.3678 30.2866C60.014 30.702 59.2875 30.9993 59.2875 30.9993C59.2875 30.9993 59.5847 31.0653 59.6885 31.1597C58.7451 31.7779 58.2309 31.9998 58.2309 31.9998L58.5659 32.3065C57.8583 32.7313 56.7969 33.123 56.7969 33.123C56.7969 33.123 57.0375 33.2693 57.1177 33.307C56.4479 33.9394 55.429 33.897 55.429 33.897C55.429 33.897 55.9102 36.1056 58.3253 36.2943C60.8677 36.4925 61.8442 34.4962 62.1036 33.3023C62.2215 32.7549 62.2215 32.3537 62.2215 32.3537L62.8394 33.2457L63.4951 33.0946L63.5895 33.4391L64.1178 33.3447L64.2593 33.8591L64.6602 33.6138L64.9055 34.1895L65.2546 34.0149L65.5376 34.3925ZM43.6931 20.008C43.7026 20.1684 43.712 20.3478 43.7356 20.5035C43.528 20.5979 43.3251 20.6875 43.1034 20.7253C43.0469 20.513 43.0044 20.3053 42.9619 20.0835C43.0704 20.0551 43.4856 19.9277 43.5374 19.8617C43.5941 19.7909 43.495 19.4747 43.5139 19.352L44.1695 19.116C44.2402 19.3189 44.311 19.5738 44.3063 19.7909L43.6931 20.008ZM50.6129 13.349L49.4997 11.1404C49.4997 10.8006 49.6035 10.3381 49.6978 10.0124C50.028 10.6543 50.3677 11.2961 50.6035 11.9804C50.7592 12.4476 50.7828 12.8818 50.6129 13.349ZM39.1742 20.8716C38.9996 21.0321 38.7969 21.1359 38.5799 21.2397C38.4949 21.0274 38.443 20.8055 38.377 20.5884C38.4808 20.546 38.8911 20.3383 38.9336 20.2675C38.9572 20.2298 38.877 19.8286 38.8676 19.7579L39.4808 19.3897C39.5327 19.4841 39.712 19.9891 39.6789 20.0457C39.6459 20.1024 39.1789 20.3761 39.094 20.4138C39.094 20.5601 39.1412 20.73 39.1742 20.8716ZM65.8489 11.4471C65.6791 11.282 65.5611 11.079 65.4432 10.8666C65.6461 10.7675 65.8584 10.7015 66.0659 10.6212C66.1131 10.7251 66.3489 11.1309 66.4197 11.1687C66.4574 11.1923 66.8489 11.0884 66.9149 11.0743L67.3207 11.6736C67.231 11.7303 66.7499 11.9474 66.6932 11.9143C66.6367 11.8813 66.3348 11.4282 66.2923 11.3433C66.1508 11.348 65.9857 11.4094 65.8489 11.4471ZM71.2782 14.8875C70.5471 14.4958 69.8348 14.0805 69.113 13.6794C68.8631 13.8445 68.4905 14.0239 68.2829 14.2315C68.2169 14.2976 68.1979 15.0527 68.2735 15.1282C68.3159 15.1707 68.3725 15.1754 68.4291 15.1565L68.5612 16.157L68.5517 16.1476C68.0989 15.6473 67.6225 15.1801 67.1178 14.7412C67.1084 14.727 67.0942 14.7176 67.0848 14.7082C66.9432 14.5807 66.8394 14.4014 66.8584 14.2929C66.9716 13.6982 67.3725 12.8912 67.5565 12.2447L67.5376 12.2069L66.7593 12.6506C66.731 12.7308 66.7168 12.8063 66.7121 12.8865C65.4291 12.8912 65.4338 12.6741 64.4857 13.6652L65.5329 14.5807C65.6744 14.6987 66.0659 14.3165 66.2498 14.3023C66.2027 14.5807 66.014 14.9394 66.3536 15.2179C67.0517 15.8031 67.698 16.4543 68.2923 17.1575C68.3867 17.1056 68.8866 16.846 69.0565 16.7375C69.0848 16.7186 69.1036 16.7092 69.113 16.6997C69.3678 16.4449 69.113 14.9205 69.0848 14.5288C69.5753 14.7931 70.0518 15.0763 70.5471 15.3358C70.7923 15.1895 71.0376 15.0432 71.2782 14.8875ZM66.3348 13.9861L65.6885 13.4623C65.8111 13.3632 66.0046 13.4198 66.1036 13.4151C66.2734 13.4198 66.415 13.3207 66.58 13.2688L66.3348 13.9861ZM62.33 9.52164L63.0753 9.14881C63.2357 9.35175 63.3819 9.56411 63.5753 9.73401C63.4715 9.84728 63.0658 10.0313 62.9055 10.1163C62.7215 9.91806 62.5423 9.6821 62.33 9.52164ZM59.3677 9.03555L60.0611 8.57306C60.2451 8.75711 60.4149 8.94588 60.6272 9.09218C60.5375 9.2196 60.1602 9.45085 60.0093 9.55468C59.8064 9.38006 59.5989 9.16769 59.3677 9.03555ZM63.3678 12.2494C63.4055 12.1739 63.4385 12.0937 63.4668 12.0134C63.6413 11.5132 63.5234 11.0696 63.3772 10.5788L62.7309 11.1262C62.8159 11.4188 62.8678 11.735 62.8772 12.0418C62.5376 11.9049 62.1885 11.7775 61.8348 11.6642C61.3253 11.5038 61.1979 11.4613 60.7922 11.3575C60.9621 11.1498 61.0847 11.0365 61.1271 10.7534C61.1697 10.4749 61.1366 9.99829 60.7875 9.94166C60.2875 9.85671 59.5422 10.4089 59.1932 10.7298C59.08 10.8383 59.08 10.9516 59.0281 11.0649C58.297 10.9705 58.0422 10.9752 57.3111 10.9563C57.3347 10.8808 57.3961 10.6968 57.3913 10.659C57.363 10.1493 56.5847 9.67737 56.2073 9.71985C55.8583 9.76233 54.495 10.6684 54.2498 10.9563L54.2451 10.9186C54.278 10.6779 54.3441 10.4749 54.3111 10.2343C54.2922 10.0974 54.2592 9.96526 54.2262 9.83312C54.5139 9.76233 54.5423 9.32815 54.6318 9.09218C54.2922 8.99308 53.8441 8.78543 53.7214 8.42676C53.5894 8.62969 53.3158 8.98364 53.3488 9.22432C53.3677 9.37534 53.5092 9.41781 53.5611 9.55939C53.6931 9.9747 53.9007 10.692 53.9573 11.1262C53.9809 11.2867 53.7969 11.2914 53.6696 11.315C53.3488 11.381 52.679 11.6076 52.6177 11.1592C52.5989 11.0224 52.6083 10.8714 52.6318 10.7439C52.6036 10.626 52.6177 10.6448 52.5705 10.6401C52.3158 10.7675 52.3346 11.4754 52.3866 11.7161C52.462 12.0654 52.83 12.4004 53.1979 12.3155L53.2309 12.306C55.9856 11.5698 58.6413 11.5793 61.5847 12.509C62.047 12.6553 62.4856 12.844 62.9243 13.0328L62.9338 13.0375C63.08 12.778 63.2451 12.5184 63.3678 12.2494C63.3725 12.2541 63.3678 12.2541 63.3678 12.2494C63.3678 12.2494 63.3725 12.2494 63.3678 12.2494ZM60.1555 10.692C60.3394 10.7204 60.4621 10.9988 60.4385 11.1687C60.4196 11.3055 60.1035 11.2678 60.0234 11.2536C59.8961 11.2348 59.5612 11.046 59.5847 10.895C59.6083 10.7723 60.047 10.6732 60.1555 10.692ZM55.8441 10.4844C56.0705 10.4513 56.5564 10.6779 56.7121 10.9894C56.0423 10.9988 55.3724 11.046 54.7073 11.1356C55.0092 10.8478 55.5469 10.5269 55.8441 10.4844ZM74.1792 21.4096L74.1461 22.16C74.0471 22.16 73.5235 22.0373 73.4858 21.9617C73.4622 21.9146 73.5093 21.3341 73.5093 21.2492C73.3679 21.1925 73.2216 21.1312 73.0754 21.0651C73.0282 20.9518 73.0754 20.4705 73.0989 20.3336C73.1933 20.3383 73.7028 20.4847 73.7499 20.546C73.7263 20.6687 73.665 21.1028 73.7122 21.1925C73.7358 21.2397 74.1084 21.3766 74.1792 21.4096ZM74.5706 20.697C74.5942 20.7442 74.4386 21.2208 74.4197 21.3011C74.3301 21.2869 73.9292 21.117 73.8914 21.0462C73.8725 21.0038 73.9763 20.513 74.0187 20.4894C74.0613 20.4657 74.5565 20.6592 74.5706 20.697ZM72.7027 23.1652C72.6272 23.1935 72.5613 23.2124 72.4905 23.2265C72.481 23.2265 72.4716 23.2312 72.4575 23.2312C72.4481 23.2312 72.4386 23.236 72.4291 23.236C72.1697 23.2785 71.9056 23.2595 71.8489 23.2595C71.8065 23.2595 71.6933 23.2595 71.6036 23.2595C71.4763 22.8773 71.3395 22.4997 71.1886 22.1269C71.231 22.0797 71.2829 22.0184 71.3207 21.9712C71.2782 21.9382 71.1839 21.924 71.1414 21.9099C71.1037 21.8957 71.0895 21.8721 71.0659 21.8107C70.948 21.5229 70.8206 21.2397 70.6886 20.9612C70.7546 20.9141 70.8159 20.8432 70.8537 20.7961C70.797 20.7584 70.7216 20.7442 70.698 20.7395C70.6744 20.7348 70.5942 20.7111 70.5659 20.6781C70.5376 20.6451 70.4386 20.4657 70.3867 20.362V20.3572C70.2877 20.1684 70.1886 19.9797 70.0848 19.7956L70.0565 19.7484C70.014 19.6823 69.9763 19.5172 69.9716 19.4511L69.9149 19.4464C69.3961 19.4653 68.514 19.6917 68.1555 19.1349C67.9432 18.814 67.8253 17.7899 67.9291 17.4124L68.0093 17.3557L68.0423 17.3793C68.0612 17.4029 68.0093 17.8795 68.1932 18.1674C68.4102 18.5025 69.665 19.0924 69.9669 18.8848C70.1414 18.7668 70.264 18.1532 70.3112 18.1202C70.3678 18.0825 71.0376 18.0684 71.1461 18.0825C70.9527 18.6676 70.5753 18.9319 70.9669 19.6304C71.1131 19.8994 71.2499 20.1731 71.3867 20.4515C71.5659 20.4563 71.5942 20.4515 71.7641 20.3667C71.9009 20.3005 72.4763 20.4799 72.5801 20.579C72.5282 20.6026 72.4763 20.6498 72.4197 20.6734C72.3159 20.7253 71.731 20.8197 71.5707 20.8433C71.698 21.1218 71.8159 21.4002 71.9338 21.688C72.0329 21.6786 72.1414 21.6173 72.2499 21.6315C72.4669 21.6597 72.9245 21.7589 73.0707 21.9335L73.0235 21.9523C72.8301 22.0326 72.3584 21.9712 72.1131 22.0703L72.0848 22.0797C72.165 22.2827 72.2405 22.4903 72.3112 22.698L72.382 22.7027C72.4575 22.6697 72.5329 22.6083 72.6178 22.5753C72.8065 22.4997 73.382 22.731 73.5423 22.8301L72.7027 23.1652ZM49.2639 13.8209C49.278 13.7077 49.0658 12.9998 48.9903 12.896L48.4243 12.037L48.5705 11.0743C48.3818 11.0932 47.6459 11.0932 47.5233 10.9799C47.462 10.928 47.4148 10.8572 47.3677 10.7864L47.311 10.777C47.2356 11.0979 47.2545 11.4896 47.2686 11.82C47.3063 11.8766 47.5327 11.8671 47.5847 11.9143C47.7733 12.0701 48.4667 12.9903 48.5941 13.2263C48.6035 13.2405 48.6083 13.2688 48.6083 13.2924C48.3063 13.467 48.0091 13.651 47.712 13.8445L47.6789 13.8634C47.2119 14.2032 45.9619 13.6652 45.4243 13.585L45.429 13.5519L46.6129 12.306C46.528 12.0323 46.4384 11.768 46.3299 11.5085C46.2497 11.5462 44.9336 12.9951 44.7592 13.1838C44.8488 13.5661 44.9856 13.9342 45.1459 14.2882L46.6931 14.543C46.2639 14.8639 45.8393 15.199 45.4243 15.5577C45.1271 15.3122 44.3676 14.7554 44.0185 15.0668C43.6553 15.3972 44.0846 16.5912 44.3393 16.8837C44.6789 17.2707 45.1931 16.813 45.5044 16.5959C45.495 17.082 45.2497 17.8135 44.9006 18.1297C44.745 18.2712 44.429 18.3751 44.2449 18.4506C44.2261 18.4601 44.1459 18.4978 44.1695 18.5308C44.1931 18.5686 44.3252 18.5733 44.3252 18.5733C44.7497 18.6158 45.4148 18.3656 45.7072 18.1014C46.1224 17.7238 46.0233 16.8177 45.8724 16.308C46.3158 15.921 46.7686 15.5529 47.2356 15.2131L47.1978 14.6138L47.9337 14.7223C48.344 14.4439 48.7639 14.189 49.1884 13.9436H49.1932C49.2309 13.92 49.2591 13.8587 49.2639 13.8209ZM44.8394 16.0673C44.7119 16.1853 44.5327 16.2655 44.3629 16.2042L44.344 16.1806C44.2875 16.1287 44.3157 15.8691 44.3629 15.8267C44.4997 15.7039 44.8016 15.8786 44.9289 15.9399C44.9101 15.9871 44.8724 16.039 44.8394 16.0673ZM43.7685 18.427C43.2686 19.0122 42.7922 19.6304 42.3441 20.2817L42.3393 20.2864C42.2874 20.3714 42.0798 20.7206 41.528 20.5554L41.811 21.0839C41.4431 21.6597 41.0988 22.2591 40.7733 22.8773C40.5704 23.2785 39.9949 23.4201 39.6035 23.1747C39.3959 23.0425 38.6411 22.278 38.7685 22.0609C38.7685 22.0609 38.7921 22.0137 38.8251 21.9995C38.8534 21.9853 38.8911 22.0137 38.8911 22.0137C38.9336 22.042 39.1034 22.396 39.3204 22.5328C39.5562 22.6791 39.9714 22.547 40.1082 22.2874C40.4384 21.6597 40.7968 21.0604 41.1695 20.4752C41.0374 20.3147 40.8298 20.1637 40.6742 20.041C40.5657 19.7956 40.4855 19.5313 40.4195 19.267L40.7686 19.4841C40.9148 19.5785 41.0421 19.7059 41.1884 19.8003C41.3817 19.9183 41.5846 19.8475 41.6837 19.7012H41.6884C42.061 19.1679 42.4478 18.6582 42.8534 18.1674C42.561 18.0589 42.2308 18.0022 41.9242 17.9881L41.627 17.1764C42.0139 17.1764 42.6317 17.266 42.9384 17.5256C43.245 17.7663 43.5186 18.1202 43.7685 18.427ZM40.1411 42.3681L38.8864 42.9344L40.6553 43.581L41.0185 44.4351L39.311 43.7556L38.0515 45.9076L37.6883 45.0534L38.6459 43.5102L38.094 43.2931L37.1223 43.732L36.8298 43.0524L39.8487 41.6933L40.1411 42.3681ZM39.0043 47.4272L39.2874 47.2478L39.278 47.2337C39.1175 47.2384 38.9761 47.196 38.8534 47.1157C38.7308 47.0355 38.6317 46.9317 38.561 46.8137C38.4667 46.6627 38.41 46.5211 38.3912 46.3984C38.3723 46.2757 38.3817 46.1625 38.4194 46.0586C38.4572 45.9548 38.5185 45.8604 38.6129 45.7708C38.7025 45.6811 38.811 45.5961 38.9336 45.5159L40.1789 44.7183L40.5233 45.2894L39.3771 46.0209C39.2119 46.1294 39.1034 46.2332 39.0516 46.3417C38.9996 46.4456 39.0185 46.5683 39.0987 46.7051C39.1931 46.8609 39.3063 46.9458 39.4383 46.9553C39.5704 46.9694 39.7402 46.9081 39.9478 46.776L41.0091 46.0963L41.3535 46.6674L39.3251 47.9605L39.0043 47.4272ZM41.1176 50.1691L42.0186 48.7392L42.0139 48.7298L40.5563 49.5273L40.0987 49.0129L41.3535 46.7854L41.8204 47.314L40.9148 48.7675L40.9195 48.7722L42.3865 47.9558L42.8157 48.4372L41.8959 49.8624L41.9006 49.8718L43.3912 49.0884L43.8441 49.6028L41.5752 50.6835L41.1176 50.1691ZM43.7308 49.8718C43.8441 49.8294 43.962 49.8152 44.0846 49.8294C44.2072 49.8435 44.3252 49.8813 44.4478 49.9378C44.5704 49.9993 44.6836 50.0653 44.7874 50.1503C44.8818 50.2258 44.9761 50.306 45.0658 50.3957C45.1553 50.4854 45.2261 50.5797 45.2733 50.6835C45.3252 50.7874 45.3488 50.8959 45.3488 51.0045C45.3488 51.1178 45.3063 51.231 45.2167 51.3489L44.4714 52.3683C44.4054 52.458 44.3487 52.5477 44.3016 52.6326C44.2544 52.7223 44.2261 52.7931 44.2214 52.8544L43.6884 52.4438C43.7026 52.4061 43.7167 52.3683 43.7308 52.3306C43.7497 52.2928 43.7685 52.2598 43.7874 52.222C43.6412 52.2456 43.495 52.2314 43.3582 52.1796C43.2214 52.1277 43.0893 52.0569 42.9714 51.9672C42.8817 51.8964 42.8016 51.8209 42.7402 51.736C42.679 51.651 42.6365 51.566 42.6129 51.4716C42.5893 51.3773 42.5893 51.2829 42.6082 51.1838C42.627 51.0846 42.6743 50.9856 42.7497 50.8818C42.8299 50.7685 42.9148 50.693 43.0091 50.6505C43.0987 50.6081 43.1931 50.5892 43.2827 50.5939C43.3724 50.5986 43.4667 50.6175 43.561 50.6552C43.6553 50.693 43.745 50.7355 43.8346 50.7874C43.9242 50.8345 44.0091 50.8865 44.0893 50.9336C44.1695 50.9856 44.2449 51.0233 44.3157 51.0564C44.3865 51.0846 44.4478 51.0988 44.5045 51.0988C44.561 51.0941 44.6082 51.0658 44.6459 51.0092C44.6884 50.9525 44.7119 50.8959 44.7214 50.8487C44.7262 50.8015 44.7214 50.7544 44.7072 50.7118C44.6884 50.6694 44.6648 50.6269 44.6271 50.5892C44.5893 50.5514 44.5516 50.5137 44.5045 50.4806C44.4007 50.4004 44.3016 50.3627 44.212 50.3627C44.1176 50.3627 44.028 50.4098 43.9431 50.5089L43.4195 50.1031C43.5044 49.9945 43.6129 49.9143 43.7308 49.8718ZM44.212 51.4292C44.1695 51.415 44.127 51.3962 44.0846 51.3773C44.0422 51.3537 43.995 51.3301 43.9525 51.3018C43.9053 51.2735 43.8582 51.2499 43.811 51.2263C43.7685 51.2026 43.7214 51.1838 43.6742 51.1649C43.6271 51.146 43.5799 51.1413 43.5374 51.1413C43.495 51.1413 43.4525 51.1508 43.4101 51.1696C43.3677 51.1885 43.3298 51.2263 43.2921 51.2735C43.2592 51.3206 43.2355 51.3679 43.2308 51.415C43.2261 51.4622 43.2308 51.5047 43.245 51.5472C43.2592 51.5896 43.2874 51.6274 43.3204 51.6652C43.3535 51.7029 43.3912 51.7407 43.4336 51.769C43.5374 51.8492 43.6318 51.8917 43.712 51.9011C43.7921 51.9106 43.8676 51.9011 43.929 51.8728C43.9903 51.8445 44.0469 51.8067 44.0893 51.7596C44.1317 51.7123 44.1648 51.6746 44.1884 51.6463L44.3346 51.4433C44.2922 51.4528 44.2497 51.4433 44.212 51.4292ZM46.4384 51.3348L45.2403 53.4538L44.6742 53.114L45.8724 50.995L46.4384 51.3348ZM46.061 50.6694L46.3347 50.188L46.9007 50.5278L46.6271 51.0092L46.061 50.6694ZM47.9997 52.1135L47.8158 52.5241L47.3818 52.3164L46.8818 53.4161C46.8346 53.5198 46.8205 53.5954 46.8393 53.6473C46.8582 53.6992 46.9148 53.7464 47.0186 53.7936C47.0516 53.8078 47.0846 53.8219 47.1177 53.8361C47.1507 53.8502 47.179 53.8596 47.2119 53.8643L46.9997 54.3363C46.9431 54.3222 46.8865 54.2986 46.8252 54.2749C46.7638 54.2466 46.7026 54.223 46.6412 54.1947C46.5516 54.1522 46.4667 54.105 46.3912 54.0485C46.3157 53.9965 46.2544 53.9352 46.2073 53.8691C46.1601 53.803 46.1365 53.7275 46.1318 53.6378C46.1271 53.5529 46.1507 53.4538 46.2026 53.3405L46.7969 52.0286L46.4384 51.8586L46.6223 51.448L46.9808 51.6227L47.2827 50.9572L47.8771 51.2405L47.5752 51.9059L47.9997 52.1135ZM49.0894 52.6515C49.2026 52.4533 49.3441 52.2881 49.5092 52.1607C49.6743 52.0286 49.8677 51.9389 50.0799 51.8917C50.2969 51.8445 50.528 51.8445 50.7734 51.8964C51.0234 51.9483 51.2403 52.038 51.4148 52.1701C51.5941 52.3023 51.7356 52.458 51.8394 52.6468C51.9432 52.8308 52.0139 53.0385 52.0422 53.265C52.0752 53.4915 52.0658 53.7322 52.0139 53.9776C51.9667 54.2183 51.8865 54.4402 51.7733 54.6336C51.6601 54.8271 51.5233 54.9876 51.3536 55.115C51.1884 55.2424 50.9998 55.3274 50.7828 55.3793C50.5705 55.4264 50.3394 55.4264 50.0894 55.3745C49.844 55.3227 49.6271 55.233 49.4479 55.1056C49.2686 54.9781 49.1271 54.8224 49.0186 54.6383C48.9148 54.4543 48.8441 54.2513 48.811 54.0295C48.778 53.8078 48.7875 53.5718 48.8347 53.3311C48.8959 53.0715 48.9762 52.8497 49.0894 52.6515ZM49.5234 53.8832C49.5281 54.0201 49.5563 54.1522 49.6082 54.2702C49.6554 54.3882 49.7308 54.492 49.8299 54.577C49.929 54.6619 50.0563 54.7233 50.2168 54.7563C50.3771 54.7893 50.5186 54.7846 50.6412 54.7469C50.7639 54.7044 50.8724 54.6383 50.962 54.5487C51.0516 54.459 51.1271 54.3505 51.1837 54.223C51.2403 54.0956 51.2828 53.9635 51.311 53.8266C51.3394 53.6803 51.3488 53.5341 51.3441 53.3924C51.3394 53.2508 51.311 53.1187 51.2639 52.996C51.2167 52.8733 51.1413 52.7695 51.0422 52.6845C50.9431 52.5996 50.8111 52.5383 50.6554 52.5052C50.495 52.4721 50.3535 52.4769 50.2309 52.5147C50.1083 52.5571 49.9998 52.6232 49.9101 52.7128C49.8205 52.8073 49.7451 52.9158 49.6884 53.0479C49.6319 53.1801 49.5893 53.3169 49.5564 53.4632C49.5281 53.6048 49.5186 53.7464 49.5234 53.8832ZM52.4196 52.7648L52.4431 52.2079L53.0988 52.2409L53.0753 52.7931L52.4196 52.7648ZM53.0564 53.1754L52.9432 55.6247L52.2875 55.5917L52.4007 53.1423L53.0564 53.1754ZM54.2168 52.2267L54.3253 55.6105L53.6696 55.6341L53.5611 52.2504L54.2168 52.2267ZM57.547 52.5807C57.4903 52.5194 57.4243 52.4721 57.3488 52.4344C57.2734 52.3967 57.1932 52.373 57.1083 52.3636C57.0233 52.3541 56.9338 52.3589 56.8489 52.3778C56.6884 52.4156 56.5611 52.4769 56.4668 52.5666C56.3725 52.6562 56.297 52.76 56.2545 52.8827C56.2073 53.0054 56.1837 53.1376 56.1837 53.2792C56.1837 53.4208 56.1979 53.5671 56.2309 53.7133C56.2593 53.8502 56.3064 53.9823 56.3677 54.105C56.429 54.2278 56.5045 54.3363 56.5989 54.4213C56.6884 54.5109 56.7969 54.5723 56.9243 54.61C57.0517 54.6477 57.1932 54.6477 57.3488 54.61C57.5658 54.5581 57.7167 54.4496 57.8111 54.2891C57.9007 54.1239 57.9384 53.9305 57.9149 53.6992L58.5988 53.5388C58.6271 53.7511 58.6224 53.9446 58.5847 54.1286C58.547 54.3127 58.4809 54.4779 58.3818 54.6242C58.2828 54.7704 58.1601 54.8932 58.0092 54.9923C57.8583 55.0914 57.6837 55.1669 57.4856 55.2141C57.2403 55.2707 57.0092 55.2801 56.7922 55.2377C56.5752 55.1953 56.3819 55.115 56.2167 54.9923C56.047 54.8696 55.9055 54.7139 55.7875 54.5203C55.6696 54.3269 55.5847 54.1145 55.5328 53.8738C55.4762 53.6284 55.4621 53.3924 55.4904 53.1612C55.5139 52.9347 55.58 52.727 55.6791 52.5383C55.7781 52.3494 55.9196 52.189 56.0941 52.0521C56.2734 51.9153 56.481 51.8209 56.7262 51.7643C56.9054 51.7218 57.0753 51.7076 57.245 51.7265C57.4149 51.7407 57.5705 51.7832 57.7215 51.8586C57.8677 51.9294 57.9998 52.0286 58.113 52.1607C58.2262 52.2881 58.3159 52.4486 58.3771 52.6326L57.6932 52.7931C57.646 52.7128 57.6035 52.6421 57.547 52.5807ZM58.6413 53.0196C58.6366 52.8497 58.6649 52.6893 58.7215 52.5477C58.7781 52.4014 58.8677 52.274 58.9857 52.156C59.1036 52.038 59.2498 51.9483 59.4196 51.8728C59.5942 51.7973 59.7639 51.7643 59.9244 51.7596C60.0894 51.7596 60.2404 51.7879 60.3819 51.8492C60.5234 51.9106 60.6507 52.005 60.764 52.1277C60.8772 52.2551 60.9715 52.4061 61.0423 52.5901C61.113 52.7742 61.1508 52.9488 61.1555 53.114C61.1602 53.2839 61.1319 53.4396 61.0753 53.5859C61.0186 53.7322 60.9291 53.8643 60.8112 53.9776C60.6932 54.0909 60.547 54.1853 60.3725 54.2608C60.1979 54.3316 60.0329 54.3693 59.8677 54.374C59.7074 54.3788 59.5565 54.3457 59.4149 54.2844C59.2734 54.223 59.146 54.1286 59.0375 54.0059C58.9243 53.8832 58.8347 53.7275 58.7593 53.5482C58.6885 53.3641 58.6461 53.1895 58.6413 53.0196ZM59.4951 53.5482C59.547 53.6284 59.6083 53.6945 59.6744 53.7464C59.7404 53.7983 59.8206 53.8313 59.9055 53.8408C59.9903 53.8549 60.0847 53.8361 60.1885 53.7936C60.2923 53.7511 60.3678 53.6945 60.4243 53.6237C60.4763 53.5529 60.5093 53.4774 60.5234 53.3877C60.5375 53.3028 60.5375 53.2131 60.5187 53.1187C60.4998 53.0244 60.4763 52.9347 60.4385 52.8403C60.4008 52.7506 60.3583 52.6657 60.3064 52.5854C60.2546 52.5052 60.1932 52.4391 60.1272 52.3873C60.0611 52.3353 59.9809 52.307 59.8961 52.2928C59.8112 52.2787 59.7168 52.2928 59.613 52.3353C59.5092 52.3778 59.4338 52.4344 59.3819 52.5052C59.33 52.576 59.2969 52.6562 59.2828 52.7411C59.2687 52.8261 59.2687 52.9158 59.2875 53.0101C59.3064 53.1045 59.33 53.1989 59.3677 53.2886C59.4007 53.383 59.4432 53.4679 59.4951 53.5482ZM61.2262 51.1083L61.3961 51.3915L61.4055 51.3867C61.4149 51.231 61.4526 51.0941 61.5187 50.9667C61.5847 50.844 61.6838 50.7355 61.8205 50.6505C61.948 50.5655 62.08 50.5184 62.2168 50.5042C62.3536 50.4854 62.4904 50.5278 62.6225 50.6175C62.6272 50.4854 62.6602 50.3532 62.7215 50.2211C62.7829 50.0842 62.8819 49.971 63.0234 49.8813C63.1319 49.8104 63.2357 49.7633 63.3442 49.7303C63.4527 49.6972 63.5565 49.6925 63.6555 49.7067C63.7545 49.7255 63.8536 49.768 63.9479 49.8388C64.0423 49.9096 64.1319 50.0134 64.2121 50.1455L65.0612 51.5377L64.5046 51.8964L63.7876 50.7166C63.7451 50.6458 63.7027 50.5844 63.6602 50.5231C63.6177 50.4665 63.5706 50.4192 63.5187 50.3909C63.4668 50.3627 63.4102 50.3485 63.3489 50.3485C63.2875 50.3532 63.2168 50.3768 63.1366 50.4287C63.0564 50.4806 63.0046 50.5372 62.9763 50.5986C62.9479 50.6599 62.9338 50.7261 62.9385 50.7921C62.9432 50.8582 62.9573 50.9289 62.9857 50.995C63.014 51.0658 63.047 51.1319 63.0895 51.1932L63.7923 52.3494L63.2357 52.7081L62.5282 51.5425C62.4904 51.4811 62.4527 51.4198 62.415 51.3632C62.3772 51.3018 62.33 51.2546 62.2781 51.2168C62.2262 51.1791 62.1696 51.1602 62.1036 51.1555C62.0375 51.1555 61.9621 51.1838 61.8725 51.2405C61.8442 51.2593 61.8158 51.2876 61.7781 51.3253C61.7451 51.3632 61.7168 51.415 61.6932 51.4716C61.6743 51.533 61.6696 51.6038 61.6791 51.684C61.6885 51.7643 61.7263 51.8586 61.7875 51.9577L62.5235 53.1659L61.9668 53.5246L60.7027 51.4433L61.2262 51.1083ZM64.3914 48.8666L64.5895 49.1026L64.5942 49.0979C64.5706 48.9422 64.5848 48.8005 64.6366 48.6731C64.6933 48.5457 64.7734 48.4325 64.8866 48.3286C65.0282 48.2012 65.1744 48.1209 65.3206 48.0832C65.4668 48.0455 65.6178 48.0455 65.7593 48.0738C65.9008 48.1021 66.0423 48.1634 66.1791 48.2578C66.3159 48.3475 66.4385 48.4608 66.547 48.5929C66.6508 48.7156 66.7357 48.8525 66.8017 48.994C66.8678 49.1356 66.9055 49.2819 66.9102 49.4282C66.9197 49.5745 66.8961 49.7208 66.8442 49.8624C66.7923 50.004 66.698 50.1314 66.5659 50.2494C66.4527 50.3485 66.33 50.4192 66.198 50.457C66.0659 50.4948 65.9291 50.4948 65.7923 50.457L65.7876 50.4617L66.5329 51.3348L66.0375 51.7784L63.9197 49.2819L64.3914 48.8666ZM66.2782 49.7586C66.3018 49.6783 66.3112 49.5934 66.3018 49.5084C66.2876 49.4234 66.2593 49.3433 66.2121 49.2583C66.165 49.1733 66.1131 49.0932 66.047 49.0223C65.9857 48.9469 65.9149 48.8808 65.8395 48.8242C65.764 48.7675 65.6838 48.725 65.6037 48.7015C65.5187 48.6778 65.4385 48.6731 65.3536 48.6873C65.2687 48.7015 65.1885 48.7439 65.1083 48.8147C65.0282 48.8855 64.9715 48.9657 64.948 49.0506C64.9244 49.1356 64.9197 49.2159 64.9291 49.3007C64.9433 49.3857 64.9715 49.4707 65.0187 49.5556C65.0659 49.6406 65.1224 49.7208 65.1885 49.7963C65.2498 49.8718 65.3206 49.9378 65.3961 49.9945C65.4715 50.0511 65.547 50.0937 65.6272 50.1172C65.7074 50.1408 65.7876 50.1455 65.8725 50.1267C65.9574 50.1078 66.0376 50.0653 66.1178 49.9945C66.198 49.919 66.2545 49.8388 66.2782 49.7586ZM66.1791 47.6962C66.1508 47.5735 66.146 47.4508 66.1697 47.3328C66.1933 47.2101 66.2404 47.0921 66.3112 46.9741C66.3819 46.8561 66.4574 46.7476 66.547 46.6486C66.6273 46.5589 66.7168 46.4692 66.8112 46.389C66.9055 46.3087 67.0046 46.2426 67.1131 46.2002C67.2169 46.1577 67.3254 46.1389 67.4339 46.153C67.5424 46.1625 67.6508 46.219 67.7593 46.3182L68.6791 47.1771C68.7593 47.2526 68.8395 47.3187 68.9197 47.3753C68.9998 47.432 69.0706 47.4697 69.1272 47.4791L68.6791 47.9841C68.6414 47.9699 68.6084 47.9511 68.5754 47.9275C68.5423 47.9086 68.5093 47.885 68.4763 47.8567C68.4857 48.0124 68.4575 48.1587 68.3961 48.2956C68.3348 48.4325 68.2499 48.5599 68.1508 48.6684C68.0753 48.7533 67.9952 48.8242 67.9056 48.8808C67.8206 48.9374 67.731 48.9704 67.6366 48.9893C67.5424 49.0035 67.448 48.9987 67.3584 48.9657C67.264 48.9374 67.1696 48.8808 67.0801 48.7911C66.981 48.6967 66.9149 48.6023 66.882 48.5079C66.8489 48.4088 66.8394 48.3145 66.8489 48.2201C66.8631 48.1257 66.8914 48.036 66.9338 47.9416C66.981 47.8519 67.0282 47.7622 67.0848 47.6774C67.1414 47.5924 67.1933 47.5074 67.2546 47.432C67.3112 47.3517 67.3584 47.2809 67.3961 47.2101C67.4339 47.1393 67.4527 47.078 67.4527 47.0214C67.4574 46.9647 67.4291 46.9128 67.3772 46.8703C67.3254 46.8231 67.2734 46.7901 67.231 46.7807C67.1838 46.7713 67.1414 46.7713 67.0989 46.7854C67.0564 46.7996 67.014 46.8231 66.9763 46.8561C66.9385 46.8892 66.8961 46.927 66.8584 46.9741C66.7735 47.0733 66.7215 47.1677 66.7168 47.262C66.7074 47.3564 66.7499 47.4508 66.8347 47.5499L66.3961 48.0502C66.2782 47.9369 66.2121 47.8189 66.1791 47.6962ZM67.7357 47.3517C67.7168 47.3942 67.698 47.4367 67.6697 47.4791C67.6461 47.5216 67.6178 47.5641 67.5848 47.6112C67.5565 47.6537 67.5234 47.7009 67.4951 47.7481C67.4669 47.7906 67.4433 47.8378 67.4244 47.885C67.4055 47.9322 67.3913 47.9794 67.3866 48.0218C67.3819 48.0691 67.3866 48.1115 67.4008 48.1539C67.4149 48.1965 67.448 48.2389 67.4904 48.2861C67.5329 48.3239 67.5754 48.3522 67.6225 48.3616C67.665 48.3711 67.7074 48.3711 67.7498 48.3616C67.7923 48.3475 67.8348 48.3286 67.8725 48.2956C67.9103 48.2625 67.948 48.2295 67.9857 48.1871C68.0706 48.0879 68.1225 47.9982 68.1414 47.9133C68.1555 47.8284 68.1555 47.7528 68.132 47.6868C68.1084 47.6207 68.08 47.5594 68.0376 47.5121C67.9952 47.465 67.9621 47.4272 67.9338 47.4036L67.7546 47.2337C67.764 47.2667 67.7546 47.3092 67.7357 47.3517ZM67.8489 45.1431L68.1178 45.3412L68.1273 45.3271C68.0659 45.1761 68.047 45.0251 68.0706 44.8741C68.0942 44.7278 68.1508 44.5956 68.231 44.4777C68.3348 44.3313 68.4385 44.2275 68.5423 44.1614C68.6461 44.0954 68.7499 44.0623 68.8584 44.0623C68.9668 44.0576 69.0753 44.086 69.1886 44.1331C69.3018 44.185 69.4197 44.2558 69.5376 44.3455L70.7263 45.228L70.3442 45.7755L69.2546 44.9637C69.0942 44.8457 68.9574 44.7844 68.8442 44.775C68.731 44.7655 68.6272 44.8315 68.5329 44.959C68.4291 45.1053 68.3961 45.2469 68.4338 45.3791C68.4716 45.5112 68.5895 45.648 68.7876 45.7943L69.8017 46.5494L69.4197 47.0968L67.4857 45.6622L67.8489 45.1431ZM72.0376 44.4068C72.0471 44.5626 71.9952 44.7372 71.882 44.9401C71.8489 45.0015 71.8112 45.0581 71.7735 45.1148C71.7357 45.1714 71.698 45.228 71.6603 45.2846L71.1933 45.0062C71.231 44.9543 71.2687 44.9024 71.3065 44.8457C71.3442 44.7891 71.3772 44.7372 71.4055 44.6758C71.4386 44.5956 71.4433 44.5201 71.415 44.454C71.3867 44.388 71.3395 44.3361 71.2782 44.2983C71.231 44.27 71.1839 44.2558 71.1367 44.2464L68.7829 43.8311L69.132 43.2129L70.8159 43.5763L70.8206 43.5668L69.6697 42.2643L70.0093 41.6602L71.8254 43.9302C71.9574 44.0954 72.0282 44.2558 72.0376 44.4068Z" fill="#0065AF"/>
</svg>
