<svg width="69" height="68" viewBox="0 0 69 68" fill="none" xmlns="http://www.w3.org/2000/svg">
<path d="M1.80461 61.2388C1.91125 61.2388 2.00667 61.1433 2.00667 61.0366C2.00667 60.9299 1.91125 60.8401 1.80461 60.8401C1.69796 60.8401 1.60815 60.9299 1.60815 61.0366C1.60815 61.1489 1.69796 61.2388 1.80461 61.2388Z" fill="#454545"/>
<path d="M1.28239 61.2388C1.39464 61.2388 1.48445 61.1433 1.48445 61.0366C1.48445 60.9299 1.38903 60.8401 1.28239 60.8401C1.17574 60.8401 1.08032 60.9299 1.08032 61.0366C1.08594 61.1489 1.17574 61.2388 1.28239 61.2388Z" fill="#454545"/>
<path d="M4.42008 63.6704C4.31344 63.6704 4.22363 63.7603 4.22363 63.867C4.22363 63.9737 4.31344 64.0691 4.42008 64.0691C4.52673 64.0691 4.62215 63.9737 4.62215 63.867C4.61653 63.7603 4.52673 63.6704 4.42008 63.6704Z" fill="#454545"/>
<path d="M3.89811 63.6704C3.78585 63.6704 3.70166 63.7603 3.70166 63.867C3.70166 63.9737 3.78585 64.0691 3.89811 64.0691C4.00476 64.0691 4.10017 63.9737 4.10017 63.867C4.10017 63.7603 4.00476 63.6704 3.89811 63.6704Z" fill="#454545"/>
<path d="M5.38542 61.2388C5.49207 61.2388 5.58748 61.1433 5.58748 61.0366C5.58748 60.9299 5.49207 60.8401 5.38542 60.8401C5.27316 60.8401 5.18897 60.9299 5.18897 61.0366C5.18336 61.1489 5.27316 61.2388 5.38542 61.2388Z" fill="#454545"/>
<path d="M5.90177 61.2388C6.00842 61.2388 6.10384 61.1433 6.10384 61.0366C6.10384 60.9299 6.00842 60.8401 5.90177 60.8401C5.80074 60.8401 5.70532 60.9299 5.70532 61.0366C5.70532 61.1489 5.79513 61.2388 5.90177 61.2388Z" fill="#454545"/>
<path d="M7.08048 63.6704C6.96822 63.6704 6.87842 63.7603 6.87842 63.867C6.87842 63.9737 6.96822 64.0691 7.08048 64.0691C7.18713 64.0691 7.27693 63.9737 7.27693 63.867C7.28255 63.7603 7.19274 63.6704 7.08048 63.6704Z" fill="#454545"/>
<path d="M6.55851 63.6704C6.45186 63.6704 6.35645 63.7603 6.35645 63.867C6.35645 63.9737 6.45186 64.0691 6.55851 64.0691C6.66515 64.0691 6.75496 63.9737 6.75496 63.867C6.76057 63.7603 6.66515 63.6704 6.55851 63.6704Z" fill="#454545"/>
<path d="M6.99637 62.6146C6.99637 62.8785 6.86727 63.0077 6.6147 63.0077H6.22179C5.96921 63.0077 5.84012 62.8785 5.84012 62.6258V61.5813L5.47528 61.688V62.609C5.47528 62.8729 5.34618 63.0021 5.08799 63.0021H4.71754C4.46496 63.0021 4.33587 62.8729 4.33587 62.6202V61.5757L3.97103 61.6824V62.6033C3.97103 62.8673 3.84193 62.9964 3.58374 62.9964H2.57342C2.32084 62.9964 2.19736 62.8673 2.19736 62.6033V61.5701H1.41156C0.923236 61.5701 0.67627 61.8565 0.67627 62.4293C0.67627 63.0189 0.923236 63.3165 1.41156 63.3165C1.70343 63.3165 1.88865 63.2267 1.97846 63.047C2.05704 63.2267 2.25349 63.3165 2.55097 63.3165H3.61181C3.84755 63.3165 4.02716 63.2491 4.16187 63.1144C4.29096 63.2491 4.47058 63.3165 4.7007 63.3165H5.11606C5.3518 63.3165 5.53141 63.2491 5.66612 63.1144C5.79521 63.2491 5.97483 63.3165 6.20495 63.3165H6.64276C6.86166 63.3165 7.04127 63.2491 7.17037 63.1256C7.29947 62.9964 7.36682 62.8336 7.36682 62.637V61.5757L7.00198 61.6824L6.99637 62.6146ZM1.82691 62.4405C1.82691 62.6314 1.79885 62.7662 1.74833 62.856C1.6922 62.9627 1.57994 63.0133 1.43401 63.0133C1.28246 63.0133 1.17582 62.9627 1.11969 62.856C1.06917 62.7718 1.04111 62.6314 1.04111 62.4405C1.04111 62.2496 1.06917 62.1092 1.11969 62.0305C1.17582 61.9295 1.28807 61.8789 1.43401 61.8789H1.82691V62.4405Z" fill="#454545"/>
<path d="M13.9788 62.6089C13.9788 62.8728 13.8497 63.002 13.6028 63.002H12.3792C12.3848 62.8616 12.3792 62.7549 12.3735 62.6763C12.3511 62.3899 12.2501 62.1596 12.0761 61.9799C11.8964 61.8002 11.6607 61.7104 11.3688 61.7104C11.3127 61.7104 11.2566 61.716 11.2004 61.7216L12.0368 60.8456H11.5597L10.3585 62.0979L10.6111 62.3337C10.7851 62.1316 11.0096 62.0305 11.2846 62.0305C11.4979 62.0305 11.6719 62.0923 11.801 62.2158C11.8964 62.3056 11.9582 62.4348 11.9863 62.592C11.9975 62.6707 12.0087 62.8167 12.0031 63.0132H9.23594C9.24155 62.8223 9.24155 62.6594 9.24155 62.5415C9.24155 61.9406 8.99459 61.6374 8.50065 61.6374C8.23685 61.6374 8.03478 61.7328 7.90008 61.9238C7.78782 62.081 7.73169 62.2888 7.73169 62.5415C7.73169 62.7717 7.79904 62.9571 7.92814 63.0974C8.06846 63.2491 8.27053 63.3277 8.52872 63.3277H8.83181C8.80375 63.5523 8.62414 63.7432 8.37717 63.7489C8.18633 63.7545 7.98988 63.7096 7.77098 63.6141L7.93375 63.9679C8.03478 64.0353 8.18633 64.069 8.38278 64.069C8.61291 64.069 8.79814 63.9959 8.94407 63.8443C9.07878 63.7096 9.16297 63.5411 9.19665 63.3277H13.6196C13.8385 63.3277 14.0181 63.2603 14.1472 63.1368C14.2763 63.0076 14.3437 62.8447 14.3437 62.6482V60.8456L13.9788 60.9523V62.6089ZM8.86549 63.0076H8.52872C8.24246 63.0076 8.09653 62.8504 8.09653 62.5359C8.09653 62.1484 8.23124 61.9519 8.50065 61.9519C8.65781 61.9519 8.77007 62.0192 8.82059 62.1428C8.85426 62.2214 8.8711 62.3506 8.8711 62.5303L8.86549 63.0076Z" fill="#454545"/>
<path d="M14.7141 60.9468V63.3278H15.0846V60.8345L14.7141 60.9468Z" fill="#454545"/>
<path d="M18.1435 60.9524V63.2267C18.1435 63.4177 18.0818 63.5468 17.9639 63.631C17.8629 63.6928 17.7057 63.7265 17.4868 63.7265C17.2118 63.7265 17.0154 63.6535 16.9031 63.5075C16.7908 63.3671 16.7403 63.1088 16.7403 62.7494L16.3755 62.8673C16.4092 63.2717 16.5046 63.5637 16.6449 63.749C16.8189 63.9624 17.0939 64.0691 17.4868 64.0691C18.1772 64.0691 18.5252 63.7883 18.5252 63.2211L18.5196 60.8401L18.1435 60.9524Z" fill="#454545"/>
<path d="M19.6366 61.6487C19.3728 61.6487 19.1708 61.7441 19.0417 61.9238C18.9406 62.0755 18.8845 62.272 18.8845 62.5135C18.8845 62.755 18.9406 62.9515 19.0417 63.1031C19.1708 63.2884 19.3728 63.3839 19.6366 63.3839C19.7714 63.3839 19.8892 63.3558 20.0015 63.2884C19.9734 63.5804 19.8163 63.7321 19.5356 63.7489C19.3448 63.7601 19.1427 63.7208 18.9238 63.6141L19.0866 63.9679C19.1932 64.0353 19.3448 64.069 19.5356 64.069C19.8106 64.069 20.0183 63.9792 20.1643 63.8051C20.299 63.6478 20.3663 63.4401 20.3663 63.1761C20.3663 63.1368 20.3719 63.0582 20.3775 62.9347C20.3832 62.8223 20.3832 62.7269 20.3832 62.6539C20.3832 62.3562 20.3383 62.126 20.2541 61.9688C20.1362 61.7554 19.9285 61.6487 19.6366 61.6487ZM19.6366 63.0582C19.3785 63.0582 19.2494 62.8785 19.2494 62.5135C19.2494 62.1485 19.3785 61.9632 19.6366 61.9632C19.8948 61.9632 20.0239 62.1429 20.0239 62.5135C20.0239 62.8785 19.8948 63.0582 19.6366 63.0582Z" fill="#454545"/>
<path d="M24.0651 61.2388C24.1717 61.2388 24.2672 61.1433 24.2672 61.0366C24.2672 60.9299 24.1717 60.8401 24.0651 60.8401C23.9585 60.8401 23.8687 60.9299 23.8687 61.0366C23.8687 61.1489 23.9641 61.2388 24.0651 61.2388Z" fill="#454545"/>
<path d="M23.5487 61.2388C23.6554 61.2388 23.7508 61.1433 23.7508 61.0366C23.7508 60.9299 23.6554 60.8401 23.5487 60.8401C23.4365 60.8401 23.3523 60.9299 23.3523 61.0366C23.3523 61.1489 23.4365 61.2388 23.5487 61.2388Z" fill="#454545"/>
<path d="M25.3505 63.6759C25.2439 63.6759 25.1484 63.7714 25.1484 63.8725C25.1484 63.9791 25.2382 64.0746 25.3505 64.0746C25.4571 64.0746 25.547 63.9791 25.547 63.8725C25.547 63.7658 25.4571 63.6759 25.3505 63.6759Z" fill="#454545"/>
<path d="M27.2308 62.609C27.2308 62.8729 27.1017 63.0133 26.8547 63.0133H25.8893C25.6367 63.0133 25.5076 62.8842 25.5076 62.6315V61.587L25.1428 61.6937V62.6146C25.1428 62.8786 25.0137 63.0077 24.7555 63.0077H24.3851C24.1325 63.0077 24.0034 62.8786 24.0034 62.6259V61.5813L23.6386 61.688V62.609C23.6386 62.8729 23.5095 63.0021 23.2513 63.0021H21.921V61.5757L21.5562 61.6824V63.2099C21.5562 63.5356 21.3653 63.7377 21.0566 63.7377C20.8377 63.7377 20.6413 63.6872 20.4673 63.5917L20.6413 63.9568C20.7535 64.0241 20.8883 64.0635 21.0566 64.0635C21.5562 64.0635 21.8705 63.7714 21.921 63.3222H23.2793C23.5151 63.3222 23.6947 63.2548 23.8294 63.1144C23.9585 63.2492 24.1381 63.3222 24.3682 63.3222H24.7836C25.0193 63.3222 25.1989 63.2548 25.3336 63.1144C25.4627 63.2492 25.6424 63.3222 25.8725 63.3222H26.8828C27.1017 63.3222 27.2813 63.2548 27.4104 63.1313C27.5395 63.0021 27.6069 62.8392 27.6069 62.6427V60.8401L27.242 60.9468L27.2308 62.609Z" fill="#454545"/>
<path d="M27.9717 60.9468V63.3278H28.3365V60.8345L27.9717 60.9468Z" fill="#454545"/>
<path d="M30.2392 61.2388C30.3514 61.2388 30.4412 61.1433 30.4412 61.0366C30.4412 60.9299 30.3514 60.8401 30.2392 60.8401C30.1325 60.8401 30.0371 60.9299 30.0371 61.0366C30.0371 61.1489 30.1325 61.2388 30.2392 61.2388Z" fill="#454545"/>
<path d="M30.7614 61.2388C30.868 61.2388 30.9635 61.1433 30.9635 61.0366C30.9635 60.9299 30.868 60.8401 30.7614 60.8401C30.6547 60.8401 30.5649 60.9299 30.5649 61.0366C30.5649 61.1489 30.6491 61.2388 30.7614 61.2388Z" fill="#454545"/>
<path d="M39.6913 62.6202C39.6913 62.8729 39.5622 62.9964 39.3153 62.9964H38.9224V61.7442L38.5575 61.8508V63.0021H37.7998V61.9126L37.435 62.0137V62.9908H35.3919V61.5701L35.027 61.6768V62.9852H34.2525V61.7385L33.8876 61.8452V62.9852H33.1243V61.9014L32.7594 62.0025V62.9908H31.5358C31.2832 62.9908 31.1598 62.8617 31.1598 62.5977V61.5645H30.374C29.88 61.5645 29.6331 61.8508 29.6331 62.4236C29.6331 63.0133 29.88 63.3109 30.374 63.3109C30.6658 63.3109 30.8511 63.2211 30.9409 63.0414C31.025 63.2211 31.2159 63.3109 31.519 63.3109H39.3489C39.7924 63.3109 40.073 63.047 40.073 62.6483V61.5645L39.7082 61.6768V62.6202H39.6913ZM30.7781 62.4405C30.7781 62.6314 30.75 62.7662 30.6995 62.856C30.6434 62.9627 30.5311 63.0133 30.3852 63.0133C30.2336 63.0133 30.127 62.9627 30.0709 62.856C30.0203 62.7718 29.9923 62.6314 29.9923 62.4405C29.9923 62.2496 30.0203 62.1092 30.0709 62.0305C30.127 61.9295 30.2392 61.8789 30.3852 61.8789H30.7781V62.4405Z" fill="#454545"/>
<path d="M41.6558 61.222H41.0945V61.1265C41.0945 60.9693 41.1619 60.8906 41.2909 60.8906C41.3583 60.8906 41.42 60.9243 41.4706 60.9917L41.6221 60.8401C41.5267 60.7446 41.4257 60.6997 41.319 60.6997C41.044 60.6997 40.8868 60.9019 40.8868 61.1602V61.2276H40.7128L40.55 61.4297H41.6558V61.222Z" fill="#454545"/>
<path d="M44.1703 61.6655C43.9065 61.6655 43.7044 61.7498 43.581 61.9238C43.4743 62.0699 43.4238 62.2608 43.4238 62.4966V62.6202C43.4238 62.8785 43.2947 63.0077 43.0477 63.0077H41.9476C41.9532 62.8167 41.9532 62.6539 41.9532 62.5359C41.9532 61.9351 41.7063 61.6318 41.2179 61.6318C40.9541 61.6318 40.7521 61.7273 40.6174 61.9182C40.5051 62.0755 40.449 62.2832 40.449 62.5359C40.449 62.7662 40.5163 62.9515 40.6454 63.0919C40.7857 63.2435 40.9878 63.3221 41.246 63.3221H41.5491C41.521 63.5524 41.3414 63.7377 41.0945 63.7433C40.9036 63.7489 40.7072 63.704 40.4883 63.6085L40.651 63.9623C40.7521 64.0297 40.9036 64.0634 41.1001 64.0634C41.3302 64.0634 41.5154 63.9904 41.6614 63.8388C41.7961 63.704 41.8803 63.5355 41.9139 63.3221H43.0702C43.3228 63.3221 43.5136 63.2547 43.6371 63.12C43.7718 63.2547 43.9514 63.3221 44.1759 63.3221C44.4397 63.3221 44.6362 63.2323 44.7653 63.0582C44.8663 62.9122 44.9224 62.7269 44.9224 62.491C44.9224 62.2552 44.8663 62.0642 44.7653 61.9182C44.6306 61.7554 44.4341 61.6655 44.1703 61.6655ZM41.5772 63.0077H41.2404C40.9541 63.0077 40.8082 62.8504 40.8082 62.5359C40.8082 62.1429 40.9429 61.9519 41.2123 61.9519C41.3695 61.9519 41.4817 62.0193 41.5323 62.1429C41.5659 62.2271 41.5828 62.3506 41.5828 62.5359L41.5772 63.0077ZM44.1703 63.0133C43.9177 63.0133 43.7886 62.8448 43.7886 62.5023C43.7886 62.1597 43.9177 61.9856 44.1703 61.9856C44.4229 61.9856 44.5464 62.1597 44.5464 62.5023C44.5464 62.8448 44.4229 63.0133 44.1703 63.0133Z" fill="#454545"/>
<path d="M48.6384 62.6202C48.6384 62.8729 48.5093 62.9964 48.2511 62.9964H46.9489C46.6963 62.9964 46.5672 62.8673 46.5672 62.6202V61.8958L46.2024 62.2664V62.6595C46.2024 63.0582 46.483 63.3221 46.8984 63.3221H48.2679C48.717 63.3221 48.992 63.0638 48.992 62.6595V61.5813L48.6328 61.6768V62.6202H48.6384Z" fill="#454545"/>
<path d="M47.8583 61.8284C47.965 61.8284 48.0604 61.7385 48.0604 61.6262C48.0604 61.5195 47.9706 61.4241 47.8583 61.4241C47.7517 61.4241 47.6619 61.5195 47.6619 61.6262C47.6619 61.7442 47.7573 61.8284 47.8583 61.8284Z" fill="#454545"/>
<path d="M47.342 61.8284C47.4486 61.8284 47.544 61.7385 47.544 61.6262C47.544 61.5195 47.4486 61.4241 47.342 61.4241C47.2353 61.4241 47.1455 61.5195 47.1455 61.6262C47.1455 61.7442 47.2353 61.8284 47.342 61.8284Z" fill="#454545"/>
<path d="M52.6683 61.952C52.4887 61.7891 52.2642 61.7105 51.9947 61.7105C51.9386 61.7105 51.8825 61.7161 51.8264 61.7217L52.6627 60.8457H52.1856L50.9844 62.098L51.237 62.3338C51.411 62.1317 51.6355 62.0306 51.9106 62.0306C52.1238 62.0306 52.2978 62.0924 52.4269 62.2159C52.5224 62.3058 52.5841 62.4349 52.6122 62.5922C52.6234 62.6764 52.629 62.8168 52.629 63.0133H50.9058V63.0077H50.2884H50.193H49.9236C49.7945 63.0077 49.7328 62.9459 49.7328 62.8224V60.8401L49.3679 60.958V62.8392C49.3679 63.1369 49.5475 63.339 49.8787 63.339H50.193H50.2884H50.816H50.9058H53.0051C53.0051 62.901 52.9995 62.6539 52.9938 62.5978C52.9602 62.3226 52.8479 62.1092 52.6683 61.952Z" fill="#454545"/>
<path d="M57.3717 60.7895C57.4784 60.7895 57.5738 60.694 57.5738 60.5929C57.5738 60.4862 57.4784 60.3907 57.3717 60.3907C57.2651 60.3907 57.1697 60.4862 57.1697 60.5929C57.1697 60.694 57.2595 60.7895 57.3717 60.7895Z" fill="#454545"/>
<path d="M57.428 61.0366C57.428 61.1433 57.5178 61.2388 57.6244 61.2388C57.7311 61.2388 57.8265 61.1433 57.8265 61.0366C57.8265 60.9243 57.7311 60.8345 57.6244 60.8345C57.5178 60.8345 57.428 60.9243 57.428 61.0366Z" fill="#454545"/>
<path d="M57.1081 61.2388C57.2147 61.2388 57.3101 61.1433 57.3101 61.0366C57.3101 60.9243 57.2147 60.8345 57.1081 60.8345C56.9958 60.8345 56.9116 60.9299 56.9116 61.0366C56.9116 61.1489 56.9958 61.2388 57.1081 61.2388Z" fill="#454545"/>
<path d="M58.343 62.6202C58.343 62.8729 58.2139 62.9964 57.9669 62.9964H57.574V61.7442L57.2092 61.8508V63.0021H56.4515V61.9126L56.0866 62.0137V62.9908H55.7162H55.6208H55.0819H54.9865H54.5319V61.5701L54.167 61.6768V63.2098C54.167 63.5355 53.9762 63.7377 53.6675 63.7377C53.4486 63.7377 53.2521 63.6872 53.0781 63.5917L53.2521 63.9567C53.3644 64.0241 53.4991 64.0578 53.6675 64.0578C54.167 64.0578 54.4813 63.7658 54.5319 63.3165H54.9865H55.0819H55.6208H55.705H57.9782C58.4216 63.3165 58.7022 63.0526 58.7022 62.6539V61.5701L58.3374 61.6824V62.6202H58.343Z" fill="#454545"/>
<path d="M61.5816 61.9014C61.7612 61.9014 61.9184 62.0081 62.0531 62.2159L62.171 61.8621C62.0026 61.6824 61.8005 61.5869 61.5592 61.5869C61.1101 61.5869 60.8295 61.8565 60.8295 62.272V62.8111H61.7893V63.266C61.7893 63.4345 61.7163 63.558 61.5704 63.6366C61.4581 63.704 61.3066 63.7377 61.127 63.7377C60.8576 63.7377 60.6667 63.6647 60.5488 63.5187C60.431 63.3727 60.3748 63.1256 60.3748 62.7718L60.0044 62.8841C60.0381 63.2828 60.1279 63.5692 60.2682 63.7433C60.4366 63.9623 60.7228 64.0746 61.1214 64.0746C61.4132 64.0746 61.6434 64.0185 61.8174 63.9062C62.0363 63.7658 62.1429 63.5524 62.1429 63.2716V62.4966H61.1887V62.3057C61.1943 62.0306 61.3234 61.9014 61.5816 61.9014Z" fill="#454545"/>
<path d="M66.2179 61.5813C65.9036 61.5813 65.623 61.7105 65.3648 61.9575L65.6286 62.199C65.8082 62.0025 66.0047 61.9014 66.2179 61.9014C66.4705 61.9014 66.6389 62.0081 66.7231 62.2271C66.7792 62.3563 66.8017 62.5697 66.8017 62.8617V63.0021H65.2189V62.9964H64.6014H64.506H64.0794V62.2439C64.0794 62.0418 64.0121 61.8845 63.8661 61.7666C63.7202 61.6487 63.5406 61.5869 63.3161 61.5869C63.1421 61.5869 62.9681 61.6655 62.7941 61.8172V62.2327C62.9232 62.0081 63.0972 61.8958 63.3161 61.8958C63.5799 61.8958 63.7202 62.0249 63.7202 62.272V63.0077H62.7716L62.5527 63.3221H64.5116H64.607H65.1347H65.2301H67.1946V62.8673C67.1946 62.491 67.1441 62.2046 67.043 62.0081C66.8803 61.7273 66.6108 61.5813 66.2179 61.5813Z" fill="#454545"/>
<path d="M67.5537 60.9468V63.3278H67.9185V60.8345L67.5537 60.9468Z" fill="#454545"/>
<path d="M67.7389 60.5536V60.475C67.7389 60.3851 67.7669 60.3402 67.8343 60.3402C67.8792 60.3402 67.9129 60.3571 67.9409 60.3964L68.0251 60.2897C67.969 60.2335 67.9129 60.2111 67.8455 60.2111C67.6771 60.2111 67.5986 60.3009 67.5986 60.4806V60.5592H67.4919L67.4133 60.6884H68.0476V60.5592H67.7389V60.5536Z" fill="#454545"/>
<path d="M1.54065 65.0742H1.96162L2.83723 67.3429H2.41065L2.19736 66.7421H1.29368L1.08039 67.3429H0.670654L1.54065 65.0742ZM1.40033 66.4444H2.09071L1.74833 65.4673H1.7371L1.40033 66.4444Z" fill="#454545"/>
<path d="M4.20101 66.5904C4.20101 66.6803 4.21785 66.7533 4.24592 66.8151C4.27398 66.8768 4.31888 66.9274 4.3694 66.9667C4.41992 67.006 4.48166 67.0341 4.54901 67.0509C4.61637 67.0678 4.69495 67.079 4.77353 67.079C4.86333 67.079 4.9363 67.0678 4.99804 67.0509C5.05978 67.0285 5.1103 67.006 5.14959 66.9723C5.18888 66.9386 5.21695 66.9049 5.23378 66.8656C5.25062 66.8263 5.26185 66.7814 5.26185 66.7421C5.26185 66.6522 5.2394 66.5904 5.20572 66.5511C5.16643 66.5062 5.12153 66.4781 5.07662 66.4613C4.99804 66.4332 4.90262 66.4051 4.79598 66.377C4.68933 66.349 4.56024 66.3153 4.40308 66.276C4.30766 66.2479 4.22347 66.2198 4.16172 66.1749C4.09437 66.1356 4.04385 66.085 4.00456 66.0345C3.96527 65.984 3.93721 65.9278 3.92598 65.8716C3.90914 65.8155 3.90353 65.7593 3.90353 65.6976C3.90353 65.5852 3.92598 65.4842 3.9765 65.3999C4.0214 65.3157 4.08876 65.2483 4.16734 65.1922C4.24592 65.136 4.33572 65.0967 4.43675 65.0686C4.53779 65.0405 4.63882 65.0293 4.73985 65.0293C4.85772 65.0293 4.96998 65.0461 5.07662 65.0742C5.18327 65.1079 5.27307 65.1528 5.35165 65.2146C5.43023 65.2764 5.49198 65.3494 5.54249 65.4449C5.5874 65.5347 5.60985 65.6414 5.60985 65.7593H5.21133C5.20011 65.6133 5.14959 65.5122 5.05978 65.4505C4.96998 65.3887 4.85772 65.3606 4.7174 65.3606C4.6725 65.3606 4.62198 65.3662 4.57146 65.3775C4.52095 65.3887 4.47605 65.4055 4.43675 65.4224C4.39746 65.4449 4.36379 65.4729 4.33572 65.5122C4.30766 65.5515 4.29643 65.5965 4.29643 65.6526C4.29643 65.7312 4.3245 65.7986 4.3694 65.8436C4.41992 65.8885 4.48166 65.9222 4.56585 65.9446C4.57708 65.9446 4.60514 65.9559 4.66688 65.9727C4.72301 65.9896 4.79037 66.0064 4.86333 66.0233C4.9363 66.0401 5.00366 66.0626 5.07662 66.0794C5.14398 66.0963 5.19449 66.1075 5.22256 66.1187C5.29553 66.1412 5.36288 66.1749 5.41901 66.2142C5.47514 66.2535 5.52004 66.304 5.55933 66.3546C5.59862 66.4051 5.62669 66.4613 5.64352 66.5231C5.66036 66.5848 5.67159 66.641 5.67159 66.7028C5.67159 66.8319 5.64352 66.9386 5.59301 67.0285C5.54249 67.1183 5.47514 67.1913 5.39094 67.2475C5.30675 67.3036 5.21133 67.3485 5.09907 67.371C4.99243 67.3991 4.88017 67.4103 4.76791 67.4103C4.63882 67.4103 4.51534 67.3935 4.40308 67.3654C4.29082 67.3317 4.18979 67.2868 4.1056 67.2194C4.0214 67.152 3.95405 67.0678 3.90353 66.9667C3.85302 66.8656 3.82495 66.7421 3.82495 66.6017H4.20101V66.5904Z" fill="#454545"/>
<path d="M7.38929 67.3484H7.03568V67.1181H7.03006C6.98516 67.2024 6.91781 67.2698 6.83361 67.3147C6.74381 67.3652 6.654 67.3877 6.56419 67.3877C6.34529 67.3877 6.19374 67.3371 6.09271 67.2248C5.99729 67.1181 5.94678 66.9553 5.94678 66.7419V65.6974H6.31161V66.7082C6.31161 66.8542 6.33968 66.9553 6.39581 67.0114C6.45194 67.0732 6.53052 67.1013 6.62594 67.1013C6.70452 67.1013 6.76626 67.0901 6.81677 67.0676C6.86729 67.0451 6.90658 67.0114 6.94026 66.9721C6.97393 66.9328 6.99639 66.8879 7.00761 66.8317C7.01884 66.7756 7.03006 66.7194 7.03006 66.652V65.6974H7.3949L7.38929 67.3484Z" fill="#454545"/>
<path d="M7.78222 65.0742H8.14706V65.9109H8.15267C8.18074 65.8716 8.2088 65.8323 8.24809 65.8042C8.28177 65.7706 8.32106 65.7481 8.36596 65.7256C8.41087 65.7032 8.45577 65.6863 8.50067 65.6751C8.54558 65.6639 8.59609 65.6582 8.64099 65.6582C8.77009 65.6582 8.88235 65.6807 8.97777 65.7256C9.07319 65.7706 9.15177 65.8323 9.21912 65.9109C9.28086 65.9896 9.33138 66.085 9.35944 66.1917C9.39312 66.2984 9.40435 66.4107 9.40435 66.5343C9.40435 66.6466 9.38751 66.7533 9.35944 66.8544C9.33138 66.9554 9.28648 67.0509 9.23035 67.1295C9.17422 67.2082 9.09564 67.2699 9.01145 67.3205C8.92164 67.3654 8.81499 67.3935 8.69712 67.3935C8.64099 67.3935 8.58487 67.3879 8.52874 67.3822C8.47261 67.3766 8.42209 67.3598 8.36596 67.3373C8.31545 67.3148 8.27055 67.2868 8.22564 67.2531C8.18635 67.2194 8.14706 67.1745 8.12461 67.1183H8.119V67.3429H7.77661L7.78222 65.0742ZM9.04512 66.523C9.04512 66.45 9.0339 66.377 9.01706 66.304C9.00022 66.2366 8.97215 66.1693 8.93286 66.1187C8.89357 66.0626 8.84867 66.0233 8.78693 65.9896C8.7308 65.9559 8.66345 65.939 8.59048 65.939C8.43893 65.939 8.32106 65.9896 8.24809 66.0963C8.16951 66.203 8.13022 66.3433 8.13022 66.5174C8.13022 66.6017 8.14145 66.6747 8.15829 66.7477C8.18074 66.8207 8.2088 66.8768 8.24809 66.9274C8.28738 66.9779 8.3379 67.0172 8.39403 67.0509C8.45016 67.079 8.51751 67.0958 8.59048 67.0958C8.67467 67.0958 8.74203 67.079 8.79816 67.0453C8.85428 67.0116 8.9048 66.9667 8.93848 66.9105C8.97216 66.8544 9.00022 66.7926 9.01706 66.7252C9.03951 66.6691 9.04512 66.596 9.04512 66.523Z" fill="#454545"/>
<path d="M9.98813 66.8206C9.99936 66.9273 10.0387 67.0003 10.106 67.0453C10.179 67.0846 10.2576 67.107 10.3586 67.107C10.3923 67.107 10.4316 67.107 10.4765 67.1014C10.5214 67.0958 10.5606 67.0846 10.5999 67.0733C10.6392 67.0565 10.6673 67.0396 10.6954 67.0059C10.7178 66.9779 10.729 66.9386 10.729 66.8936C10.729 66.8487 10.7122 66.8094 10.6785 66.7813C10.6448 66.7532 10.6056 66.7252 10.555 66.7083C10.5045 66.6915 10.4484 66.6746 10.3866 66.6634C10.3249 66.6522 10.2576 66.6353 10.1958 66.6241C10.1285 66.6072 10.0611 66.5904 9.99936 66.5679C9.93762 66.5455 9.88149 66.5174 9.83097 66.4837C9.78046 66.45 9.74117 66.3995 9.7131 66.3433C9.68504 66.2872 9.6682 66.2198 9.6682 66.1355C9.6682 66.0457 9.69065 65.9727 9.73556 65.9109C9.78046 65.8491 9.83659 65.8042 9.89833 65.7649C9.96568 65.7256 10.0387 65.7031 10.1228 65.6863C10.2014 65.6694 10.28 65.6638 10.3586 65.6638C10.4428 65.6638 10.527 65.675 10.5999 65.6919C10.6785 65.7087 10.7459 65.7368 10.8076 65.7817C10.8694 65.8211 10.9199 65.8772 10.9648 65.939C11.0041 66.0008 11.0321 66.0794 11.0434 66.1748H10.6673C10.6505 66.085 10.6112 66.0288 10.5494 66.0008C10.4877 65.9727 10.4147 65.9558 10.3361 65.9558C10.3081 65.9558 10.28 65.9558 10.2463 65.9614C10.2127 65.9671 10.179 65.9727 10.1509 65.9839C10.1228 65.9951 10.0948 66.012 10.0723 66.0344C10.0499 66.0569 10.0387 66.085 10.0387 66.1243C10.0387 66.1692 10.0555 66.2029 10.0836 66.231C10.1116 66.2591 10.1565 66.2815 10.207 66.2984C10.2576 66.3152 10.3137 66.3321 10.3754 66.3433C10.4372 66.3545 10.5045 66.3714 10.5719 66.3826C10.6392 66.3995 10.701 66.4163 10.7683 66.4332C10.8301 66.4556 10.8862 66.4837 10.9367 66.5174C10.9872 66.5511 11.0265 66.6016 11.0546 66.6522C11.0826 66.7083 11.0995 66.7757 11.0995 66.8543C11.0995 66.9498 11.077 67.034 11.0321 67.1014C10.9872 67.1688 10.9311 67.225 10.8581 67.2643C10.7852 67.3036 10.7066 67.3373 10.6224 67.3541C10.5382 67.371 10.4484 67.3822 10.3642 67.3822C10.2632 67.3822 10.1621 67.371 10.0779 67.3485C9.98814 67.326 9.91517 67.2923 9.84781 67.2418C9.78607 67.1969 9.73556 67.1351 9.69627 67.0621C9.65698 66.9891 9.64014 66.9049 9.64014 66.8094H9.98813V66.8206Z" fill="#454545"/>
<path d="M11.3745 65.4168H11.7337V65.0742H11.3745V65.4168ZM11.3745 67.3485H11.7337V65.7032H11.3745V67.3485Z" fill="#454545"/>
<path d="M13.6756 67.3431H13.3332V67.1184H13.3276C13.2771 67.2139 13.2097 67.2813 13.1143 67.3262C13.0189 67.3655 12.9235 67.388 12.8168 67.388C12.6877 67.388 12.5755 67.3655 12.48 67.3206C12.3846 67.2757 12.306 67.2139 12.2387 67.1353C12.177 67.0567 12.1264 66.9668 12.0984 66.8545C12.0647 66.7478 12.0535 66.6355 12.0535 66.5119C12.0535 66.3659 12.0759 66.2368 12.1152 66.1245C12.1545 66.0178 12.2106 65.9279 12.278 65.8549C12.3453 65.7875 12.4239 65.7314 12.5081 65.7033C12.5923 65.6696 12.6821 65.6528 12.7719 65.6528C12.8224 65.6528 12.8729 65.6584 12.9291 65.6696C12.9796 65.6808 13.0301 65.6921 13.0806 65.7145C13.1311 65.737 13.176 65.7594 13.2153 65.7931C13.2546 65.8268 13.2939 65.8661 13.3164 65.9111H13.322V65.0687H13.6868L13.6756 67.3431ZM12.4127 66.54C12.4127 66.6074 12.4239 66.6804 12.4408 66.7478C12.4576 66.8152 12.4857 66.877 12.5249 66.9275C12.5642 66.978 12.6091 67.023 12.6653 67.0567C12.7214 67.0904 12.7888 67.1016 12.8673 67.1016C12.9459 67.1016 13.0189 67.0847 13.075 67.051C13.1311 67.0174 13.1817 66.9724 13.2153 66.9163C13.2546 66.8601 13.2827 66.7983 13.2995 66.731C13.3164 66.6636 13.3276 66.5906 13.3276 66.5176C13.3276 66.3379 13.2883 66.1919 13.2041 66.0908C13.1199 65.9897 13.0133 65.9391 12.8729 65.9391C12.7888 65.9391 12.7158 65.956 12.6597 65.9897C12.6035 66.0234 12.553 66.0683 12.5137 66.1245C12.48 66.1806 12.452 66.2424 12.4351 66.3154C12.4183 66.394 12.4127 66.467 12.4127 66.54Z" fill="#454545"/>
<path d="M14.0801 65.4168H14.4449V65.0742H14.0801V65.4168ZM14.0801 67.3485H14.4449V65.7032H14.0801V67.3485Z" fill="#454545"/>
<path d="M16.2128 66.9779C16.2128 67.0228 16.2184 67.0565 16.2296 67.0733C16.2408 67.0902 16.2633 67.1014 16.297 67.1014H16.3362C16.3531 67.1014 16.3699 67.1014 16.3868 67.0958V67.3485C16.3755 67.3541 16.3587 67.3597 16.3362 67.3654C16.3138 67.371 16.297 67.3766 16.2745 67.3822C16.2521 67.3878 16.2352 67.3878 16.2128 67.3934C16.1903 67.3934 16.1735 67.399 16.1566 67.399C16.0837 67.399 16.0219 67.3822 15.9714 67.3541C15.9209 67.326 15.8928 67.2755 15.876 67.1969C15.803 67.2643 15.7132 67.3148 15.6122 67.3485C15.5055 67.3822 15.4045 67.3934 15.3091 67.3934C15.2361 67.3934 15.1632 67.3822 15.0958 67.3654C15.0284 67.3429 14.9667 67.3148 14.9162 67.2755C14.8657 67.2362 14.8208 67.1857 14.7927 67.1239C14.7646 67.0621 14.7478 66.9947 14.7478 66.9105C14.7478 66.8094 14.7646 66.7252 14.8039 66.6634C14.8376 66.6016 14.8881 66.5511 14.9499 66.5118C15.0116 66.4781 15.079 66.45 15.1519 66.4332C15.2249 66.4163 15.3035 66.4051 15.3821 66.3939C15.4494 66.3826 15.5112 66.3714 15.5673 66.3658C15.6234 66.3602 15.6795 66.3489 15.7244 66.3377C15.7693 66.3265 15.8086 66.304 15.8311 66.2759C15.8592 66.2478 15.8704 66.2085 15.8704 66.158C15.8704 66.1131 15.8592 66.0738 15.8367 66.0457C15.8143 66.0176 15.7862 65.9951 15.7525 65.9783C15.7188 65.9614 15.6852 65.9502 15.6459 65.9446C15.6066 65.939 15.5673 65.939 15.5336 65.939C15.4326 65.939 15.3484 65.9615 15.281 66.0008C15.2137 66.0457 15.18 66.1075 15.1688 66.1973H14.8095C14.8152 66.0906 14.8432 66.0008 14.8881 65.9334C14.933 65.866 14.9892 65.8098 15.0565 65.7649C15.1239 65.72 15.2024 65.6919 15.2923 65.6751C15.3764 65.6582 15.4663 65.647 15.5561 65.647C15.6346 65.647 15.7188 65.6582 15.7974 65.6751C15.876 65.6919 15.9433 65.72 16.0107 65.7593C16.0724 65.7986 16.123 65.8491 16.1622 65.9053C16.2015 65.9671 16.2184 66.0401 16.2184 66.1243V66.9779H16.2128ZM15.8535 66.523C15.7974 66.5567 15.7301 66.5792 15.6515 66.5904C15.5729 66.596 15.4887 66.6072 15.4101 66.6241C15.3708 66.6297 15.3372 66.6409 15.2979 66.6522C15.2642 66.6634 15.2305 66.6802 15.2024 66.6971C15.1744 66.7196 15.1519 66.742 15.1351 66.7757C15.1183 66.8094 15.1126 66.8487 15.1126 66.8936C15.1126 66.933 15.1239 66.9666 15.1463 66.9947C15.1688 67.0228 15.1968 67.0453 15.2305 67.0621C15.2642 67.079 15.2979 67.0902 15.3372 67.0958C15.3764 67.1014 15.4101 67.107 15.4438 67.107C15.4831 67.107 15.528 67.1014 15.5729 67.0902C15.6178 67.079 15.6627 67.0621 15.702 67.034C15.7413 67.006 15.7806 66.9779 15.803 66.9386C15.8311 66.8993 15.8423 66.8487 15.8423 66.7926V66.523H15.8535Z" fill="#454545"/>
<path d="M16.6057 65.703H16.9481V66.0231H16.9537C16.9649 65.9782 16.9874 65.9333 17.0155 65.8939C17.0435 65.849 17.0828 65.8153 17.1277 65.776C17.1726 65.7423 17.2175 65.7142 17.2736 65.6918C17.3242 65.6693 17.3803 65.6581 17.4364 65.6581C17.4813 65.6581 17.5094 65.6581 17.5262 65.6637C17.5431 65.6637 17.5599 65.6693 17.5767 65.6693V66.0175C17.5487 66.0119 17.5262 66.0119 17.4982 66.0063C17.4701 66.0006 17.4476 66.0006 17.4196 66.0006C17.3578 66.0006 17.3017 66.0119 17.2456 66.0343C17.1895 66.0568 17.1445 66.0961 17.1053 66.141C17.066 66.186 17.0323 66.2477 17.0098 66.3151C16.9874 66.3881 16.9762 66.4667 16.9762 66.5566V67.3372H16.6113L16.6057 65.703Z" fill="#454545"/>
<path d="M17.5427 65.7032H17.9412L18.3678 66.9331H18.3734L18.7888 65.7032H19.1648L18.525 67.4385C18.4969 67.5115 18.4688 67.5845 18.4352 67.6519C18.4071 67.7193 18.3734 67.781 18.3285 67.8316C18.2892 67.8821 18.2331 67.927 18.1714 67.9551C18.1096 67.9832 18.031 68 17.9356 68C17.8514 68 17.7672 67.9944 17.683 67.9832V67.6799C17.7111 67.6856 17.7392 67.6912 17.7672 67.6968C17.7953 67.7024 17.8234 67.7024 17.8514 67.7024C17.8963 67.7024 17.93 67.6968 17.9581 67.6856C17.9861 67.6743 18.0086 67.6575 18.0254 67.6406C18.0423 67.6182 18.0591 67.5957 18.0703 67.5676C18.0816 67.5396 18.0928 67.5059 18.104 67.4722L18.1433 67.343L17.5427 65.7032Z" fill="#454545"/>
<path d="M21.0119 67.3878C20.8828 67.3878 20.7649 67.3654 20.6582 67.3204C20.5572 67.2755 20.4674 67.2193 20.4001 67.1407C20.3271 67.0621 20.2766 66.9723 20.2373 66.8656C20.198 66.7589 20.1812 66.6409 20.1812 66.5174C20.1812 66.3939 20.198 66.2759 20.2373 66.1692C20.2766 66.0625 20.3271 65.9727 20.4001 65.8941C20.473 65.8154 20.5572 65.7593 20.6582 65.7144C20.7593 65.6694 20.8771 65.647 21.0119 65.647C21.141 65.647 21.2588 65.6694 21.3655 65.7144C21.4665 65.7593 21.5563 65.8154 21.6237 65.8941C21.6966 65.9727 21.7471 66.0625 21.7864 66.1692C21.8257 66.2759 21.8426 66.3939 21.8426 66.5174C21.8426 66.6466 21.8257 66.7589 21.7864 66.8656C21.7471 66.9723 21.6966 67.0621 21.6237 67.1407C21.5507 67.2193 21.4665 67.2755 21.3655 67.3204C21.2588 67.371 21.141 67.3878 21.0119 67.3878ZM21.0119 67.107C21.0904 67.107 21.1634 67.0902 21.2195 67.0565C21.2813 67.0228 21.3262 66.9779 21.3655 66.9217C21.4048 66.8656 21.4328 66.8038 21.4497 66.7364C21.4665 66.669 21.4777 66.596 21.4777 66.523C21.4777 66.45 21.4665 66.3826 21.4497 66.3152C21.4328 66.2422 21.4048 66.1805 21.3655 66.1299C21.3262 66.0738 21.2813 66.0344 21.2195 65.9951C21.1578 65.9614 21.0904 65.9446 21.0119 65.9446C20.9333 65.9446 20.8603 65.9614 20.8042 65.9951C20.7424 66.0288 20.6975 66.0738 20.6582 66.1299C20.619 66.1861 20.5909 66.2478 20.5741 66.3152C20.5572 66.3826 20.546 66.4556 20.546 66.523C20.546 66.596 20.5572 66.6634 20.5741 66.7364C20.5909 66.8038 20.619 66.8656 20.6582 66.9217C20.6975 66.9779 20.7424 67.0228 20.8042 67.0565C20.8603 67.0846 20.9277 67.107 21.0119 67.107Z" fill="#454545"/>
<path d="M21.9827 65.7032H22.2521V65.5684C22.2521 65.4673 22.2633 65.3775 22.2914 65.3157C22.3194 65.2539 22.3531 65.2034 22.3924 65.1641C22.4317 65.1304 22.4822 65.1079 22.5383 65.0967C22.5945 65.0854 22.6506 65.0798 22.7067 65.0798C22.8246 65.0798 22.9088 65.0855 22.9593 65.1023V65.3831C22.9369 65.3775 22.9088 65.3718 22.8863 65.3662C22.8583 65.3606 22.8302 65.3606 22.7909 65.3606C22.7404 65.3606 22.7011 65.3718 22.6674 65.3943C22.6338 65.4168 22.6169 65.4617 22.6169 65.5291V65.6976H22.9256V65.9671H22.6169V67.3429H22.2521V65.9671H21.9827V65.7032Z" fill="#454545"/>
<path d="M24.0764 65.0742H24.4749V66.1075L25.4853 65.0742H25.9736L25.0699 65.9839L26.0409 67.3485H25.5414L24.8005 66.2591L24.4749 66.5848V67.3485H24.0764V65.0742Z" fill="#454545"/>
<path d="M27.6461 67.3486H27.2925V67.1184H27.2869C27.242 67.2026 27.1746 67.27 27.0904 67.3149C27.0006 67.3655 26.9108 67.3879 26.821 67.3879C26.6021 67.3879 26.4506 67.3374 26.3495 67.2251C26.2541 67.1184 26.2036 66.9555 26.2036 66.7421V65.7032H26.5685V66.7141C26.5685 66.8601 26.5965 66.9611 26.6526 67.0173C26.7088 67.0791 26.7874 67.1071 26.8828 67.1071C26.9614 67.1071 27.0231 67.0959 27.0736 67.0735C27.1241 67.051 27.1634 67.0173 27.1971 66.978C27.2308 66.9387 27.2532 66.8938 27.2644 66.8376C27.2757 66.7814 27.2869 66.7253 27.2869 66.6579V65.7032H27.6517L27.6461 67.3486Z" fill="#454545"/>
<path d="M27.8818 65.7032H28.2635L28.5834 66.9275H28.5891L28.8978 65.7032H29.2626L29.5601 66.9275H29.5657L29.9025 65.7032H30.2673L29.7565 67.343H29.3805L29.0774 66.1244H29.0718L28.7687 67.343H28.387L27.8818 65.7032Z" fill="#454545"/>
<path d="M31.8783 66.9779C31.8783 67.0228 31.8839 67.0565 31.8951 67.0733C31.9064 67.0902 31.9288 67.1014 31.9625 67.1014H32.0018C32.0186 67.1014 32.0354 67.1014 32.0523 67.0958V67.3485C32.0411 67.3541 32.0242 67.3597 32.0018 67.3654C31.9793 67.371 31.9625 67.3766 31.94 67.3822C31.9176 67.3878 31.9007 67.3878 31.8783 67.3934C31.8558 67.3934 31.839 67.399 31.8222 67.399C31.7492 67.399 31.6875 67.3822 31.6369 67.3541C31.5864 67.326 31.5584 67.2755 31.5415 67.1969C31.4685 67.2643 31.3787 67.3148 31.2777 67.3485C31.1711 67.3822 31.07 67.3934 30.9746 67.3934C30.9017 67.3934 30.8287 67.3822 30.7613 67.3654C30.694 67.3429 30.6322 67.3148 30.5817 67.2755C30.5312 67.2362 30.4863 67.1857 30.4582 67.1239C30.4246 67.0621 30.4133 66.9947 30.4133 66.9105C30.4133 66.8094 30.4302 66.7252 30.4695 66.6634C30.5031 66.6016 30.5537 66.5511 30.6154 66.5118C30.6771 66.4781 30.7445 66.45 30.8175 66.4332C30.8904 66.4163 30.969 66.4051 31.0476 66.3939C31.1149 66.3826 31.1767 66.3714 31.2328 66.3658C31.2946 66.3602 31.3451 66.3489 31.39 66.3377C31.4349 66.3265 31.4742 66.304 31.4966 66.2759C31.5247 66.2478 31.5359 66.2085 31.5359 66.158C31.5359 66.1131 31.5247 66.0738 31.5022 66.0457C31.4798 66.0176 31.4517 65.9951 31.418 65.9783C31.3844 65.9614 31.3507 65.9502 31.3114 65.9446C31.2721 65.939 31.2328 65.939 31.1991 65.939C31.0981 65.939 31.0139 65.9615 30.9466 66.0008C30.8792 66.0457 30.8455 66.1075 30.8343 66.1973H30.4751C30.4807 66.0906 30.5087 66.0008 30.5537 65.9334C30.5986 65.866 30.6547 65.8098 30.722 65.7649C30.7894 65.72 30.868 65.6919 30.9578 65.6751C31.042 65.6582 31.1318 65.647 31.2272 65.647C31.3058 65.647 31.3844 65.6582 31.4629 65.6751C31.5415 65.6919 31.6089 65.72 31.6762 65.7593C31.738 65.7986 31.7885 65.8491 31.8278 65.9053C31.8671 65.9671 31.8839 66.0401 31.8839 66.1243V66.9779H31.8783ZM31.5135 66.523C31.4573 66.5567 31.39 66.5792 31.3114 66.5904C31.2328 66.596 31.1486 66.6072 31.07 66.6241C31.0307 66.6297 30.9971 66.6409 30.9578 66.6522C30.9241 66.6634 30.8904 66.6802 30.8624 66.6971C30.8343 66.7196 30.8118 66.742 30.795 66.7757C30.7782 66.8094 30.7726 66.8487 30.7726 66.8936C30.7726 66.933 30.7838 66.9666 30.8062 66.9947C30.8287 67.0228 30.8567 67.0453 30.8904 67.0621C30.9241 67.079 30.9578 67.0902 30.9971 67.0958C31.0364 67.1014 31.07 67.107 31.1037 67.107C31.143 67.107 31.1879 67.1014 31.2328 67.0902C31.2777 67.079 31.3226 67.0621 31.3619 67.034C31.4012 67.006 31.4405 66.9779 31.4629 66.9386C31.491 66.8993 31.5022 66.8487 31.5022 66.7926V66.523H31.5135Z" fill="#454545"/>
<path d="M32.2766 65.4168H32.6414V65.0742H32.2766V65.4168ZM32.2766 67.3485H32.6414V65.7032H32.2766V67.3485Z" fill="#454545"/>
<path d="M32.8716 65.7032H33.1466V65.209H33.5114V65.7032H33.837V65.9727H33.5114V66.8487C33.5114 66.8881 33.5114 66.9217 33.5171 66.9498C33.5227 66.9779 33.5283 67.0004 33.5395 67.0172C33.5507 67.0341 33.5676 67.0509 33.59 67.0621C33.6125 67.0734 33.6462 67.079 33.6854 67.079C33.7135 67.079 33.736 67.079 33.764 67.079C33.7921 67.079 33.8145 67.0734 33.8426 67.0678V67.3485C33.8033 67.3542 33.764 67.3598 33.7247 67.3598C33.6854 67.3654 33.6462 67.3654 33.6069 67.3654C33.5114 67.3654 33.4329 67.3541 33.3767 67.3373C33.3206 67.3205 33.2757 67.2924 33.242 67.2587C33.2084 67.225 33.1859 67.1801 33.1747 67.1239C33.1634 67.0734 33.1578 67.0116 33.1522 66.9442V65.9727H32.8772V65.7032H32.8716Z" fill="#454545"/>
<path d="M35.0271 65.0742H36.0318C36.1946 65.0742 36.3237 65.0967 36.4247 65.1416C36.5257 65.1865 36.6043 65.2483 36.6605 65.3157C36.7166 65.3831 36.7559 65.4617 36.7727 65.5459C36.7952 65.6302 36.8008 65.7032 36.8008 65.7762C36.8008 65.8436 36.7896 65.9222 36.7727 66.0064C36.7503 66.0906 36.7166 66.1636 36.6605 66.231C36.6043 66.304 36.5257 66.3602 36.4247 66.4051C36.3237 66.45 36.1946 66.4725 36.0318 66.4725H35.4256V67.3429H35.0271V65.0742ZM35.4256 66.1524H36.0094C36.0543 66.1524 36.0992 66.1468 36.1441 66.1356C36.189 66.1243 36.2339 66.1019 36.2732 66.0738C36.3125 66.0457 36.3461 66.0064 36.3686 65.9615C36.391 65.9166 36.4079 65.8548 36.4079 65.7818C36.4079 65.7088 36.3966 65.647 36.3742 65.5965C36.3517 65.5459 36.3237 65.5066 36.29 65.4785C36.2563 65.4505 36.2114 65.4336 36.1665 65.4224C36.1216 65.4112 36.0711 65.4055 36.015 65.4055H35.4256V66.1524Z" fill="#454545"/>
<path d="M37.3788 66.6185C37.3788 66.6803 37.39 66.742 37.4068 66.8038C37.4237 66.8656 37.4517 66.9161 37.4854 66.961C37.5191 67.006 37.5696 67.0397 37.6201 67.0677C37.6762 67.0958 37.7436 67.107 37.8166 67.107C37.9232 67.107 38.0074 67.0846 38.0748 67.0397C38.1365 66.9947 38.187 66.9273 38.2207 66.8319H38.5631C38.5406 66.9217 38.5126 67.0003 38.462 67.0677C38.4171 67.1351 38.361 67.1969 38.2937 67.2418C38.2263 67.2867 38.1533 67.326 38.0748 67.3485C37.9906 67.371 37.9064 67.3822 37.8166 67.3822C37.6875 67.3822 37.5752 67.3597 37.4742 67.3204C37.3731 67.2755 37.2889 67.2193 37.2216 67.1407C37.1542 67.0621 37.1037 66.9723 37.0644 66.8656C37.0308 66.7589 37.0139 66.6409 37.0139 66.5174C37.0139 66.3995 37.0308 66.2928 37.07 66.1861C37.1093 66.0794 37.1599 65.9895 37.2272 65.9109C37.2946 65.8323 37.3788 65.7705 37.4742 65.72C37.5696 65.6751 37.6818 65.647 37.8053 65.647C37.9344 65.647 38.0523 65.6751 38.1533 65.7312C38.2544 65.7874 38.3386 65.8548 38.4115 65.9446C38.4789 66.0345 38.5294 66.1355 38.5575 66.2535C38.5855 66.3658 38.5967 66.4893 38.5799 66.6129H37.3788V66.6185ZM38.2263 66.377C38.2207 66.3208 38.2095 66.2647 38.1926 66.2141C38.1702 66.1636 38.1477 66.1131 38.1084 66.0738C38.0747 66.0344 38.0298 66.0008 37.9793 65.9783C37.9288 65.9558 37.8727 65.939 37.8109 65.939C37.7492 65.939 37.6875 65.9502 37.6369 65.9727C37.5864 65.9951 37.5415 66.0232 37.5022 66.0681C37.4686 66.1075 37.4349 66.1524 37.4124 66.2085C37.39 66.2591 37.3788 66.3208 37.3788 66.377H38.2263Z" fill="#454545"/>
<path d="M38.698 65.7032H38.973V65.209H39.3379V65.7032H39.6634V65.9727H39.3379V66.8487C39.3379 66.8881 39.3379 66.9217 39.3435 66.9498C39.3491 66.9779 39.3547 67.0004 39.3659 67.0172C39.3772 67.0341 39.394 67.0509 39.4164 67.0621C39.4389 67.0734 39.4726 67.079 39.5119 67.079C39.5399 67.079 39.5624 67.079 39.5904 67.079C39.6185 67.079 39.641 67.0734 39.669 67.0678V67.3485C39.6297 67.3542 39.5904 67.3598 39.5512 67.3598C39.5119 67.3654 39.4726 67.3654 39.4333 67.3654C39.3379 67.3654 39.2593 67.3541 39.2032 67.3373C39.147 67.3205 39.1021 67.2924 39.0684 67.2587C39.0348 67.225 39.0123 67.1801 39.0011 67.1239C38.9899 67.0734 38.9843 67.0116 38.9786 66.9442V65.9727H38.7036V65.7032H38.698Z" fill="#454545"/>
<path d="M39.9216 65.703H40.264V66.0231H40.2696C40.2809 65.9782 40.3033 65.9333 40.3314 65.8939C40.3594 65.849 40.3987 65.8153 40.4436 65.776C40.4885 65.7423 40.5334 65.7142 40.5896 65.6918C40.6401 65.6693 40.6962 65.6581 40.7523 65.6581C40.7972 65.6581 40.8253 65.6581 40.8421 65.6637C40.859 65.6637 40.8758 65.6693 40.8927 65.6693V66.0175C40.8646 66.0119 40.8421 66.0119 40.8141 66.0063C40.786 66.0006 40.7636 66.0006 40.7355 66.0006C40.6738 66.0006 40.6176 66.0119 40.5615 66.0343C40.5054 66.0568 40.4605 66.0961 40.4212 66.141C40.3819 66.186 40.3482 66.2477 40.3258 66.3151C40.3033 66.3881 40.2921 66.4667 40.2921 66.5566V67.3372H39.9272V65.703H39.9216Z" fill="#454545"/>
<path d="M41.7401 67.3878C41.611 67.3878 41.4932 67.3654 41.3865 67.3204C41.2855 67.2755 41.1957 67.2193 41.1283 67.1407C41.0554 67.0621 41.0048 66.9723 40.9656 66.8656C40.9263 66.7589 40.9094 66.6409 40.9094 66.5174C40.9094 66.3939 40.9263 66.2759 40.9656 66.1692C41.0048 66.0625 41.0554 65.9727 41.1283 65.8941C41.2013 65.8154 41.2855 65.7593 41.3865 65.7144C41.4876 65.6694 41.6054 65.647 41.7401 65.647C41.8692 65.647 41.9871 65.6694 42.0937 65.7144C42.1948 65.7593 42.2846 65.8154 42.3519 65.8941C42.4249 65.9727 42.4754 66.0625 42.5147 66.1692C42.554 66.2759 42.5708 66.3939 42.5708 66.5174C42.5708 66.6466 42.554 66.7589 42.5147 66.8656C42.4754 66.9723 42.4249 67.0621 42.3519 67.1407C42.279 67.2193 42.1948 67.2755 42.0937 67.3204C41.9871 67.371 41.8692 67.3878 41.7401 67.3878ZM41.7401 67.107C41.8187 67.107 41.8917 67.0902 41.9478 67.0565C42.0039 67.0228 42.0545 66.9779 42.0937 66.9217C42.133 66.8656 42.1611 66.8038 42.1779 66.7364C42.1948 66.669 42.206 66.596 42.206 66.523C42.206 66.45 42.1948 66.3826 42.1779 66.3152C42.1611 66.2422 42.133 66.1805 42.0937 66.1299C42.0545 66.0738 42.0039 66.0344 41.9478 65.9951C41.8861 65.9614 41.8187 65.9446 41.7401 65.9446C41.6616 65.9446 41.5886 65.9614 41.5325 65.9951C41.4707 66.0288 41.4258 66.0738 41.3865 66.1299C41.3472 66.1861 41.3192 66.2478 41.3023 66.3152C41.2855 66.3826 41.2743 66.4556 41.2743 66.523C41.2743 66.596 41.2855 66.6634 41.3023 66.7364C41.3192 66.8038 41.3472 66.8656 41.3865 66.9217C41.4258 66.9779 41.4763 67.0228 41.5325 67.0565C41.5886 67.0846 41.6559 67.107 41.7401 67.107Z" fill="#454545"/>
<path d="M43.2442 65.0742H42.8794V67.3429H43.2442V65.0742Z" fill="#454545"/>
<path d="M43.9178 66.6185C43.9178 66.6803 43.929 66.742 43.9459 66.8038C43.9627 66.8656 43.9908 66.9161 44.0245 66.961C44.0581 67.006 44.1087 67.0397 44.1592 67.0677C44.2153 67.0958 44.277 67.107 44.3556 67.107C44.4623 67.107 44.5465 67.0846 44.6138 67.0397C44.6756 66.9947 44.7261 66.9273 44.7597 66.8319H45.1021C45.0797 66.9217 45.0516 67.0003 45.0011 67.0677C44.9562 67.1351 44.9001 67.1969 44.8327 67.2418C44.7654 67.2867 44.6924 67.326 44.6138 67.3485C44.5296 67.371 44.4454 67.3822 44.3556 67.3822C44.2265 67.3822 44.1143 67.3597 44.0132 67.3204C43.9122 67.2755 43.828 67.2193 43.7607 67.1407C43.6933 67.0621 43.6428 66.9723 43.6035 66.8656C43.5698 66.7589 43.553 66.6409 43.553 66.5174C43.553 66.3995 43.5698 66.2928 43.6091 66.1861C43.6484 66.0794 43.6989 65.9895 43.7663 65.9109C43.8336 65.8323 43.9178 65.7705 44.0132 65.72C44.1087 65.6751 44.2209 65.647 44.3444 65.647C44.4735 65.647 44.5914 65.6751 44.6924 65.7312C44.7934 65.7874 44.8776 65.8548 44.9506 65.9446C45.0179 66.0345 45.0685 66.1355 45.0965 66.2535C45.1246 66.3658 45.1358 66.4893 45.119 66.6129H43.9178V66.6185ZM44.7654 66.377C44.7597 66.3208 44.7485 66.2647 44.7317 66.2141C44.7092 66.1636 44.6868 66.1131 44.6475 66.0738C44.6138 66.0344 44.5689 66.0008 44.5184 65.9783C44.4679 65.9558 44.4117 65.939 44.35 65.939C44.2883 65.939 44.2265 65.9502 44.176 65.9727C44.1255 65.9951 44.0806 66.0232 44.0413 66.0681C44.0076 66.1075 43.9739 66.1524 43.9515 66.2085C43.929 66.2591 43.9178 66.3208 43.9178 66.377H44.7654Z" fill="#454545"/>
<path d="M46.8478 67.3484H46.4942V67.1181H46.4886C46.4437 67.2024 46.3763 67.2698 46.2921 67.3147C46.2023 67.3652 46.1125 67.3877 46.0227 67.3877C45.8038 67.3877 45.6522 67.3371 45.5512 67.2248C45.4558 67.1181 45.4053 66.9553 45.4053 66.7419V65.6974H45.7701V66.7082C45.7701 66.8542 45.7982 66.9553 45.8543 67.0114C45.9104 67.0732 45.989 67.1013 46.0844 67.1013C46.163 67.1013 46.2248 67.0901 46.2753 67.0676C46.3258 67.0451 46.3651 67.0114 46.3988 66.9721C46.4324 66.9328 46.4549 66.8879 46.4661 66.8317C46.4829 66.7756 46.4886 66.7194 46.4886 66.652V65.6974H46.8534V67.3484H46.8478Z" fill="#454545"/>
<path d="M47.2295 65.703H47.5719V65.9332H47.5831C47.6112 65.8939 47.6392 65.8546 47.6729 65.8209C47.7066 65.7872 47.7403 65.7592 47.7796 65.7367C47.8188 65.7142 47.8637 65.6974 47.9143 65.6805C47.9648 65.6693 48.0209 65.6581 48.0883 65.6581C48.1893 65.6581 48.2791 65.6805 48.3689 65.7255C48.4531 65.7704 48.5148 65.8378 48.5541 65.9332C48.6159 65.849 48.6888 65.7816 48.7674 65.7311C48.846 65.6805 48.947 65.6581 49.0705 65.6581C49.2445 65.6581 49.3792 65.6974 49.4746 65.7872C49.5701 65.8715 49.6206 66.0175 49.6206 66.214V67.3484H49.2557V66.3881C49.2557 66.3207 49.2557 66.2646 49.2501 66.2084C49.2445 66.1523 49.2333 66.1073 49.2108 66.068C49.1884 66.0287 49.1603 66.0006 49.121 65.9782C49.0817 65.9557 49.0256 65.9445 48.9583 65.9445C48.8348 65.9445 48.745 65.9838 48.6888 66.0568C48.6327 66.1354 48.6046 66.2421 48.6046 66.3825V67.3428H48.2398V66.287C48.2398 66.1747 48.2174 66.0849 48.1781 66.0287C48.1388 65.9726 48.0602 65.9389 47.9536 65.9389C47.9087 65.9389 47.8637 65.9501 47.8188 65.9669C47.7739 65.9838 47.7347 66.0119 47.7066 66.0512C47.6729 66.0849 47.6448 66.1298 47.628 66.186C47.6056 66.2365 47.5943 66.2983 47.5943 66.3657V67.3428H47.2351V65.703H47.2295Z" fill="#454545"/>
<path d="M52.4607 65.7986C52.4439 65.7312 52.4214 65.6751 52.3934 65.6189C52.3653 65.5628 52.326 65.5179 52.2811 65.4785C52.2362 65.4392 52.1801 65.4055 52.1183 65.3831C52.0566 65.3606 51.9836 65.3494 51.8994 65.3494C51.776 65.3494 51.6749 65.3719 51.5851 65.4224C51.4953 65.4729 51.4224 65.5347 51.3718 65.6189C51.3157 65.7032 51.2764 65.793 51.2484 65.8997C51.2203 66.0064 51.2091 66.1075 51.2091 66.2198C51.2091 66.3265 51.2203 66.4332 51.2484 66.5399C51.2764 66.641 51.3157 66.7365 51.3718 66.8207C51.428 66.9049 51.5009 66.9667 51.5851 67.0172C51.6749 67.0678 51.776 67.0902 51.8994 67.0902C51.9893 67.0902 52.0678 67.0734 52.1352 67.0453C52.2025 67.0172 52.2587 66.9723 52.3092 66.9161C52.3597 66.86 52.399 66.7982 52.4214 66.7252C52.4495 66.6522 52.4663 66.5736 52.4776 66.495H52.8649C52.8536 66.6298 52.8256 66.7533 52.7751 66.8656C52.7245 66.9779 52.6572 67.0734 52.573 67.1576C52.4888 67.2419 52.3878 67.3036 52.2755 67.3486C52.1633 67.3935 52.0342 67.4159 51.8994 67.4159C51.7311 67.4159 51.5795 67.3879 51.4448 67.3205C51.3101 67.2587 51.1978 67.1745 51.1024 67.0622C51.007 66.9555 50.9396 66.8263 50.8891 66.6859C50.8386 66.5399 50.8162 66.3883 50.8162 66.2254C50.8162 66.0626 50.8386 65.911 50.8891 65.7649C50.9396 65.6189 51.0126 65.4954 51.1024 65.3887C51.1978 65.282 51.3101 65.1922 51.4448 65.1304C51.5795 65.0686 51.7311 65.0349 51.8994 65.0349C52.0285 65.0349 52.1464 65.0518 52.2587 65.0855C52.3709 65.1191 52.472 65.1697 52.5562 65.2371C52.6403 65.3045 52.7133 65.3831 52.7638 65.4785C52.8143 65.574 52.848 65.6807 52.8649 65.8043H52.4607V65.7986Z" fill="#454545"/>
<path d="M53.9254 67.3878C53.7963 67.3878 53.6785 67.3654 53.5718 67.3204C53.4708 67.2755 53.381 67.2193 53.3136 67.1407C53.2407 67.0621 53.1901 66.9723 53.1509 66.8656C53.1116 66.7589 53.0947 66.6409 53.0947 66.5174C53.0947 66.3939 53.1116 66.2759 53.1509 66.1692C53.1901 66.0625 53.2407 65.9727 53.3136 65.8941C53.3866 65.8154 53.4708 65.7593 53.5718 65.7144C53.6729 65.6694 53.7907 65.647 53.9254 65.647C54.0545 65.647 54.1724 65.6694 54.279 65.7144C54.3801 65.7593 54.4699 65.8154 54.5372 65.8941C54.6102 65.9727 54.6607 66.0625 54.7 66.1692C54.7393 66.2759 54.7561 66.3939 54.7561 66.5174C54.7561 66.6466 54.7393 66.7589 54.7 66.8656C54.6607 66.9723 54.6102 67.0621 54.5372 67.1407C54.4643 67.2193 54.3801 67.2755 54.279 67.3204C54.1724 67.371 54.0545 67.3878 53.9254 67.3878ZM53.9254 67.107C54.004 67.107 54.077 67.0902 54.1331 67.0565C54.1949 67.0228 54.2398 66.9779 54.279 66.9217C54.3183 66.8656 54.3464 66.8038 54.3632 66.7364C54.3801 66.669 54.3913 66.596 54.3913 66.523C54.3913 66.45 54.3801 66.3826 54.3632 66.3152C54.3464 66.2422 54.3183 66.1805 54.279 66.1299C54.2398 66.0738 54.1949 66.0344 54.1331 65.9951C54.0714 65.9614 54.004 65.9446 53.9254 65.9446C53.8469 65.9446 53.7739 65.9614 53.7178 65.9951C53.656 66.0288 53.6111 66.0738 53.5718 66.1299C53.5325 66.1861 53.5045 66.2478 53.4876 66.3152C53.4708 66.3826 53.4596 66.4556 53.4596 66.523C53.4596 66.596 53.4708 66.6634 53.4876 66.7364C53.5045 66.8038 53.5325 66.8656 53.5718 66.9217C53.6111 66.9779 53.656 67.0228 53.7178 67.0565C53.7739 67.0846 53.8469 67.107 53.9254 67.107Z" fill="#454545"/>
<path d="M55.0596 65.703H55.402V66.0231H55.4076C55.4188 65.9782 55.4412 65.9333 55.4693 65.8939C55.4974 65.849 55.5367 65.8153 55.5816 65.776C55.6265 65.7423 55.6714 65.7142 55.7275 65.6918C55.778 65.6693 55.8341 65.6581 55.8903 65.6581C55.9352 65.6581 55.9632 65.6581 55.9801 65.6637C55.9969 65.6637 56.0138 65.6693 56.0306 65.6693V66.0175C56.0025 66.0119 55.9801 66.0119 55.952 66.0063C55.924 66.0006 55.9015 66.0006 55.8734 66.0006C55.8117 66.0006 55.7556 66.0119 55.6994 66.0343C55.6433 66.0568 55.5984 66.0961 55.5591 66.141C55.5198 66.186 55.4861 66.2477 55.4637 66.3151C55.4412 66.3881 55.43 66.4667 55.43 66.5566V67.3372H55.0596V65.703Z" fill="#454545"/>
<path d="M56.1877 65.703H56.5301V65.9276H56.5357C56.5863 65.8322 56.6592 65.7648 56.749 65.7199C56.8388 65.6805 56.9399 65.6581 57.0465 65.6581C57.1756 65.6581 57.2879 65.6805 57.3833 65.7255C57.4787 65.7704 57.5573 65.8322 57.6246 65.9108C57.6864 65.9894 57.7369 66.0849 57.765 66.1916C57.7986 66.2983 57.8099 66.4106 57.8099 66.5341C57.8099 66.6464 57.793 66.7531 57.765 66.8542C57.7369 66.9553 57.692 67.0508 57.6359 67.1294C57.5797 67.208 57.5012 67.2754 57.417 67.3203C57.3272 67.3652 57.2205 67.3933 57.1026 67.3933C57.0521 67.3933 56.996 67.3877 56.9455 67.3765C56.895 67.3652 56.8445 67.354 56.7939 67.3315C56.7434 67.3091 56.6985 67.2866 56.6592 67.2529C56.6199 67.2192 56.5806 67.1799 56.5582 67.135H56.5526V67.9549H56.1877V65.703ZM57.4506 66.5229C57.4506 66.4499 57.4394 66.3769 57.4226 66.3039C57.4057 66.2365 57.3777 66.1747 57.3384 66.1186C57.2991 66.0624 57.2542 66.0231 57.1925 65.9894C57.1363 65.9557 57.069 65.9389 56.996 65.9389C56.8445 65.9389 56.7266 65.9894 56.6536 66.0961C56.575 66.2028 56.5357 66.3432 56.5357 66.5173C56.5357 66.6015 56.547 66.6801 56.5638 66.7475C56.5863 66.8205 56.6143 66.8823 56.6536 66.9328C56.6929 66.9834 56.7434 67.0227 56.7996 67.0508C56.8557 67.0788 56.923 67.0957 56.996 67.0957C57.0802 67.0957 57.1475 67.0788 57.2037 67.0451C57.2598 67.0115 57.3103 66.9665 57.344 66.916C57.3777 66.8598 57.4057 66.7981 57.4226 66.7307C57.445 66.6689 57.4506 66.5959 57.4506 66.5229Z" fill="#454545"/>
<path d="M58.8707 67.3878C58.7417 67.3878 58.6238 67.3654 58.5171 67.3204C58.4161 67.2755 58.3263 67.2193 58.2589 67.1407C58.186 67.0621 58.1355 66.9723 58.0962 66.8656C58.0569 66.7589 58.04 66.6409 58.04 66.5174C58.04 66.3939 58.0569 66.2759 58.0962 66.1692C58.1355 66.0625 58.186 65.9727 58.2589 65.8941C58.3319 65.8154 58.4161 65.7593 58.5171 65.7144C58.6182 65.6694 58.736 65.647 58.8707 65.647C58.9998 65.647 59.1177 65.6694 59.2244 65.7144C59.3254 65.7593 59.4152 65.8154 59.4826 65.8941C59.5555 65.9727 59.606 66.0625 59.6453 66.1692C59.6846 66.2759 59.7014 66.3939 59.7014 66.5174C59.7014 66.6466 59.6846 66.7589 59.6453 66.8656C59.606 66.9723 59.5555 67.0621 59.4826 67.1407C59.4096 67.2193 59.3254 67.2755 59.2244 67.3204C59.1177 67.371 59.0055 67.3878 58.8707 67.3878ZM58.8707 67.107C58.9493 67.107 59.0223 67.0902 59.0784 67.0565C59.1346 67.0228 59.1851 66.9779 59.2244 66.9217C59.2636 66.8656 59.2917 66.8038 59.3085 66.7364C59.3254 66.669 59.3366 66.596 59.3366 66.523C59.3366 66.45 59.3254 66.3826 59.3085 66.3152C59.2917 66.2422 59.2636 66.1805 59.2244 66.1299C59.1851 66.0738 59.1346 66.0344 59.0784 65.9951C59.0167 65.9614 58.9493 65.9446 58.8707 65.9446C58.7922 65.9446 58.7192 65.9614 58.6631 65.9951C58.6013 66.0288 58.5564 66.0738 58.5171 66.1299C58.4778 66.1861 58.4498 66.2478 58.4329 66.3152C58.4161 66.3826 58.4049 66.4556 58.4049 66.523C58.4049 66.596 58.4161 66.6634 58.4329 66.7364C58.4498 66.8038 58.4778 66.8656 58.5171 66.9217C58.5564 66.9779 58.6013 67.0228 58.6631 67.0565C58.7192 67.0846 58.7922 67.107 58.8707 67.107Z" fill="#454545"/>
<path d="M60.0044 65.703H60.3468V66.0231H60.3524C60.3636 65.9782 60.3861 65.9333 60.4141 65.8939C60.4422 65.849 60.4815 65.8153 60.5264 65.776C60.5713 65.7423 60.6162 65.7142 60.6723 65.6918C60.7228 65.6693 60.779 65.6581 60.8351 65.6581C60.88 65.6581 60.9081 65.6581 60.9249 65.6637C60.9417 65.6637 60.9586 65.6693 60.9754 65.6693V66.0175C60.9474 66.0119 60.9249 66.0119 60.8968 66.0063C60.8688 66.0006 60.8463 66.0006 60.8183 66.0006C60.7565 66.0006 60.7004 66.0119 60.6443 66.0343C60.5881 66.0568 60.5432 66.0961 60.5039 66.141C60.4647 66.186 60.431 66.2477 60.4085 66.3151C60.3861 66.3881 60.3748 66.4667 60.3748 66.5566V67.3372H60.01V65.703H60.0044Z" fill="#454545"/>
<path d="M62.4965 66.9779C62.4965 67.0228 62.5021 67.0565 62.5133 67.0733C62.5245 67.0902 62.547 67.1014 62.5806 67.1014H62.6199C62.6368 67.1014 62.6536 67.1014 62.6705 67.0958V67.3485C62.6592 67.3541 62.6424 67.3597 62.6199 67.3654C62.5975 67.371 62.5806 67.3766 62.5582 67.3822C62.5357 67.3878 62.5189 67.3878 62.4965 67.3934C62.474 67.3934 62.4572 67.399 62.4403 67.399C62.3674 67.399 62.3056 67.3822 62.2551 67.3541C62.2046 67.326 62.1765 67.2755 62.1597 67.1969C62.0867 67.2643 61.9969 67.3148 61.8959 67.3485C61.7892 67.3822 61.6882 67.3934 61.5928 67.3934C61.5198 67.3934 61.4468 67.3822 61.3795 67.3654C61.3121 67.3429 61.2504 67.3148 61.1999 67.2755C61.1494 67.2362 61.1045 67.1857 61.0764 67.1239C61.0483 67.0621 61.0315 66.9947 61.0315 66.9105C61.0315 66.8094 61.0483 66.7252 61.0876 66.6634C61.1213 66.6016 61.1718 66.5511 61.2336 66.5118C61.2953 66.4781 61.3627 66.45 61.4356 66.4332C61.5086 66.4163 61.5872 66.4051 61.6657 66.3939C61.7331 66.3826 61.7948 66.3714 61.851 66.3658C61.9127 66.3602 61.9632 66.3489 62.0081 66.3377C62.053 66.3265 62.0923 66.304 62.1148 66.2759C62.1428 66.2478 62.1541 66.2085 62.1541 66.158C62.1541 66.1131 62.1428 66.0738 62.1204 66.0457C62.0979 66.0176 62.0699 65.9951 62.0362 65.9783C62.0025 65.9614 61.9688 65.9502 61.9296 65.9446C61.8903 65.939 61.851 65.939 61.8173 65.939C61.7163 65.939 61.6321 65.9615 61.5647 66.0008C61.4974 66.0457 61.4637 66.1075 61.4525 66.1973H61.0932C61.0988 66.0906 61.1269 66.0008 61.1718 65.9334C61.2167 65.866 61.2728 65.8098 61.3402 65.7649C61.4076 65.72 61.4861 65.6919 61.5759 65.6751C61.6657 65.6582 61.7499 65.647 61.8454 65.647C61.9239 65.647 62.0081 65.6582 62.0811 65.6751C62.1597 65.6919 62.2326 65.72 62.2944 65.7593C62.3561 65.7986 62.4066 65.8491 62.4459 65.9053C62.4852 65.9671 62.5021 66.0401 62.5021 66.1243V66.9779H62.4965ZM62.1372 66.523C62.0811 66.5567 62.0137 66.5792 61.9352 66.5904C61.8566 66.596 61.7724 66.6072 61.6938 66.6241C61.6545 66.6297 61.6208 66.6409 61.5816 66.6522C61.5479 66.6634 61.5142 66.6802 61.4861 66.6971C61.4581 66.7196 61.4356 66.742 61.4188 66.7757C61.4019 66.8094 61.3963 66.8487 61.3963 66.8936C61.3963 66.933 61.4076 66.9666 61.43 66.9947C61.4525 67.0228 61.4805 67.0453 61.5142 67.0621C61.5479 67.079 61.5816 67.0902 61.6208 67.0958C61.6601 67.1014 61.6938 67.107 61.7275 67.107C61.7668 67.107 61.8117 67.1014 61.8566 67.0902C61.9015 67.079 61.9464 67.0621 61.9913 67.034C62.0306 67.006 62.0699 66.9779 62.0923 66.9386C62.1204 66.8993 62.1316 66.8487 62.1316 66.7926V66.523H62.1372Z" fill="#454545"/>
<path d="M62.7209 65.7032H62.996V65.209H63.3608V65.7032H63.6864V65.9727H63.3608V66.8487C63.3608 66.8881 63.3608 66.9217 63.3664 66.9498C63.372 66.9779 63.3777 67.0004 63.3889 67.0172C63.4001 67.0341 63.4169 67.0509 63.4394 67.0621C63.4618 67.0734 63.4955 67.079 63.5348 67.079C63.5629 67.079 63.5853 67.079 63.6134 67.079C63.6415 67.079 63.6639 67.0734 63.692 67.0678V67.3485C63.6527 67.3542 63.6134 67.3598 63.5741 67.3598C63.5348 67.3654 63.4955 67.3654 63.4562 67.3654C63.3608 67.3654 63.2822 67.3541 63.2261 67.3373C63.17 67.3205 63.1251 67.2924 63.0914 67.2587C63.0577 67.225 63.0353 67.1801 63.024 67.1239C63.0128 67.0734 63.0072 67.0116 63.0016 66.9442V65.9727H62.7266V65.7032H62.7209Z" fill="#454545"/>
<path d="M63.9558 65.4168H64.3206V65.0742H63.9558V65.4168ZM63.9558 67.3485H64.3206V65.7032H63.9558V67.3485Z" fill="#454545"/>
<path d="M65.4657 67.3878C65.3366 67.3878 65.2187 67.3654 65.1121 67.3204C65.0111 67.2755 64.9213 67.2193 64.8539 67.1407C64.7809 67.0621 64.7304 66.9723 64.6911 66.8656C64.6518 66.7589 64.635 66.6409 64.635 66.5174C64.635 66.3939 64.6518 66.2759 64.6911 66.1692C64.7304 66.0625 64.7809 65.9727 64.8539 65.8941C64.9269 65.8154 65.0111 65.7593 65.1121 65.7144C65.2131 65.6694 65.331 65.647 65.4657 65.647C65.5948 65.647 65.7127 65.6694 65.8193 65.7144C65.9204 65.7593 66.0102 65.8154 66.0775 65.8941C66.1505 65.9727 66.201 66.0625 66.2403 66.1692C66.2796 66.2759 66.2964 66.3939 66.2964 66.5174C66.2964 66.6466 66.2796 66.7589 66.2403 66.8656C66.201 66.9723 66.1505 67.0621 66.0775 67.1407C66.0046 67.2193 65.9204 67.2755 65.8193 67.3204C65.7127 67.371 65.6004 67.3878 65.4657 67.3878ZM65.4657 67.107C65.5443 67.107 65.6173 67.0902 65.6734 67.0565C65.7351 67.0228 65.78 66.9779 65.8193 66.9217C65.8586 66.8656 65.8867 66.8038 65.9035 66.7364C65.9204 66.669 65.9316 66.596 65.9316 66.523C65.9316 66.45 65.9204 66.3826 65.9035 66.3152C65.8867 66.2422 65.8586 66.1805 65.8193 66.1299C65.78 66.0738 65.7351 66.0344 65.6734 65.9951C65.6117 65.9614 65.5443 65.9446 65.4657 65.9446C65.3871 65.9446 65.3142 65.9614 65.258 65.9951C65.1963 66.0288 65.1514 66.0738 65.1121 66.1299C65.0728 66.1861 65.0447 66.2478 65.0279 66.3152C65.0111 66.3826 64.9998 66.4556 64.9998 66.523C64.9998 66.596 65.0111 66.6634 65.0279 66.7364C65.0447 66.8038 65.0728 66.8656 65.1121 66.9217C65.1514 66.9779 65.1963 67.0228 65.258 67.0565C65.3142 67.0846 65.3871 67.107 65.4657 67.107Z" fill="#454545"/>
<path d="M66.5994 65.703H66.9417V65.9445L66.9474 65.9501C67.0035 65.8602 67.0765 65.7872 67.1663 65.7367C67.2561 65.6862 67.3515 65.6581 67.4638 65.6581C67.6434 65.6581 67.7837 65.703 67.8903 65.7985C67.9914 65.8939 68.0475 66.0343 68.0475 66.2196V67.3484H67.6827V66.3151C67.677 66.186 67.649 66.0905 67.5985 66.0343C67.5479 65.9782 67.4694 65.9445 67.3627 65.9445C67.301 65.9445 67.2449 65.9557 67.1999 65.9782C67.1494 66.0006 67.1101 66.0287 67.0765 66.068C67.0428 66.1073 67.0147 66.1523 66.9979 66.2084C66.981 66.259 66.9698 66.3151 66.9698 66.3769V67.3484H66.605V65.703H66.5994Z" fill="#454545"/>
<path d="M40.4041 7.9295C31.3842 4.91953 21.1463 11.7425 17.5316 23.1703C13.9169 34.6037 18.2949 46.3123 27.3148 49.3222C36.3347 52.3322 46.5726 45.5092 50.1873 34.0815C53.802 22.648 49.424 10.9395 40.4041 7.9295ZM27.6684 48.2047C20.1528 45.6946 16.83 34.8957 20.2482 24.0856C23.6665 13.2756 32.5292 6.54244 40.0448 9.05263C47.5605 11.5628 50.8833 22.3616 47.4651 33.1717C44.0468 43.9818 35.1841 50.7093 27.6684 48.2047ZM46.0787 30.8974L47.0385 30.7963C45.7419 33.9635 41.9925 38.1977 35.2458 36.9342C33.7472 38.4111 33.5227 38.8435 31.8669 40.1969C30.8566 41.0224 29.2288 42.5161 28.8022 43.7572C29.6891 44.2682 29.1559 44.9084 29.1895 44.9421C28.8584 44.6107 28.4935 44.5827 28.2241 44.841C27.5618 45.4755 28.5384 46.6324 28.5384 46.6324C27.3429 46.346 27.1015 45.6496 27.0959 45.5766C26.7311 46.0315 26.7928 46.711 26.7928 46.711C26.0856 46.1494 26.2091 45.3913 26.2147 45.3913C25.805 45.5317 25.6478 45.8069 25.6478 45.8069C25.4963 44.3861 26.2821 44.6781 27.6909 43.19C29.1334 41.6625 29.1502 39.6016 29.2849 38.4673C29.3579 37.8158 29.5207 36.9117 29.8406 36.0357C28.0726 35.7044 26.7872 34.6823 26.181 34.5812C24.5365 34.3173 23.6047 36.002 23.2287 37.1588C22.4316 36.7826 22.3979 35.783 22.426 35.6033C22.1454 35.3562 21.6627 34.4858 22.2183 33.2223C22.8358 31.8071 26.1923 29.982 26.6693 29.5721C28.241 28.2244 28.2802 25.7535 28.2522 24.1362C28.2185 22.1988 27.5393 19.9189 27.5393 19.9189C29.487 17.5884 30.6882 12.7252 30.8958 11.0855C32.4282 11.9222 32.0858 13.7248 32.0858 13.7248L32.692 12.9836C33.1466 14.0337 32.7705 15.7858 32.7705 15.7858C32.7705 15.7858 33.1073 15.3253 33.2645 15.1624C33.6686 16.2519 33.2982 17.9534 33.2982 17.9534C33.2982 17.9534 33.4609 17.7905 33.5676 17.7681C33.6967 18.47 33.4216 19.8122 33.1691 20.6152C33.1691 20.6152 33.3431 20.4916 33.4665 20.531C33.3767 21.8057 32.5965 24.3496 32.6022 24.344C34.9427 22.8165 36.4975 19.1607 36.7894 18.5543C41.1113 17.257 43.7549 12.1693 43.7549 12.1693C43.8504 12.9106 43.7942 14.1909 43.7942 14.1909C43.7942 14.1909 44.2096 13.5788 44.4004 13.4497C44.7372 14.6682 44.2657 16.1564 44.2657 16.1564L44.8158 15.7352C44.9168 16.4259 44.6362 17.4311 44.6362 17.4311C44.6362 17.4311 44.9673 17.2683 45.1862 17.2514C45.0852 17.7568 44.9337 18.2398 44.7484 18.7003C43.7269 21.2104 40.9148 23.9677 37.4349 25.5626C38.9391 25.2874 40.2974 24.5517 40.2974 24.5517C40.1122 25.2818 39.5004 25.7816 39.5004 25.7816L39.927 26.0118C39.506 26.506 38.6416 26.8598 38.6416 26.8598C38.6416 26.8598 38.9952 26.9384 39.1187 27.0507C37.9961 27.7863 37.3843 28.0503 37.3843 28.0503L37.7829 28.4153C36.9409 28.9207 35.678 29.3868 35.678 29.3868C35.678 29.3868 35.9643 29.5609 36.0597 29.6058C35.2627 30.3583 34.0503 30.3078 34.0503 30.3078C34.0503 30.3078 34.6228 32.9359 37.4966 33.1605C40.5219 33.3963 41.6838 31.0209 41.9925 29.6002C42.1328 28.9488 42.1328 28.4714 42.1328 28.4714L42.8681 29.5328L43.6483 29.3531L43.7606 29.763L44.3892 29.6507L44.5576 30.2628L45.0347 29.9708L45.3266 30.6559L45.7419 30.4481L46.0787 30.8974ZM20.0854 13.781C20.0967 13.9719 20.1079 14.1853 20.136 14.3706C19.889 14.4829 19.6476 14.5896 19.3838 14.6346C19.3165 14.3819 19.266 14.1348 19.2154 13.8708C19.3445 13.8371 19.8385 13.6855 19.9002 13.6069C19.9676 13.5227 19.8497 13.1464 19.8722 13.0004L20.6523 12.7196C20.7365 12.9611 20.8207 13.2643 20.8151 13.5227L20.0854 13.781ZM28.3195 5.85734L26.9949 3.22923C26.9949 2.8249 27.1184 2.27457 27.2306 1.88709C27.6235 2.65082 28.0277 3.41454 28.3083 4.22881C28.4935 4.78475 28.5216 5.30139 28.3195 5.85734ZM14.7083 14.8086C14.5006 14.9996 14.2593 15.1231 14.0011 15.2467C13.9 14.994 13.8383 14.73 13.7597 14.4717C13.8832 14.4212 14.3715 14.1741 14.422 14.0898C14.4501 14.0449 14.3547 13.5676 14.3435 13.4834L15.0731 13.0453C15.1349 13.1576 15.3482 13.7585 15.3089 13.8259C15.2696 13.8933 14.7139 14.219 14.6129 14.2639C14.6129 14.438 14.669 14.6402 14.7083 14.8086ZM46.4491 3.59424C46.2471 3.3977 46.1067 3.15622 45.9664 2.90352C46.2078 2.78559 46.4604 2.70697 46.7073 2.61151C46.7635 2.73505 47.0441 3.218 47.1283 3.26292C47.1732 3.291 47.6391 3.16745 47.7176 3.15061L48.2004 3.86379C48.0937 3.93118 47.5212 4.1895 47.4538 4.15019C47.3865 4.11088 47.0273 3.57178 46.9767 3.4707C46.8084 3.47631 46.6119 3.54932 46.4491 3.59424ZM52.9096 7.68803C52.0396 7.22193 51.192 6.72776 50.3332 6.25043C50.0358 6.44698 49.5924 6.66037 49.3454 6.90746C49.2668 6.98608 49.2443 7.88458 49.3342 7.97443C49.3847 8.02497 49.452 8.03058 49.5194 8.00812L49.6765 9.19863L49.6653 9.1874C49.1265 8.59214 48.5596 8.0362 47.959 7.51395C47.9478 7.4971 47.9309 7.48587 47.9197 7.47464C47.7513 7.32301 47.6278 7.10962 47.6503 6.98046C47.785 6.27289 48.2621 5.31262 48.481 4.54328L48.4585 4.49836L47.5324 5.02623C47.4987 5.12169 47.4819 5.21154 47.4763 5.30701C45.9496 5.31262 45.9552 5.0543 44.827 6.23358L46.0731 7.32301C46.2415 7.4634 46.7073 7.00854 46.9262 6.99169C46.8701 7.32301 46.6456 7.7498 47.0497 8.08112C47.8804 8.77746 48.6494 9.55242 49.3566 10.3891C49.4689 10.3274 50.0638 10.0185 50.2659 9.88935C50.2996 9.86689 50.322 9.85566 50.3332 9.84443C50.6363 9.54119 50.3332 7.72734 50.2996 7.26124C50.8833 7.57572 51.4502 7.91265 52.0396 8.22151C52.3314 8.04743 52.6233 7.87334 52.9096 7.68803ZM47.0273 6.61545L46.2583 5.99211C46.4042 5.87418 46.6344 5.94157 46.7522 5.93596C46.9543 5.94157 47.1227 5.82364 47.3191 5.76187L47.0273 6.61545ZM42.2619 1.30307L43.1488 0.859434C43.3396 1.10091 43.5136 1.35361 43.7437 1.55577C43.6202 1.69055 43.1375 1.90956 42.9467 2.01064C42.7278 1.77478 42.5145 1.494 42.2619 1.30307ZM38.737 0.724659L39.5621 0.174328C39.781 0.393338 39.9831 0.617963 40.2357 0.792047C40.129 0.943669 39.68 1.21883 39.5004 1.34238C39.259 1.1346 39.0121 0.881897 38.737 0.724659ZM43.4968 4.5489C43.5417 4.45905 43.5809 4.36358 43.6146 4.26812C43.8223 3.67286 43.682 3.14499 43.508 2.56097L42.739 3.21238C42.8401 3.56055 42.9018 3.93679 42.913 4.30181C42.5089 4.13896 42.0935 3.98734 41.6726 3.85256C41.0664 3.66163 40.9148 3.61109 40.4321 3.48755C40.6342 3.24046 40.7801 3.10568 40.8306 2.76875C40.8812 2.43742 40.8419 1.87025 40.4265 1.80286C39.8315 1.70178 38.9447 2.35881 38.5294 2.74067C38.3947 2.86983 38.3947 3.0046 38.3329 3.13938C37.4629 3.02706 37.1598 3.03268 36.2898 3.01022C36.3179 2.92037 36.3909 2.70136 36.3852 2.65643C36.3516 2.04995 35.4254 1.48838 34.9764 1.53892C34.5611 1.58947 32.9389 2.66766 32.6471 3.01022L32.6415 2.96529C32.6807 2.6789 32.7593 2.43742 32.72 2.15103C32.6976 1.98817 32.6583 1.83094 32.619 1.6737C32.9614 1.58947 32.9951 1.07283 33.1017 0.792047C32.6976 0.674119 32.1644 0.427031 32.0184 0.000244141C31.8613 0.241716 31.5357 0.662887 31.575 0.949284C31.5975 1.12898 31.7658 1.17952 31.8276 1.34799C31.9847 1.84217 32.2317 2.69574 32.2991 3.21238C32.3271 3.40331 32.1082 3.40893 31.9567 3.437C31.575 3.51562 30.778 3.78517 30.705 3.25169C30.6826 3.08884 30.6938 2.90914 30.7218 2.75751C30.6882 2.61712 30.705 2.63959 30.6489 2.63397C30.3458 2.78559 30.3682 3.62794 30.43 3.91433C30.5198 4.32989 30.9576 4.7286 31.3954 4.62752L31.4347 4.61628C34.7126 3.74025 37.8727 3.75148 41.3751 4.85776C41.9252 5.03184 42.4471 5.25647 42.9691 5.48109L42.9804 5.48671C43.1544 5.17785 43.3508 4.86899 43.4968 4.5489C43.4968 4.55451 43.5024 4.55451 43.4968 4.5489C43.5024 4.5489 43.4968 4.5489 43.4968 4.5489ZM39.6744 2.69574C39.8933 2.72944 40.0392 3.06076 40.0112 3.26292C39.9887 3.42577 39.6126 3.38085 39.5172 3.364C39.3657 3.34154 38.9672 3.11691 38.9952 2.93721C39.0233 2.79121 39.5453 2.67328 39.6744 2.69574ZM34.5442 2.44865C34.8136 2.40935 35.3918 2.6789 35.577 3.04953C34.78 3.06076 33.9829 3.11691 33.1915 3.22361C33.5507 2.88106 34.1906 2.4992 34.5442 2.44865ZM56.3615 15.4488L56.3222 16.3417C56.2043 16.3417 55.5813 16.1957 55.5364 16.1058C55.5083 16.0497 55.5644 15.359 55.5644 15.2579C55.3961 15.1905 55.2221 15.1175 55.0481 15.0389C54.9919 14.9041 55.0481 14.3313 55.0761 14.1685C55.1884 14.1741 55.7946 14.3482 55.8507 14.4212C55.8226 14.5672 55.7497 15.0838 55.8058 15.1905C55.8339 15.2467 56.2773 15.4095 56.3615 15.4488ZM56.8273 14.6009C56.8554 14.657 56.6702 15.2242 56.6477 15.3197C56.5411 15.3028 56.064 15.1006 56.0191 15.0164C55.9966 14.9659 56.1201 14.3819 56.1706 14.3538C56.2212 14.3257 56.8105 14.5559 56.8273 14.6009ZM54.6046 17.5378C54.5148 17.5715 54.4363 17.594 54.3521 17.6108C54.3408 17.6108 54.3296 17.6164 54.3128 17.6164C54.3016 17.6164 54.2903 17.6221 54.2791 17.6221C53.9704 17.6726 53.6561 17.6501 53.5887 17.6501C53.5382 17.6501 53.4035 17.6501 53.2968 17.6501C53.1453 17.1953 52.9825 16.746 52.8029 16.3024C52.8534 16.2462 52.9152 16.1732 52.9601 16.1171C52.9096 16.0778 52.7973 16.0609 52.7468 16.0441C52.7019 16.0272 52.685 15.9992 52.657 15.9261C52.5167 15.5836 52.3651 15.2467 52.208 14.9153C52.2865 14.8592 52.3595 14.7749 52.4044 14.7188C52.337 14.6739 52.2472 14.657 52.2192 14.6514C52.1911 14.6458 52.0957 14.6177 52.062 14.5784C52.0283 14.5391 51.9105 14.3257 51.8487 14.2022V14.1965C51.7309 13.9719 51.613 13.7473 51.4895 13.5283L51.4558 13.4721C51.4053 13.3935 51.3604 13.197 51.3548 13.1183L51.2874 13.1127C50.67 13.1352 49.6204 13.4047 49.1938 12.7421C48.9412 12.3602 48.8009 11.1416 48.9244 10.6924L49.0198 10.625L49.0591 10.6531C49.0816 10.6812 49.0198 11.2483 49.2387 11.5909C49.4969 11.9896 50.99 12.6915 51.3492 12.4445C51.5569 12.3041 51.7028 11.574 51.7589 11.5347C51.8263 11.4898 52.6233 11.473 52.7524 11.4898C52.5223 12.1861 52.0732 12.5006 52.5391 13.3317C52.7131 13.6518 52.8759 13.9775 53.0387 14.3088C53.2519 14.3145 53.2856 14.3088 53.4877 14.2078C53.6505 14.1291 54.3352 14.3425 54.4587 14.4605C54.397 14.4885 54.3352 14.5447 54.2679 14.5728C54.1444 14.6346 53.4484 14.7469 53.2576 14.7749C53.4091 15.1063 53.5494 15.4376 53.6897 15.7801C53.8076 15.7689 53.9367 15.6959 54.0658 15.7128C54.324 15.7464 54.8685 15.8644 55.0425 16.0722L54.9863 16.0946C54.7562 16.1901 54.1949 16.1171 53.903 16.235L53.8694 16.2462C53.9648 16.4877 54.0546 16.7348 54.1388 16.9819L54.223 16.9875C54.3128 16.9482 54.4026 16.8752 54.5036 16.8359C54.7281 16.746 55.4129 17.0212 55.6037 17.1391L54.6046 17.5378ZM26.7143 6.4189C26.7311 6.28412 26.4785 5.44178 26.3887 5.31824L25.7152 4.29619L25.8892 3.15061C25.6646 3.17307 24.789 3.17307 24.6431 3.0383C24.5701 2.97652 24.514 2.89229 24.4579 2.80805L24.3905 2.79682C24.3007 3.17869 24.3232 3.64478 24.34 4.03788C24.3849 4.10526 24.6543 4.09403 24.7161 4.15019C24.9406 4.3355 25.7657 5.43055 25.9172 5.71133C25.9284 5.72818 25.9341 5.76187 25.9341 5.78995C25.5748 5.99773 25.2212 6.21674 24.8676 6.44698L24.8283 6.46944C24.2726 6.87376 22.7852 6.23358 22.1454 6.13812L22.151 6.09881L23.5598 4.61628C23.4588 4.29058 23.3521 3.9761 23.223 3.66725C23.1276 3.71217 21.5616 5.43617 21.354 5.66079C21.4606 6.11566 21.6234 6.55367 21.8142 6.97485L23.6552 7.27809C23.1445 7.65995 22.6393 8.05866 22.1454 8.48545C21.7918 8.19344 20.8881 7.53079 20.4727 7.90142C20.0405 8.29452 20.5513 9.71527 20.8544 10.0634C21.2585 10.5239 21.8703 9.9792 22.2408 9.72089C22.2296 10.2993 21.9377 11.1697 21.5223 11.546C21.3371 11.7144 20.9611 11.838 20.7421 11.9278C20.7197 11.9391 20.6243 11.984 20.6523 12.0233C20.6804 12.0682 20.8376 12.0738 20.8376 12.0738C21.3427 12.1244 22.1341 11.8267 22.4821 11.5123C22.9761 11.063 22.8582 9.98482 22.6786 9.37833C23.2062 8.91785 23.745 8.47983 24.3007 8.07551L24.2558 7.36232L25.1314 7.49148C25.6197 7.16016 26.1193 6.85692 26.6244 6.56491H26.6301C26.675 6.53683 26.7086 6.46382 26.7143 6.4189ZM21.4494 9.09194C21.2978 9.23233 21.0845 9.32779 20.8825 9.25479L20.86 9.22671C20.7927 9.16494 20.8263 8.85608 20.8825 8.80554C21.0452 8.65953 21.4045 8.86731 21.556 8.94031C21.5336 8.99647 21.4887 9.05824 21.4494 9.09194ZM20.1752 11.8997C19.5803 12.5961 19.0134 13.3317 18.4802 14.1067L18.4745 14.1123C18.4128 14.2134 18.1658 14.6289 17.5091 14.4324L17.8459 15.0613C17.4081 15.7464 16.9984 16.4596 16.6111 17.1953C16.3697 17.6726 15.6849 17.8411 15.2191 17.5491C14.9721 17.3918 14.074 16.4821 14.2256 16.2238C14.2256 16.2238 14.2537 16.1676 14.2929 16.1508C14.3266 16.1339 14.3715 16.1676 14.3715 16.1676C14.422 16.2013 14.6241 16.6225 14.8823 16.7853C15.1629 16.9594 15.6569 16.8022 15.8197 16.4933C16.2126 15.7464 16.6391 15.0333 17.0826 14.3369C16.9254 14.146 16.6784 13.9663 16.4932 13.8203C16.3641 13.5283 16.2687 13.2138 16.1901 12.8993L16.6055 13.1576C16.7795 13.27 16.931 13.4216 17.105 13.5339C17.3351 13.6743 17.5765 13.59 17.6944 13.416H17.7C18.1434 12.7814 18.6036 12.1749 19.0863 11.5909C18.7383 11.4617 18.3454 11.3943 17.9806 11.3775L17.627 10.4116C18.0873 10.4116 18.8225 10.5183 19.1874 10.8272C19.5522 11.1136 19.8778 11.5347 20.1752 11.8997ZM15.8589 40.3878L14.3659 41.0617L16.4707 41.831L16.9029 42.8474L14.8711 42.0388L13.3724 44.5995L12.9402 43.5831L14.0797 41.7468L13.423 41.4885L12.2667 42.0107L11.9187 41.2021L15.5109 39.5848L15.8589 40.3878ZM14.5062 46.4077L14.843 46.1943L14.8318 46.1775C14.6409 46.1831 14.4726 46.1326 14.3266 46.0371C14.1807 45.9416 14.0628 45.8181 13.9786 45.6777C13.8664 45.498 13.799 45.3295 13.7766 45.1835C13.7541 45.0375 13.7653 44.9028 13.8102 44.7792C13.8551 44.6557 13.9281 44.5434 14.0404 44.4367C14.147 44.33 14.2761 44.2289 14.422 44.1334L15.9038 43.1844L16.3136 43.8639L14.9497 44.7343C14.7532 44.8634 14.6241 44.987 14.5624 45.1161C14.5006 45.2397 14.5231 45.3857 14.6185 45.5485C14.7308 45.7339 14.8655 45.8349 15.0226 45.8462C15.1798 45.863 15.3818 45.79 15.6288 45.6328L16.8917 44.8241L17.3015 45.5036L14.8879 47.0423L14.5062 46.4077ZM17.0208 49.6704L18.0929 47.9689L18.0873 47.9577L16.3529 48.9067L15.8084 48.2946L17.3015 45.644L17.8571 46.273L16.7795 48.0026L16.7851 48.0082L18.5307 47.0367L19.0414 47.6095L17.9469 49.3054L17.9525 49.3166L19.7262 48.3844L20.2651 48.9965L17.5653 50.2825L17.0208 49.6704ZM20.1303 49.3166C20.2651 49.2661 20.4054 49.2492 20.5513 49.2661C20.6972 49.2829 20.8376 49.3279 20.9835 49.3952C21.1294 49.4683 21.2641 49.5469 21.3876 49.648C21.4999 49.7378 21.6121 49.8333 21.7188 49.94C21.8254 50.0467 21.9096 50.159 21.9658 50.2825C22.0275 50.4061 22.0556 50.5352 22.0556 50.6644C22.0556 50.7992 22.005 50.9339 21.8984 51.0743L21.0116 52.2873C20.933 52.394 20.8656 52.5007 20.8095 52.6018C20.7534 52.7085 20.7197 52.7927 20.7141 52.8657L20.0798 52.3771C20.0967 52.3322 20.1135 52.2873 20.1303 52.2424C20.1528 52.1974 20.1752 52.1581 20.1977 52.1132C20.0237 52.1413 19.8497 52.1244 19.6869 52.0627C19.5242 52.0009 19.367 51.9167 19.2267 51.81C19.12 51.7257 19.0246 51.6359 18.9516 51.5348C18.8787 51.4337 18.8282 51.3326 18.8001 51.2203C18.772 51.108 18.772 50.9957 18.7945 50.8778C18.8169 50.7598 18.8731 50.6419 18.9629 50.5184C19.0583 50.3836 19.1593 50.2938 19.2716 50.2432C19.3782 50.1927 19.4905 50.1702 19.5971 50.1758C19.7038 50.1814 19.816 50.2039 19.9283 50.2488C20.0405 50.2938 20.1472 50.3443 20.2538 50.4061C20.3605 50.4622 20.4615 50.524 20.5569 50.5801C20.6523 50.6419 20.7421 50.6868 20.8263 50.7262C20.9105 50.7598 20.9835 50.7767 21.0509 50.7767C21.1182 50.7711 21.1743 50.7374 21.2192 50.67C21.2698 50.6026 21.2978 50.5352 21.309 50.4791C21.3147 50.4229 21.309 50.3668 21.2922 50.3162C21.2698 50.2657 21.2417 50.2151 21.1968 50.1702C21.1519 50.1253 21.107 50.0804 21.0509 50.041C20.9274 49.9456 20.8095 49.9007 20.7029 49.9007C20.5906 49.9007 20.484 49.9568 20.3829 50.0747L19.7599 49.5918C19.8609 49.4626 19.99 49.3672 20.1303 49.3166ZM20.7029 51.1698C20.6523 51.1529 20.6018 51.1305 20.5513 51.108C20.5008 51.0799 20.4447 51.0519 20.3941 51.0182C20.338 50.9845 20.2819 50.9564 20.2258 50.9283C20.1752 50.9002 20.1191 50.8778 20.063 50.8553C20.0069 50.8328 19.9507 50.8272 19.9002 50.8272C19.8497 50.8272 19.7992 50.8385 19.7487 50.8609C19.6982 50.8834 19.6532 50.9283 19.6083 50.9845C19.5691 51.0406 19.541 51.0968 19.5354 51.1529C19.5298 51.2091 19.5354 51.2596 19.5522 51.3102C19.5691 51.3607 19.6027 51.4056 19.642 51.4506C19.6813 51.4955 19.7262 51.5404 19.7767 51.5741C19.9002 51.6696 20.0125 51.7201 20.1079 51.7313C20.2033 51.7426 20.2931 51.7313 20.3661 51.6977C20.4391 51.664 20.5064 51.619 20.5569 51.5629C20.6074 51.5067 20.6467 51.4618 20.6748 51.4281L20.8488 51.1866C20.7983 51.1979 20.7478 51.1866 20.7029 51.1698ZM23.3521 51.0575L21.9265 53.5789L21.2529 53.1746L22.6786 50.6531L23.3521 51.0575ZM22.9031 50.2657L23.2287 49.6929L23.9022 50.0972L23.5767 50.67L22.9031 50.2657ZM25.21 51.9841L24.9911 52.4726L24.4747 52.2255L23.8797 53.534C23.8236 53.6575 23.8068 53.7474 23.8292 53.8091C23.8517 53.8709 23.919 53.9271 24.0425 53.9832C24.0818 54.0001 24.1211 54.0169 24.1604 54.0338C24.1997 54.0506 24.2334 54.0618 24.2726 54.0674L24.0201 54.629C23.9527 54.6122 23.8854 54.5841 23.8124 54.556C23.7394 54.5223 23.6665 54.4942 23.5935 54.4605C23.4868 54.41 23.3858 54.3538 23.296 54.2865C23.2062 54.2247 23.1332 54.1517 23.0771 54.0731C23.021 53.9944 22.9929 53.9046 22.9873 53.7979C22.9817 53.6968 23.0098 53.5789 23.0715 53.4441L23.7787 51.883L23.3521 51.6808L23.571 51.1922L23.9976 51.4L24.3568 50.6082L25.0641 50.9452L24.7048 51.737L25.21 51.9841ZM26.5066 52.6242C26.6413 52.3884 26.8097 52.1918 27.0061 52.0402C27.2026 51.883 27.4327 51.7763 27.6853 51.7201C27.9435 51.664 28.2185 51.664 28.5104 51.7257C28.8079 51.7875 29.066 51.8942 29.2737 52.0514C29.487 52.2087 29.6554 52.394 29.7789 52.6186C29.9024 52.8376 29.9866 53.0847 30.0202 53.3543C30.0595 53.6238 30.0483 53.9102 29.9866 54.2022C29.9304 54.4886 29.835 54.7526 29.7003 54.9828C29.5656 55.213 29.4028 55.404 29.2008 55.5556C29.0043 55.7072 28.7798 55.8083 28.5216 55.8701C28.269 55.9262 27.994 55.9262 27.6965 55.8644C27.4046 55.8027 27.1464 55.696 26.9332 55.5444C26.7199 55.3927 26.5515 55.2074 26.4224 54.9884C26.2989 54.7694 26.2147 54.5279 26.1754 54.264C26.1361 54.0001 26.1474 53.7193 26.2035 53.4329C26.2764 53.124 26.3719 52.8601 26.5066 52.6242ZM27.023 54.0899C27.0286 54.2528 27.0622 54.41 27.124 54.5504C27.1801 54.6908 27.2699 54.8143 27.3878 54.9154C27.5057 55.0165 27.6572 55.0895 27.8481 55.1288C28.0389 55.1681 28.2073 55.1625 28.3532 55.1176C28.4991 55.067 28.6282 54.9884 28.7349 54.8817C28.8415 54.775 28.9313 54.6459 28.9987 54.4942C29.066 54.3426 29.1166 54.1854 29.1502 54.0225C29.1839 53.8484 29.1951 53.6744 29.1895 53.5059C29.1839 53.3374 29.1502 53.1802 29.0941 53.0342C29.038 52.8882 28.9482 52.7646 28.8303 52.6635C28.7124 52.5625 28.5553 52.4895 28.3701 52.4501C28.1792 52.4108 28.0108 52.4165 27.8649 52.4614C27.719 52.5119 27.5899 52.5905 27.4832 52.6972C27.3766 52.8096 27.2868 52.9387 27.2194 53.0959C27.1521 53.2532 27.1015 53.416 27.0623 53.5901C27.0286 53.7586 27.0173 53.9271 27.023 54.0899ZM30.4693 52.759L30.4973 52.0964L31.2775 52.1357L31.2495 52.7927L30.4693 52.759ZM31.227 53.2476L31.0923 56.1621L30.3121 56.1228L30.4468 53.2083L31.227 53.2476ZM32.6078 52.1188L32.7369 56.1452L31.9567 56.1733L31.8276 52.1469L32.6078 52.1188ZM36.5705 52.54C36.5031 52.467 36.4245 52.4108 36.3347 52.3659C36.2449 52.321 36.1495 52.2929 36.0485 52.2817C35.9474 52.2704 35.8408 52.2761 35.7398 52.2985C35.5489 52.3435 35.3974 52.4165 35.2851 52.5232C35.1729 52.6298 35.0831 52.7534 35.0325 52.8994C34.9764 53.0454 34.9483 53.2026 34.9483 53.3711C34.9483 53.5396 34.9652 53.7137 35.0045 53.8877C35.0382 54.0506 35.0943 54.2078 35.1672 54.3538C35.2402 54.4999 35.33 54.629 35.4423 54.7301C35.5489 54.8368 35.678 54.9098 35.8296 54.9547C35.9811 54.9996 36.1495 54.9996 36.3347 54.9547C36.5929 54.8929 36.7725 54.7638 36.8848 54.5729C36.9914 54.3763 37.0363 54.1461 37.0083 53.8709L37.8221 53.68C37.8558 53.9327 37.8502 54.1629 37.8053 54.3819C37.7604 54.6009 37.6818 54.7975 37.5639 54.9716C37.4461 55.1456 37.3001 55.2917 37.1205 55.4096C36.9409 55.5275 36.7332 55.6174 36.4975 55.6735C36.2056 55.7409 35.9306 55.7521 35.6724 55.7016C35.4142 55.6511 35.1841 55.5556 34.9876 55.4096C34.7856 55.2636 34.6172 55.0783 34.4769 54.848C34.3365 54.6178 34.2355 54.3651 34.1738 54.0787C34.1064 53.7867 34.0896 53.5059 34.1233 53.2307C34.1513 52.9612 34.2299 52.7141 34.3478 52.4895C34.4656 52.2648 34.634 52.0739 34.8417 51.911C35.055 51.7482 35.302 51.6359 35.5938 51.5685C35.8071 51.518 36.0092 51.5011 36.2112 51.5236C36.4133 51.5404 36.5985 51.591 36.7781 51.6808C36.9521 51.765 37.1093 51.883 37.244 52.0402C37.3787 52.1918 37.4854 52.3828 37.5583 52.6018L36.7445 52.7927C36.6883 52.6972 36.6378 52.613 36.5705 52.54ZM37.8727 53.0623C37.867 52.8601 37.9007 52.6692 37.9681 52.5007C38.0354 52.3266 38.1421 52.175 38.2824 52.0346C38.4227 51.8942 38.5967 51.7875 38.7988 51.6977C39.0065 51.6078 39.2085 51.5685 39.3994 51.5629C39.5958 51.5629 39.7754 51.5966 39.9438 51.6696C40.1122 51.7426 40.2637 51.8549 40.3985 52.0009C40.5332 52.1525 40.6454 52.3322 40.7296 52.5512C40.8138 52.7702 40.8587 52.978 40.8643 53.1746C40.8699 53.3767 40.8363 53.562 40.7689 53.7361C40.7015 53.9102 40.5949 54.0674 40.4546 54.2022C40.3143 54.337 40.1403 54.4493 39.9326 54.5392C39.7249 54.6234 39.5285 54.6683 39.332 54.6739C39.1412 54.6796 38.9616 54.6402 38.7932 54.5672C38.6248 54.4942 38.4732 54.3819 38.3441 54.2359C38.2094 54.0899 38.1028 53.9046 38.013 53.6912C37.9288 53.4722 37.8783 53.2644 37.8727 53.0623ZM38.8886 53.6912C38.9503 53.7867 39.0233 53.8653 39.1019 53.9271C39.1805 53.9888 39.2759 54.0281 39.3769 54.0394C39.4779 54.0562 39.5902 54.0338 39.7137 53.9832C39.8372 53.9327 39.927 53.8653 39.9943 53.7811C40.0561 53.6968 40.0954 53.607 40.1122 53.5003C40.129 53.3992 40.129 53.2925 40.1066 53.1802C40.0841 53.0679 40.0561 52.9612 40.0112 52.8489C39.9663 52.7422 39.9157 52.6411 39.854 52.5456C39.7923 52.4501 39.7193 52.3715 39.6407 52.3098C39.5621 52.248 39.4667 52.2143 39.3657 52.1974C39.2647 52.1806 39.1524 52.1974 39.0289 52.248C38.9054 52.2985 38.8156 52.3659 38.7539 52.4501C38.6921 52.5344 38.6528 52.6298 38.636 52.7309C38.6192 52.832 38.6192 52.9387 38.6416 53.051C38.6641 53.1633 38.6921 53.2756 38.737 53.3823C38.7763 53.4947 38.8268 53.5957 38.8886 53.6912ZM40.9485 50.7879L41.1506 51.1249L41.1618 51.1192C41.173 50.9339 41.2179 50.7711 41.2965 50.6195C41.3751 50.4734 41.493 50.3443 41.6557 50.2432C41.8073 50.1421 41.9644 50.086 42.1272 50.0691C42.29 50.0467 42.4528 50.0972 42.6099 50.2039C42.6155 50.0467 42.6548 49.8894 42.7278 49.7322C42.8008 49.5693 42.9186 49.4346 43.087 49.3279C43.2161 49.2436 43.3396 49.1875 43.4687 49.1482C43.5978 49.1089 43.7213 49.1032 43.8391 49.1201C43.957 49.1425 44.0749 49.1931 44.1871 49.2773C44.2994 49.3616 44.406 49.4851 44.5015 49.6423L45.5118 51.2989L44.8495 51.7257L43.9963 50.3218C43.9458 50.2376 43.8953 50.1646 43.8448 50.0916C43.7942 50.0242 43.7381 49.968 43.6764 49.9343C43.6146 49.9007 43.5473 49.8838 43.4743 49.8838C43.4013 49.8894 43.3171 49.9175 43.2217 49.9793C43.1263 50.041 43.0646 50.1084 43.0309 50.1814C42.9972 50.2544 42.9804 50.3331 42.986 50.4117C42.9916 50.4903 43.0084 50.5745 43.0421 50.6531C43.0758 50.7374 43.1151 50.816 43.1656 50.889L44.0019 52.2648L43.3396 52.6916L42.4977 51.3046C42.4528 51.2316 42.4079 51.1586 42.363 51.0912C42.3181 51.0182 42.2619 50.962 42.2002 50.9171C42.1384 50.8722 42.0711 50.8497 41.9925 50.8441C41.9139 50.8441 41.8241 50.8778 41.7175 50.9452C41.6838 50.9676 41.6501 51.0013 41.6052 51.0462C41.5659 51.0912 41.5323 51.1529 41.5042 51.2203C41.4817 51.2933 41.4761 51.3776 41.4874 51.473C41.4986 51.5685 41.5435 51.6808 41.6164 51.7987L42.4921 53.2363L41.8297 53.6631L40.3255 51.1866L40.9485 50.7879ZM44.7148 48.1205L44.9505 48.4013L44.9561 48.3957C44.928 48.2104 44.9449 48.0419 45.0066 47.8903C45.074 47.7386 45.1694 47.6039 45.3041 47.4803C45.4725 47.3287 45.6465 47.2332 45.8205 47.1883C45.9945 47.1434 46.1741 47.1434 46.3425 47.1771C46.5109 47.2108 46.6793 47.2838 46.842 47.3961C47.0048 47.5028 47.1507 47.6376 47.2798 47.7948C47.4033 47.9408 47.5044 48.1037 47.5829 48.2721C47.6615 48.4406 47.7064 48.6147 47.712 48.7888C47.7233 48.9628 47.6952 49.1369 47.6335 49.3054C47.5717 49.4739 47.4595 49.6255 47.3023 49.7659C47.1676 49.8838 47.0216 49.968 46.8645 50.013C46.7073 50.0579 46.5446 50.0579 46.3818 50.013L46.3762 50.0186L47.263 51.0575L46.6736 51.5853L44.1535 48.6147L44.7148 48.1205ZM46.9599 49.1819C46.988 49.0864 46.9992 48.9853 46.988 48.8842C46.9711 48.7831 46.9375 48.6877 46.8813 48.5866C46.8252 48.4855 46.7635 48.3901 46.6849 48.3058C46.6119 48.216 46.5277 48.1374 46.4379 48.07C46.3481 48.0026 46.2527 47.952 46.1573 47.924C46.0562 47.8959 45.9608 47.8903 45.8598 47.9071C45.7587 47.924 45.6633 47.9745 45.5679 48.0587C45.4725 48.143 45.4051 48.2384 45.3771 48.3395C45.349 48.4406 45.3434 48.5361 45.3546 48.6371C45.3715 48.7382 45.4051 48.8393 45.4613 48.9404C45.5174 49.0415 45.5847 49.1369 45.6633 49.2268C45.7363 49.3166 45.8205 49.3952 45.9103 49.4626C46.0001 49.53 46.0899 49.5806 46.1853 49.6086C46.2807 49.6367 46.3762 49.6423 46.4772 49.6199C46.5782 49.5974 46.6737 49.5469 46.7691 49.4626C46.8645 49.3728 46.9318 49.2773 46.9599 49.1819ZM46.842 46.7278C46.8084 46.5818 46.8027 46.4358 46.8308 46.2954C46.8589 46.1494 46.915 46.009 46.9992 45.8686C47.0834 45.7282 47.1732 45.5991 47.2798 45.4812C47.3753 45.3745 47.4819 45.2678 47.5942 45.1723C47.7064 45.0768 47.8243 44.9982 47.9534 44.9477C48.0769 44.8971 48.206 44.8747 48.3351 44.8915C48.4642 44.9028 48.5933 44.9701 48.7223 45.0881L49.8169 46.1101C49.9123 46.2 50.0077 46.2786 50.1031 46.346C50.1985 46.4134 50.2827 46.4583 50.3501 46.4695L49.8169 47.0704C49.772 47.0535 49.7327 47.0311 49.6934 47.003C49.6541 46.9805 49.6148 46.9525 49.5755 46.9188C49.5867 47.1041 49.5531 47.2782 49.4801 47.441C49.4071 47.6039 49.3061 47.7555 49.1882 47.8846C49.0984 47.9857 49.003 48.07 48.8964 48.1374C48.7953 48.2047 48.6887 48.244 48.5764 48.2665C48.4642 48.2834 48.3519 48.2777 48.2453 48.2384C48.133 48.2047 48.0207 48.1374 47.9141 48.0307C47.7962 47.9183 47.7176 47.806 47.6784 47.6937C47.6391 47.5758 47.6278 47.4635 47.6391 47.3512C47.6559 47.2389 47.6896 47.1322 47.7401 47.0198C47.7962 46.9131 47.8524 46.8064 47.9197 46.7054C47.9871 46.6043 48.0488 46.5032 48.1218 46.4134C48.1891 46.3179 48.2453 46.2337 48.2902 46.1494C48.3351 46.0652 48.3575 45.9922 48.3575 45.9248C48.3631 45.8574 48.3294 45.7956 48.2677 45.7451C48.206 45.6889 48.1442 45.6496 48.0937 45.6384C48.0376 45.6272 47.9871 45.6272 47.9365 45.644C47.886 45.6609 47.8355 45.6889 47.7906 45.7282C47.7457 45.7676 47.6952 45.8125 47.6503 45.8686C47.5493 45.9866 47.4875 46.0989 47.4819 46.2112C47.4707 46.3235 47.5212 46.4358 47.6222 46.5537L47.1002 47.149C46.9599 47.0142 46.8813 46.8738 46.842 46.7278ZM48.6943 46.3179C48.6718 46.3684 48.6494 46.419 48.6157 46.4695C48.5876 46.5201 48.554 46.5706 48.5147 46.6267C48.481 46.6773 48.4417 46.7334 48.408 46.7896C48.3744 46.8401 48.3463 46.8963 48.3238 46.9525C48.3014 47.0086 48.2845 47.0648 48.2789 47.1153C48.2733 47.1715 48.2789 47.222 48.2958 47.2725C48.3126 47.3231 48.3519 47.3736 48.4024 47.4298C48.4529 47.4747 48.5035 47.5084 48.5596 47.5196C48.6101 47.5309 48.6606 47.5309 48.7111 47.5196C48.7616 47.5028 48.8122 47.4803 48.8571 47.441C48.902 47.4017 48.9469 47.3624 48.9918 47.3119C49.0928 47.1939 49.1545 47.0872 49.177 46.9861C49.1938 46.8851 49.1938 46.7952 49.1658 46.7166C49.1377 46.638 49.104 46.565 49.0535 46.5088C49.003 46.4527 48.9637 46.4077 48.93 46.3797L48.7167 46.1775C48.728 46.2168 48.7167 46.2673 48.6943 46.3179ZM48.829 43.6898L49.1489 43.9256L49.1602 43.9088C49.0872 43.7291 49.0647 43.5494 49.0928 43.3697C49.1209 43.1956 49.1882 43.0384 49.2836 42.898C49.4071 42.7239 49.5306 42.6003 49.6541 42.5217C49.7776 42.4431 49.9011 42.4038 50.0302 42.4038C50.1592 42.3982 50.2883 42.4319 50.4231 42.488C50.5578 42.5498 50.6981 42.634 50.8384 42.7407L52.2528 43.7909L51.7982 44.4423L50.5016 43.4764C50.3108 43.336 50.148 43.263 50.0133 43.2518C49.8786 43.2405 49.7551 43.3191 49.6429 43.4708C49.5194 43.6449 49.4801 43.8133 49.525 43.9706C49.5699 44.1278 49.7102 44.2906 49.946 44.4647L51.1527 45.3632L50.6981 46.0146L48.3968 44.3075L48.829 43.6898ZM53.8132 42.8137C53.8245 42.9991 53.7627 43.2068 53.628 43.4483C53.5887 43.5213 53.5438 43.5887 53.4989 43.6561C53.454 43.7235 53.4091 43.7909 53.3642 43.8582L52.8085 43.5269C52.8534 43.4652 52.8983 43.4034 52.9432 43.336C52.9881 43.2686 53.0274 43.2068 53.0611 43.1338C53.1004 43.0384 53.106 42.9485 53.0723 42.8699C53.0387 42.7913 52.9825 42.7295 52.9096 42.6846C52.8534 42.6509 52.7973 42.634 52.7412 42.6228L49.9403 42.1286L50.3557 41.393L52.3595 41.8254L52.3651 41.8142L50.9956 40.2643L51.3997 39.5455L53.5607 42.2466C53.7178 42.4431 53.802 42.634 53.8132 42.8137Z" fill="#0065AF"/>
</svg>
