<svg width="30" height="30" viewBox="0 0 30 30" fill="none" xmlns="http://www.w3.org/2000/svg">
<path d="M4.73684 0H25.2632C26.5194 0 27.7243 0.499059 28.6126 1.38739C29.5009 2.27572 30 3.48055 30 4.73684V18.9474C30 20.2037 29.5009 21.4085 28.6126 22.2968C27.7243 23.1852 26.5194 23.6842 25.2632 23.6842H18.0221L12.1689 29.5374C11.9481 29.7581 11.6668 29.9084 11.3606 29.9693C11.0543 30.0302 10.7369 29.999 10.4484 29.8795C10.16 29.76 9.91339 29.5577 9.73989 29.2981C9.56639 29.0385 9.47375 28.7333 9.47368 28.4211V23.6842H4.73684C3.48055 23.6842 2.27572 23.1852 1.38739 22.2968C0.499059 21.4085 0 20.2037 0 18.9474V4.73684C0 3.48055 0.499059 2.27572 1.38739 1.38739C2.27572 0.499059 3.48055 0 4.73684 0ZM25.2632 1.57895H4.73684C3.89932 1.57895 3.09609 1.91165 2.50387 2.50387C1.91165 3.09609 1.57895 3.89932 1.57895 4.73684V18.9474C1.57895 19.7849 1.91165 20.5881 2.50387 21.1803C3.09609 21.7726 3.89932 22.1053 4.73684 22.1053H11.0526V28.4211L17.3684 22.1053H25.2632C26.1007 22.1053 26.9039 21.7726 27.4961 21.1803C28.0883 20.5881 28.4211 19.7849 28.4211 18.9474V4.73684C28.4211 3.89932 28.0883 3.09609 27.4961 2.50387C26.9039 1.91165 26.1007 1.57895 25.2632 1.57895ZM4.73684 6.31579H25.2632V7.89474H4.73684V6.31579ZM4.73684 11.0526H23.6842V12.6316H4.73684V11.0526ZM4.73684 15.7895H17.3684V17.3684H4.73684V15.7895Z" fill="#C1773A"/>
</svg>
