<svg width="112" height="73" viewBox="0 0 112 73" fill="none" xmlns="http://www.w3.org/2000/svg">
<rect width="112" height="73" fill="white"/>
<path d="M18.7189 42.4437C18.4047 42.5528 18.074 42.6087 17.7413 42.608C16.6734 42.608 16.1588 42.0504 15.6924 41.2126C15.5353 40.9467 15.4519 40.3639 15.4519 40.3639V35.7734H19.4009L19.1874 33.9437C19.0854 33.0419 18.3193 32.3588 17.4065 32.3554H15.4519V26.6817C15.4519 26.6817 14.2697 26.7601 13.8743 26.788C11.8529 26.9455 10.4867 28.2843 10.4867 29.8481L10.4957 32.4876L7 32.6172V33.9376C7 34.9513 7.82673 35.7734 8.84774 35.7734H10.4957V40.475L10.5219 41.1601C10.5329 43.0913 11.5959 44.8651 13.2983 45.7942C15.0021 46.7234 17.0785 46.6627 18.723 45.6347L18.7189 42.4444V42.4437ZM43.6565 45.2264C42.6424 44.4125 42.1354 43.2768 42.136 41.8179C42.136 40.3032 42.6252 39.1389 43.6035 38.3256C44.5825 37.5124 45.9845 37.1054 47.8088 37.1047C48.5274 37.1061 49.2439 37.1859 49.9459 37.3433C50.5811 37.4763 51.1977 37.6883 51.7826 37.9746V37.6944C51.7826 36.254 50.6321 35.5334 48.3303 35.5334C46.723 35.5334 45.7392 35.6412 44.4061 36.2724C44.4061 36.2724 44.2249 34.911 44.1808 34.4468C44.083 33.4243 44.8711 32.6594 46.1925 32.4072L46.2201 32.4017C47.197 32.2218 48.1877 32.1325 49.1798 32.1359C51.6262 32.1359 53.476 32.6363 54.7278 33.6383C55.9796 34.6404 56.6052 36.0386 56.6038 37.8328V43.9898C56.6038 45.6395 56.0416 46.0246 54.7079 46.0246H52.2084L52.0795 44.8787C51.5442 45.3914 50.9097 45.7833 50.2173 46.0287C49.3899 46.3219 48.5177 46.465 47.6421 46.4493C45.9976 46.4493 44.6693 46.0424 43.6572 45.2291L43.6565 45.2264ZM50.6576 43.0682C51.1054 42.8725 51.4926 42.5583 51.7805 42.1567V40.9754C50.9876 40.4307 50.0506 40.1464 49.095 40.1614C48.4564 40.1614 47.9631 40.3019 47.6159 40.5827C47.2687 40.8629 47.0937 41.2746 47.0916 41.8173C47.0916 42.3183 47.2604 42.7123 47.5987 42.9986C47.9376 43.2849 48.4268 43.4254 49.0668 43.4192C49.6159 43.4233 50.1588 43.3033 50.6569 43.0682H50.6576ZM78.7926 45.2237C77.7785 44.4097 77.2714 43.274 77.2721 41.8152C77.2721 40.2991 77.7612 39.1341 78.7402 38.3209C79.7185 37.5076 81.1205 37.1007 82.9455 37.1C83.6641 37.1007 84.3806 37.1811 85.0826 37.3386C85.7178 37.4715 86.3344 37.6835 86.9193 37.9698V37.6896C86.9193 36.2485 85.7688 35.5287 83.4671 35.5287C81.8591 35.5287 80.8753 35.6357 79.5415 36.2676C79.5415 36.2676 79.361 34.9056 79.3169 34.4414C79.2197 33.4181 80.0072 32.6533 81.3286 32.4004L81.3561 32.3956C82.3331 32.2177 83.3231 32.1304 84.3152 32.1352C86.7623 32.1352 88.6114 32.6369 89.8625 33.639C91.1143 34.6411 91.7399 36.0399 91.7399 37.8341V43.9932C91.7399 45.6443 91.177 46.0287 89.8439 46.0287H87.3437L87.2177 44.878C86.6824 45.3914 86.0472 45.7833 85.3541 46.0287C84.5273 46.3219 83.6551 46.465 82.7795 46.4493C81.1357 46.4493 79.8074 46.0424 78.7946 45.2284L78.7926 45.2237ZM85.7943 43.0675C86.2421 42.8718 86.6307 42.5569 86.9193 42.1554V40.974C86.1257 40.4287 85.1887 40.1451 84.2332 40.1601C83.5938 40.1601 83.1005 40.3005 82.7533 40.5807C82.4068 40.8615 82.2318 41.2733 82.2297 41.8159C82.2297 42.3169 82.3978 42.711 82.7361 42.9973C83.0737 43.2836 83.5628 43.424 84.2035 43.4185C84.7526 43.4226 85.2948 43.3027 85.7929 43.0675H85.7943ZM20.9214 45.2305C19.908 44.4165 19.4009 43.2808 19.4009 41.822C19.4009 40.3053 19.8901 39.1409 20.8684 38.3277C21.8474 37.5138 23.2494 37.1075 25.0737 37.1061C25.7923 37.1075 26.5088 37.1879 27.2108 37.3447C27.846 37.4776 28.4626 37.6896 29.0475 37.9759V37.6964C29.0475 36.2554 27.897 35.5348 25.5952 35.5348C23.9879 35.5348 23.0041 35.6425 21.671 36.2738C21.671 36.2738 21.4898 34.9117 21.4457 34.4475C21.3479 33.4243 22.136 32.6594 23.4574 32.4072L23.485 32.4017C24.4619 32.2218 25.4526 32.1325 26.4447 32.1359C28.8911 32.1359 30.7402 32.6363 31.9914 33.639C33.2432 34.6411 33.8687 36.0399 33.8687 37.8341V43.9932C33.8687 45.6443 33.3059 46.0287 31.9728 46.0287H29.4733L29.3465 44.878C28.8112 45.3914 28.1767 45.7833 27.4836 46.0287C26.6562 46.3219 25.7847 46.465 24.909 46.4493C23.2645 46.4493 21.9363 46.0424 20.9242 45.2284L20.9214 45.2305ZM27.9245 43.0675C28.3724 42.8718 28.7602 42.5562 29.0475 42.1554V40.974C28.2545 40.4287 27.3176 40.1451 26.3627 40.1601C25.7227 40.1601 25.2294 40.2998 24.8829 40.5807C24.5363 40.8615 24.3613 41.2733 24.3586 41.8159C24.3586 42.3169 24.5274 42.711 24.8649 42.9973C25.2039 43.2781 25.6917 43.4185 26.3324 43.4185C26.8815 43.4226 27.4244 43.3027 27.9225 43.0675H27.9245ZM40.7582 45.769L40.754 26C40.754 26 39.6056 26.0764 39.2225 26.1043C37.2652 26.259 35.9356 27.5652 35.9356 29.084V45.769H40.7582ZM75.0089 35.7434C74.4392 34.6895 73.5752 33.8217 72.5211 33.2436C71.4574 32.6547 70.2201 32.3595 68.8105 32.3595C67.9466 32.3554 67.0881 32.4911 66.2683 32.7603C65.5284 32.9887 64.8422 33.3595 64.247 33.8517L64.2607 26C64.2607 26 63.0923 26.077 62.7037 26.1057C60.7065 26.2611 59.3596 27.5863 59.3596 29.1249V46.0362H63.9562L64.0857 44.7103C65.3258 45.8692 66.9014 46.45 68.8105 46.4507C70.2008 46.4507 71.4333 46.1603 72.5074 45.5802C73.5628 45.0185 74.4323 44.1636 75.0089 43.1206C75.5993 42.0627 75.8942 40.8322 75.8942 39.43C75.8942 38.0489 75.598 36.8191 75.0055 35.742L75.0089 35.7434ZM69.9466 41.82C69.3355 42.4008 68.5294 42.6912 67.5284 42.6905C66.8202 42.7 66.1243 42.503 65.5263 42.1247C64.9476 41.762 64.4998 41.2249 64.2497 40.5909V38.2445C64.4998 37.6106 64.9469 37.0741 65.5263 36.7107C66.1236 36.3324 66.8202 36.1354 67.5284 36.1449C68.5287 36.1449 69.3348 36.4394 69.9466 37.0284C70.5583 37.6181 70.8656 38.419 70.8677 39.43C70.8677 40.4443 70.5618 41.2412 69.9514 41.82H69.9466ZM103.459 42.4424C103.145 42.5514 102.815 42.6073 102.482 42.6073C101.415 42.6073 100.899 42.0497 100.433 41.2112C100.277 40.9461 100.193 40.3632 100.193 40.3632V35.7734H104.141L103.933 33.9465C103.832 33.0412 103.063 32.3561 102.147 32.3554H100.193V26.6817C100.193 26.6817 99.011 26.7601 98.6162 26.788C96.5955 26.9455 95.2252 28.2843 95.2252 29.8481L95.2342 32.487L91.7399 32.6165V33.9369C91.7399 34.9513 92.5666 35.7734 93.5862 35.7734H95.2342V40.4743L95.2562 41.1608C95.2673 43.0913 96.3296 44.8651 98.0327 45.7942C99.7344 46.7234 101.81 46.6627 103.455 45.6347L103.459 42.443V42.4424Z" fill="#FF5A00"/>
</svg>
