<svg width="99" height="22" viewBox="0 0 99 22" fill="none" xmlns="http://www.w3.org/2000/svg">
<path d="M12.6486 17.2325C12.3344 17.3416 12.0037 17.3975 11.671 17.3968C10.6031 17.3968 10.0885 16.8392 9.62207 16.0014C9.46499 15.7355 9.38163 15.1527 9.38163 15.1527V10.5622H13.3306L13.1171 8.73255C13.0151 7.83067 12.249 7.14762 11.3362 7.14421H9.38163V1.47051C9.38163 1.47051 8.19941 1.5489 7.80395 1.57685C5.7826 1.73432 4.41642 3.07316 4.41642 4.63696L4.42538 7.27646L0.929688 7.40598V8.72641C0.929688 9.74008 1.75642 10.5622 2.77743 10.5622H4.42538V15.2638L4.45156 15.9489C4.46258 17.8801 5.52562 19.6539 7.228 20.583C8.93175 21.5122 11.0082 21.4515 12.6527 20.4235L12.6486 17.2332V17.2325ZM37.5862 20.0152C36.5721 19.2013 36.0651 18.0656 36.0657 16.6067C36.0657 15.092 36.5549 13.9277 37.5332 13.1144C38.5122 12.3012 39.9142 11.8942 41.7385 11.8935C42.4571 11.8949 43.1736 11.9747 43.8756 12.1321C44.5108 12.2651 45.1274 12.4771 45.7123 12.7634V12.4832C45.7123 11.0428 44.5618 10.3222 42.26 10.3222C40.6527 10.3222 39.6689 10.43 38.3358 11.0612C38.3358 11.0612 38.1546 9.69986 38.1105 9.23563C38.0127 8.2131 38.8008 7.44824 40.1222 7.19602L40.1498 7.19056C41.1267 7.0106 42.1174 6.9213 43.1095 6.92471C45.5559 6.92471 47.4057 7.42507 48.6575 8.42715C49.9093 9.42923 50.5349 10.8274 50.5335 12.6216V18.7786C50.5335 20.4283 49.9713 20.8134 48.6376 20.8134H46.1381L46.0092 19.6675C45.4739 20.1802 44.8394 20.5721 44.147 20.8175C43.3196 21.1107 42.4474 21.2538 41.5718 21.2381C39.9273 21.2381 38.599 20.8312 37.5869 20.0179L37.5862 20.0152ZM44.5873 17.857C45.0351 17.6613 45.4223 17.3471 45.7102 16.9455V15.7642C44.9173 15.2195 43.9803 14.9352 43.0247 14.9502C42.3861 14.9502 41.8928 15.0907 41.5456 15.3715C41.1984 15.6517 41.0234 16.0634 41.0213 16.6061C41.0213 17.1071 41.1901 17.5011 41.5284 17.7874C41.8673 18.0737 42.3565 18.2142 42.9965 18.208C43.5456 18.2121 44.0885 18.0921 44.5866 17.857H44.5873ZM72.7223 20.0125C71.7082 19.1985 71.2011 18.0628 71.2018 16.604C71.2018 15.0879 71.6909 13.9229 72.6699 13.1097C73.6482 12.2964 75.0502 11.8895 76.8752 11.8888C77.5938 11.8895 78.3103 11.9699 79.0123 12.1274C79.6475 12.2603 80.2641 12.4723 80.849 12.7586V12.4784C80.849 11.0373 79.6985 10.3175 77.3968 10.3175C75.7888 10.3175 74.805 10.4245 73.4712 11.0564C73.4712 11.0564 73.2907 9.69441 73.2466 9.23018C73.1494 8.20696 73.9369 7.44211 75.2583 7.1892L75.2858 7.18443C76.2628 7.00651 77.2528 6.91925 78.2449 6.92402C80.692 6.92402 82.5411 7.42575 83.7922 8.42783C85.044 9.42991 85.6696 10.8287 85.6696 12.6229V18.782C85.6696 20.4331 85.1067 20.8175 83.7736 20.8175H81.2734L81.1474 19.6668C80.6121 20.1802 79.9769 20.5721 79.2838 20.8175C78.457 21.1107 77.5848 21.2538 76.7092 21.2381C75.0654 21.2381 73.7371 20.8312 72.7243 20.0172L72.7223 20.0125ZM79.724 17.8563C80.1718 17.6606 80.5604 17.3457 80.849 16.9442V15.7628C80.0554 15.2175 79.1184 14.9339 78.1629 14.9489C77.5235 14.9489 77.0302 15.0893 76.683 15.3695C76.3365 15.6503 76.1615 16.0621 76.1594 16.6047C76.1594 17.1057 76.3275 17.4998 76.6658 17.7861C77.0034 18.0724 77.4925 18.2128 78.1332 18.2073C78.6823 18.2114 79.2245 18.0915 79.7226 17.8563H79.724ZM14.8511 20.0193C13.8377 19.2053 13.3306 18.0696 13.3306 16.6108C13.3306 15.0941 13.8198 13.9297 14.7981 13.1165C15.7771 12.3026 17.1791 11.8963 19.0034 11.8949C19.722 11.8963 20.4385 11.9767 21.1405 12.1335C21.7757 12.2664 22.3923 12.4784 22.9772 12.7647V12.4852C22.9772 11.0442 21.8267 10.3236 19.5249 10.3236C17.9176 10.3236 16.9338 10.4313 15.6007 11.0626C15.6007 11.0626 15.4195 9.70054 15.3754 9.23631C15.2776 8.2131 16.0657 7.44824 17.3871 7.19602L17.4147 7.19056C18.3916 7.0106 19.3823 6.9213 20.3744 6.92471C22.8208 6.92471 24.6699 7.42507 25.9211 8.42783C27.1729 9.42991 27.7984 10.8287 27.7984 12.6229V18.782C27.7984 20.4331 27.2356 20.8175 25.9025 20.8175H23.403L23.2762 19.6668C22.7409 20.1802 22.1064 20.5721 21.4133 20.8175C20.5859 21.1107 19.7144 21.2538 18.8387 21.2381C17.1942 21.2381 15.866 20.8312 14.8539 20.0172L14.8511 20.0193ZM21.8542 17.8563C22.3021 17.6606 22.6899 17.345 22.9772 16.9442V15.7628C22.1842 15.2175 21.2473 14.9339 20.2924 14.9489C19.6524 14.9489 19.1591 15.0886 18.8126 15.3695C18.466 15.6503 18.291 16.0621 18.2883 16.6047C18.2883 17.1057 18.4571 17.4998 18.7946 17.7861C19.1336 18.0669 19.6214 18.2073 20.2621 18.2073C20.8112 18.2114 21.3541 18.0915 21.8522 17.8563H21.8542ZM34.6879 20.5578L34.6837 0.788818C34.6837 0.788818 33.5353 0.865168 33.1522 0.893117C31.1949 1.04786 29.8653 2.35398 29.8653 3.87278V20.5578H34.6879ZM68.9386 10.5322C68.3689 9.47831 67.5049 8.61052 66.4508 8.03245C65.3871 7.44347 64.1498 7.1483 62.7402 7.1483C61.8763 7.14421 61.0178 7.27987 60.198 7.54913C59.4581 7.7775 58.7719 8.14834 58.1767 8.64052L58.1904 0.788818C58.1904 0.788818 57.022 0.865849 56.6334 0.89448C54.6362 1.04991 53.2893 2.37511 53.2893 3.91368V20.825H57.8859L58.0154 19.4991C59.2555 20.658 60.8311 21.2388 62.7402 21.2395C64.1305 21.2395 65.363 20.9491 66.4371 20.369C67.4925 19.8073 68.362 18.9524 68.9386 17.9094C69.529 16.8515 69.8239 15.621 69.8239 14.2188C69.8239 12.8377 69.5277 11.6079 68.9352 10.5308L68.9386 10.5322ZM63.8763 16.6088C63.2652 17.1896 62.4591 17.48 61.4581 17.4793C60.7499 17.4888 60.054 17.2918 59.456 16.9135C58.8773 16.5508 58.4295 16.0137 58.1794 15.3797V13.0333C58.4295 12.3994 58.8766 11.8629 59.456 11.4995C60.0533 11.1212 60.7499 10.9242 61.4581 10.9337C62.4584 10.9337 63.2645 11.2282 63.8763 11.8172C64.488 12.4069 64.7953 13.2078 64.7974 14.2188C64.7974 15.2331 64.4915 16.03 63.8811 16.6088H63.8763ZM97.3885 17.2312C97.0743 17.3402 96.7443 17.3961 96.4116 17.3961C95.3444 17.3961 94.8291 16.8385 94.3626 16C94.2063 15.7349 94.1229 15.152 94.1229 15.152V10.5622H98.0705L97.8625 8.73527C97.7619 7.82999 96.9923 7.14489 96.0767 7.14421H94.1229V1.47051C94.1229 1.47051 92.9407 1.5489 92.5459 1.57685C90.5252 1.73432 89.1549 3.07316 89.1549 4.63696L89.1639 7.27577L85.6696 7.4053V8.72573C85.6696 9.74008 86.4963 10.5622 87.5159 10.5622H89.1639V15.2631L89.1859 15.9496C89.197 17.8801 90.2593 19.6539 91.9624 20.583C93.6641 21.5122 95.7398 21.4515 97.3843 20.4235L97.3885 17.2318V17.2312Z" fill="#FF5A00"/>
</svg>
