<svg width="30" height="30" viewBox="0 0 30 30" fill="none" xmlns="http://www.w3.org/2000/svg">
<path fill-rule="evenodd" clip-rule="evenodd" d="M15 28.125C18.481 28.125 21.8194 26.7422 24.2808 24.2808C26.7422 21.8194 28.125 18.481 28.125 15C28.125 11.519 26.7422 8.18064 24.2808 5.71922C21.8194 3.25781 18.481 1.875 15 1.875C11.519 1.875 8.18064 3.25781 5.71922 5.71922C3.25781 8.18064 1.875 11.519 1.875 15C1.875 18.481 3.25781 21.8194 5.71922 24.2808C8.18064 26.7422 11.519 28.125 15 28.125ZM15 30C18.9782 30 22.7936 28.4196 25.6066 25.6066C28.4196 22.7936 30 18.9782 30 15C30 11.0218 28.4196 7.20644 25.6066 4.3934C22.7936 1.58035 18.9782 0 15 0C11.0218 0 7.20644 1.58035 4.3934 4.3934C1.58035 7.20644 0 11.0218 0 15C0 18.9782 1.58035 22.7936 4.3934 25.6066C7.20644 28.4196 11.0218 30 15 30Z" fill="#C2773A"/>
<path fill-rule="evenodd" clip-rule="evenodd" d="M19.4802 20.625H11.9802C11.7315 20.625 11.4931 20.5262 11.3173 20.3504C11.1415 20.1746 11.0427 19.9361 11.0427 19.6875C11.0427 19.4388 11.1415 19.2004 11.3173 19.0246C11.4931 18.8488 11.7315 18.75 11.9802 18.75H17.2171L9.44144 10.9762C9.2654 10.8002 9.1665 10.5614 9.1665 10.3125C9.1665 10.0635 9.2654 9.82477 9.44144 9.64873C9.61748 9.47269 9.85623 9.37379 10.1052 9.37379C10.3541 9.37379 10.5929 9.47269 10.7689 9.64873L18.5427 17.4244V12.1875C18.5427 11.9388 18.6415 11.7004 18.8173 11.5246C18.9931 11.3488 19.2315 11.25 19.4802 11.25C19.7288 11.25 19.9673 11.3488 20.1431 11.5246C20.3189 11.7004 20.4177 11.9388 20.4177 12.1875V19.6875C20.4177 19.9361 20.3189 20.1746 20.1431 20.3504C19.9673 20.5262 19.7288 20.625 19.4802 20.625Z" fill="#C2773A"/>
</svg>
