<svg width="12" height="13" viewBox="0 0 12 13" fill="none" xmlns="http://www.w3.org/2000/svg">
<path d="M0 11.7812C0 12.4541 0.575893 13 1.28571 13H10.7143C11.4241 13 12 12.4541 12 11.7812V4.875H0V11.7812ZM1.71429 6.90625C1.71429 6.68281 1.90714 6.5 2.14286 6.5H4.71429C4.95 6.5 5.14286 6.68281 5.14286 6.90625V9.34375C5.14286 9.56719 4.95 9.75 4.71429 9.75H2.14286C1.90714 9.75 1.71429 9.56719 1.71429 9.34375V6.90625ZM10.7143 1.625H9.42857V0.40625C9.42857 0.182812 9.23571 0 9 0H8.14286C7.90714 0 7.71429 0.182812 7.71429 0.40625V1.625H4.28571V0.40625C4.28571 0.182812 4.09286 0 3.85714 0H3C2.76429 0 2.57143 0.182812 2.57143 0.40625V1.625H1.28571C0.575893 1.625 0 2.1709 0 2.84375V4.0625H12V2.84375C12 2.1709 11.4241 1.625 10.7143 1.625Z" fill="#717171"/>
</svg>
