<svg width="16" height="15" viewBox="0 0 16 15" fill="none" xmlns="http://www.w3.org/2000/svg">
<path d="M13.5 9.375H12.5C12.3674 9.375 12.2402 9.42439 12.1464 9.51229C12.0527 9.6002 12 9.71943 12 9.84375V13.125H2V3.75H6.5C6.63261 3.75 6.75979 3.70061 6.85355 3.61271C6.94732 3.5248 7 3.40557 7 3.28125V2.34375C7 2.21943 6.94732 2.1002 6.85355 2.01229C6.75979 1.92439 6.63261 1.875 6.5 1.875H1.5C1.10218 1.875 0.720644 2.02316 0.43934 2.28688C0.158035 2.5506 0 2.90829 0 3.28125L0 13.5938C0 13.9667 0.158035 14.3244 0.43934 14.5881C0.720644 14.8518 1.10218 15 1.5 15H12.5C12.8978 15 13.2794 14.8518 13.5607 14.5881C13.842 14.3244 14 13.9667 14 13.5938V9.84375C14 9.71943 13.9473 9.6002 13.8536 9.51229C13.7598 9.42439 13.6326 9.375 13.5 9.375ZM15.25 0H11.25C10.5822 0 10.2484 0.759082 10.7188 1.20117L11.8353 2.24795L4.21875 9.38584C4.14883 9.45116 4.09335 9.52878 4.0555 9.61425C4.01764 9.69971 3.99816 9.79135 3.99816 9.88389C3.99816 9.97643 4.01764 10.0681 4.0555 10.1535C4.09335 10.239 4.14883 10.3166 4.21875 10.3819L4.92719 11.0449C4.99687 11.1105 5.07966 11.1625 5.17082 11.198C5.26199 11.2335 5.35973 11.2517 5.45844 11.2517C5.55715 11.2517 5.65489 11.2335 5.74605 11.198C5.83721 11.1625 5.92001 11.1105 5.98969 11.0449L13.6025 3.90586L14.7188 4.95117C15.1875 5.39062 16 5.08301 16 4.45312V0.703125C16 0.516645 15.921 0.337802 15.7803 0.205941C15.6397 0.074079 15.4489 0 15.25 0Z" fill="#C2773A"/>
</svg>
