<?xml version="1.0" encoding="utf-8"?>
<!-- Generator: Adobe Illustrator 24.3.0, SVG Export Plug-In . SVG Version: 6.00 Build 0)  -->
<svg version="1.1" id="Layer_1" xmlns="http://www.w3.org/2000/svg" xmlns:xlink="http://www.w3.org/1999/xlink" x="0px" y="0px"
	 viewBox="0 0 1920 1920" style="enable-background:new 0 0 1920 1920;" xml:space="preserve">
<style type="text/css">
	.st0{fill:#BC8557;}
</style>
<path class="st0" d="M1855.5,960.4c0.2-12-2.8-24-8.8-34.7c-5.5-12.1-14.4-22.2-25.5-29.2l-793.5-793.5c-1.9-2.6-4-5.1-6.3-7.4
	L1010,84.1c-13.7-13.7-31.6-20.4-49.5-20.3c-17.9-0.1-35.8,6.6-49.5,20.3l-11.4,11.4c-2.3,2.3-4.4,4.8-6.3,7.4L99.7,896.5
	c-11.1,7-20,17.2-25.5,29.2c-6,10.8-9,22.8-8.8,34.7c-0.1,10.1,1.9,20.2,6.2,29.5c5.4,16.4,16.9,30.1,31.9,38.2l789.7,789.7
	c1.9,2.6,4,5.1,6.3,7.4l11.4,11.4c13.7,13.7,31.6,20.4,49.5,20.3c17.9,0.1,35.8-6.6,49.5-20.3l11.4-11.4c2.3-2.3,4.4-4.8,6.3-7.4
	l789.7-789.7c15-8.1,26.5-21.8,31.9-38.2C1853.6,980.6,1855.7,970.5,1855.5,960.4z M960.5,1666.4l-630.1-630.1h1260.3L960.5,1666.4z
	 M960.5,254.4l631.6,631.6H328.9L960.5,254.4z"/>
</svg>
