<svg width="16" height="18" viewBox="0 0 16 18" fill="none" xmlns="http://www.w3.org/2000/svg">
<path d="M14.2818 11.7418C13.499 12.4349 12.6371 13.0093 11.7024 13.414L13.4018 16.6251L15.0878 17.4106C15.3944 17.5534 15.7406 17.3352 15.7806 16.9742L16 14.9884L14.2818 11.7418ZM15.6097 8.51812C15.7616 8.25664 15.6687 7.90481 15.4206 7.75481L14.5434 7.224C14.3097 7.08252 14.0243 7.17423 13.879 7.41901C12.5943 9.58485 10.383 10.9093 8.00016 10.9093C7.25233 10.9093 6.52419 10.7644 5.83105 10.5162L7.93609 6.53842C7.95797 6.5391 7.97797 6.54558 7.99984 6.54558C8.02172 6.54558 8.04203 6.5391 8.06359 6.53842L9.66019 9.55553C10.6361 9.25007 11.5215 8.67767 12.2418 7.88777L10.6233 4.82941C10.8561 4.36474 11.0002 3.83973 11.0002 3.27279C11.0002 1.46526 9.65706 0 8.00016 0C6.34325 0 5.0001 1.46526 5.0001 3.27279C5.0001 3.83973 5.14416 4.36474 5.37667 4.82941L3.24225 8.86279C2.85006 8.46698 2.49349 8.02448 2.18973 7.53322C2.04004 7.29117 1.75316 7.20525 1.52159 7.35151L0.654388 7.89936C0.409071 8.05414 0.322194 8.40732 0.478134 8.6654C0.964706 9.47132 1.56222 10.1726 2.22754 10.7798L0 14.9887L0.219379 16.9745C0.25938 17.3356 0.605637 17.5538 0.912205 17.4109L2.59818 16.6254L4.81072 12.4448C5.81668 12.8621 6.89451 13.0912 8.00016 13.0912C11.0955 13.0912 13.9653 11.3522 15.6097 8.51812ZM8.00016 2.18186C8.55235 2.18186 9.00018 2.67039 9.00018 3.27279C9.00018 3.87519 8.55235 4.36372 8.00016 4.36372C7.44796 4.36372 7.00014 3.87519 7.00014 3.27279C7.00014 2.67039 7.44796 2.18186 8.00016 2.18186Z" fill="#C2773A"/>
</svg>
